<?xml version="1.0" encoding="UTF-8"?>
<svg xmlns="http://www.w3.org/2000/svg" viewBox="0 0 1371.49 637.29">
  <defs>
    <style>
      .cls-1 {
        fill: #2364aa;
      }

      .cls-2 {
        fill: #fec601;
      }

      .cls-3 {
        fill: #b8252b;
      }

      .cls-4 {
        fill: #cf2a30;
      }

      .cls-5 {
        fill: #fdd283;
      }

      .cls-6 {
        fill: #ed637f;
      }

      .cls-7 {
        isolation: isolate;
      }

      .cls-8 {
        opacity: .2;
      }

      .cls-8, .cls-9 {
        mix-blend-mode: overlay;
      }

      .cls-10 {
        fill: #dadaf2;
      }

      .cls-11 {
        stroke: #287bc6;
      }

      .cls-11, .cls-12 {
        fill: none;
        stroke-miterlimit: 10;
      }

      .cls-12 {
        stroke: #2364aa;
      }

      .cls-13 {
        fill: #4a4e80;
      }

      .cls-14 {
        fill: #c2c3f2;
      }

      .cls-15 {
        fill: #35d2d5;
      }

      .cls-16 {
        fill: #ea7317;
      }

      .cls-17 {
        fill: #efe7b6;
      }

      .cls-18 {
        fill: #e32e34;
      }

      .cls-19 {
        fill: #fdb86f;
      }

      .cls-20 {
        fill: #f2f2ff;
      }

      .cls-21 {
        fill: #50aa89;
      }

      .cls-22 {
        fill: #e86600;
      }

      .cls-9 {
        opacity: .3;
      }

      .cls-23 {
        fill: #8a8fe6;
      }

      .cls-24 {
        fill: #287bc6;
      }

      .cls-25 {
        fill: #73bfb8;
      }

      .cls-26 {
        fill: #7b7fcc;
      }

      .cls-27 {
        fill: #3da5d9;
      }
    </style>
  </defs>
  <g class="cls-7">
    <g id="_圖層_2" data-name="圖層_2">
      <g id="_圖層_2-2" data-name="圖層_2">
        <rect class="cls-27" x="1001.7" y="458.6" width="112.11" height="36.55"/>
        <rect class="cls-27" x="1201.26" y="458.6" width="85.12" height="36.55"/>
        <rect class="cls-27" x="1286.38" y="448.09" width="85.12" height="54.56"/>
        <rect class="cls-1" x="1128.2" y="443.01" width="54.66" height="31.17"/>
        <path class="cls-15" d="M27.32,470.63v61.49s63.57,75.63,282.64,60.19c219.06-15.44,264.51-59.8,264.51-59.8l-278.81-108.33s-144.51-21.81-268.34,46.45Z"/>
        <path class="cls-27" d="M456,438.37s57.45,30.45,147.06,9.96c71.08-16.25,145.53-.12,233.62,59.3s98.81,47.16,98.81,47.16l-214.25,43.95-265.24-160.38Z"/>
        <path class="cls-2" d="M690.13,569.1s79.66,6.13,184.6-33.7,212.17,30.55,247.4,34.04c0,0-35.23-11.83-66.64,5.79s-120.26,45.96-208.34,33.71-157.02-39.83-157.02-39.83Z"/>
        <path class="cls-1" d="M36.77,449.54s58.21-87.19,180.51-100.79c105.83-11.76,183.1,33.38,277.31,100.79s260.64,153.26,380.13,162.45c0,0-194.55,76.6-367.66-36.77-173.11-113.36-283.4-170.04-392.17-134.81C6.13,475.65,0,575.22,0,575.22l36.77-125.68Z"/>
        <polygon class="cls-1" points="1124.6 425.86 1070.98 425.86 1020.51 460.16 1086.13 460.16 1103.74 446.37 1124.6 425.86"/>
        <polygon class="cls-1" points="1186.64 425.86 1240.26 425.86 1290.72 460.16 1225.11 460.16 1207.49 446.37 1186.64 425.86"/>
        <polygon class="cls-27" points="1130.55 417.86 1086.13 451.31 1222.47 451.31 1181.28 417.86 1130.55 417.86"/>
        <g>
          <path class="cls-1" d="M843.14,481.22l-.07-4.38h-2.24l-.07,4.38v.55c-.02.16-.02.32-.03.48-.03.32-.06.63-.13.95-.12.62-.31,1.24-.57,1.81-.26.58-.58,1.13-.96,1.63-.09.13-.2.25-.29.37-.11.12-.21.24-.32.35l-.17.17-.08.08-.1.09-.39.38-3.15,3.04-.2.19-.1.1-.11.11c-.11.11-.21.22-.32.33l-.06-2.76v-.38s-.03-.44-.03-.44c-.02-.29-.05-.59-.09-.88-.09-.58-.23-1.15-.41-1.71-.33-.98-.82-1.91-1.44-2.74l5.41-5.95-1.19-1.19-5.89,5.36-.84-.8-4.42-4.24-1.43,1.43,4.24,4.42,1.06,1.1c.38.39.65.68.92,1.04.53.7.92,1.49,1.16,2.33.12.42.21.84.25,1.27.02.21.03.43.04.65v.33s0,.38,0,.38l-.06,3.06-.13,6.12h.04c-.02.2-.04.4-.04.59v.32s-.02.28-.02.28v.55s-.15,8.76-.15,8.76h3.39l-.14-8.76v-.55s-.01-.27-.01-.27v-.23c0-.31.03-.61.06-.92.08-.61.23-1.21.44-1.79.21-.58.49-1.14.83-1.65.09-.13.17-.26.27-.38l.14-.19.15-.18c.1-.12.2-.23.31-.35l.08-.09.1-.1.19-.2,3.04-3.15.38-.39.1-.1.11-.11.21-.23c.14-.16.27-.32.4-.48.12-.17.25-.33.37-.5.48-.68.87-1.41,1.19-2.17.31-.76.53-1.57.66-2.38.07-.41.1-.82.12-1.23.01-.21,0-.41.01-.62v-.55Z"/>
          <path class="cls-21" d="M852.14,477.4c5.21,0,9.43-4.23,9.41-9.45-.02-5.2-4.31-9.38-9.52-9.38h-.97v-5.63c0-5.4-4.38-9.77-9.77-9.77-1.55-.05-2.89-1.08-3.37-2.55-1.04-3.17-4.02-5.45-7.53-5.44-4.36.02-7.87,3.62-7.87,7.98v3.41c0,1.31-1.06,2.37-2.37,2.37-3.29,0-5.96,2.67-5.96,5.96v3.67h-1.07c-5.2,0-9.5,4.18-9.52,9.38-.02,5.21,4.2,9.45,9.41,9.45h39.11Z"/>
          <path class="cls-25" d="M847.81,477.4c4.06,0,7.34-3.3,7.33-7.35-.01-4.05-3.36-7.3-7.41-7.3h-.75v-4.38c0-4.2-3.41-7.61-7.61-7.61-1.21-.04-2.25-.84-2.62-1.99-.81-2.46-3.13-4.24-5.86-4.23-3.4.01-6.12,2.82-6.12,6.21v2.65c0,1.02-.83,1.84-1.84,1.84-2.56,0-4.64,2.08-4.64,4.64v2.86h-.83c-4.05,0-7.39,3.25-7.41,7.3-.01,4.06,3.27,7.35,7.33,7.35h30.45Z"/>
        </g>
        <polygon class="cls-24" points="1186.64 437.88 1200.96 437.88 1208.28 448.95 1211.01 449.13 1211.01 496.61 1175.94 496.61 1175.94 460.16 1174.4 460.16 1174.4 449.46 1177.64 449.46 1186.64 437.88"/>
        <polygon class="cls-24" points="1121.96 437.88 1107.64 437.88 1100.33 448.95 1097.59 449.13 1097.59 496.61 1132.67 496.61 1132.67 460.16 1134.2 460.16 1134.2 449.46 1130.96 449.46 1121.96 437.88"/>
        <circle class="cls-1" cx="1115.89" cy="449.54" r="4.17"/>
        <circle class="cls-1" cx="1192.71" cy="449.54" r="4.17"/>
        <path class="cls-1" d="M1114.57,467.24h0c4.08,0,7.4,3.31,7.4,7.4v21.96h-14.79v-21.96c0-4.08,3.31-7.4,7.4-7.4Z"/>
        <path class="cls-1" d="M1192.71,467.24h0c4.08,0,7.4,3.31,7.4,7.4v21.96h-14.79v-21.96c0-4.08,3.31-7.4,7.4-7.4Z"/>
        <rect class="cls-24" x="1105.89" y="478.35" width="17.11" height="1.28"/>
        <rect class="cls-24" x="1105.89" y="486.78" width="17.11" height="1.28"/>
        <rect class="cls-24" x="1099.19" y="480.71" width="30.51" height="1.28" transform="translate(1595.8 -633.1) rotate(90)"/>
        <rect class="cls-24" x="1184.16" y="478.35" width="17.11" height="1.28"/>
        <rect class="cls-24" x="1184.16" y="486.78" width="17.11" height="1.28"/>
        <rect class="cls-24" x="1177.45" y="480.71" width="30.51" height="1.28" transform="translate(1674.06 -711.36) rotate(90)"/>
        <polygon class="cls-27" points="1155.49 453.71 1132.66 468.86 1132.66 545.97 1177.85 545.97 1177.85 467.24 1155.49 453.71"/>
        <polygon class="cls-24" points="1137.07 545.46 1124.93 545.46 1135.47 466.1 1137.07 467.53 1137.07 545.46"/>
        <polygon class="cls-24" points="1174.01 545.46 1186.16 545.46 1175.62 466.1 1174.01 467.53 1174.01 545.46"/>
        <rect class="cls-27" x="1175.6" y="466.1" width="12.15" height="79.87"/>
        <rect class="cls-27" x="1123.32" y="466.1" width="12.15" height="79.87"/>
        <path class="cls-1" d="M1155.26,493.03h0c7.12,0,12.89,5.78,12.89,12.89v40.04h-25.79v-40.04c0-7.12,5.78-12.89,12.89-12.89Z"/>
        <path class="cls-11" d="M1155.29,479.63h0c10.75,0,19.48,8.73,19.48,19.48v46.35h-38.95v-46.35c0-10.75,8.73-19.48,19.48-19.48Z"/>
        <path class="cls-11" d="M1154.42,486.59h1.66c6.66,0,12.06,5.4,12.06,12.06v46.81h-25.79v-46.81c0-6.66,5.4-12.06,12.06-12.06Z"/>
        <g>
          <rect class="cls-3" x="815.04" y="257.3" width="8.66" height="46.72"/>
          <rect class="cls-3" x="832.68" y="257.3" width="12.31" height="46.72"/>
          <rect class="cls-3" x="852.07" y="257.3" width="6.44" height="46.72"/>
          <rect class="cls-3" x="954.97" y="257.3" width="8.66" height="46.72" transform="translate(1918.61 561.31) rotate(-180)"/>
          <rect class="cls-3" x="933.7" y="257.3" width="12.31" height="46.72" transform="translate(1879.7 561.31) rotate(-180)"/>
          <rect class="cls-3" x="920.18" y="257.3" width="6.44" height="46.72" transform="translate(1846.79 561.31) rotate(-180)"/>
          <g>
            <g>
              <rect class="cls-22" x="801.89" y="284.4" width="25.29" height="8.57"/>
              <rect class="cls-9" x="801.89" y="284.4" width="25.29" height="4.86"/>
            </g>
            <g>
              <g>
                <rect class="cls-22" x="832.68" y="284.4" width="33.9" height="8.57"/>
                <rect class="cls-9" x="832.68" y="284.4" width="33.9" height="4.86"/>
              </g>
              <g>
                <rect class="cls-22" x="874.89" y="284.4" width="31.17" height="8.57"/>
                <rect class="cls-9" x="874.89" y="284.4" width="31.17" height="4.86"/>
              </g>
              <g>
                <rect class="cls-22" x="913.49" y="284.4" width="31.17" height="8.57"/>
                <rect class="cls-9" x="913.49" y="284.4" width="31.17" height="4.86"/>
              </g>
            </g>
            <g>
              <rect class="cls-22" x="952.72" y="284.4" width="23.27" height="8.57"/>
              <rect class="cls-9" x="952.72" y="284.4" width="23.27" height="4.86"/>
            </g>
            <g>
              <rect class="cls-4" x="788.17" y="257.3" width="201.49" height="2.27"/>
              <rect class="cls-18" x="788.17" y="257.3" width="4.33" height="3.75"/>
              <rect class="cls-18" x="797.56" y="257.3" width="4.33" height="3.75"/>
              <rect class="cls-18" x="806.95" y="257.3" width="4.33" height="3.75"/>
              <rect class="cls-18" x="816.34" y="257.3" width="4.33" height="3.75"/>
              <rect class="cls-18" x="825.72" y="257.3" width="4.33" height="3.75"/>
              <rect class="cls-18" x="835.11" y="257.3" width="4.33" height="3.75"/>
              <rect class="cls-18" x="853.89" y="257.3" width="4.33" height="3.75"/>
              <rect class="cls-18" x="872.67" y="257.3" width="4.33" height="3.75"/>
              <rect class="cls-18" x="844.5" y="257.3" width="4.33" height="3.75"/>
              <rect class="cls-18" x="863.28" y="257.3" width="4.33" height="3.75"/>
              <rect class="cls-18" x="882.06" y="257.3" width="4.33" height="3.75"/>
              <rect class="cls-18" x="891.44" y="257.3" width="4.33" height="3.75"/>
              <rect class="cls-18" x="900.83" y="257.3" width="4.33" height="3.75"/>
              <rect class="cls-18" x="910.22" y="257.3" width="4.33" height="3.75"/>
              <rect class="cls-18" x="919.61" y="257.3" width="4.33" height="3.75"/>
              <rect class="cls-18" x="929" y="257.3" width="4.33" height="3.75"/>
              <rect class="cls-18" x="938.39" y="257.3" width="4.33" height="3.75"/>
              <rect class="cls-18" x="947.78" y="257.3" width="4.33" height="3.75"/>
              <rect class="cls-18" x="957.16" y="257.3" width="4.33" height="3.75"/>
              <rect class="cls-18" x="966.55" y="257.3" width="4.33" height="3.75"/>
              <rect class="cls-18" x="975.94" y="257.3" width="4.33" height="3.75"/>
              <rect class="cls-18" x="985.33" y="257.3" width="4.33" height="3.75"/>
            </g>
            <g>
              <path class="cls-18" d="M1008.71,253.37l-7.83,1.27c-20.77-3.48-34.53-10.54-34.53-10.54h-154.87s-13.76,7.07-34.53,10.54l-7.83-1.27-.9.46c5.44,1.29,14.81,3.47,22.43,3.47h196.52c7.62,0,16.99-2.17,22.43-3.47l-.9-.46Z"/>
              <path class="cls-16" d="M966.39,246.36h-154.94c-8.12,4.31-20.69,8.15-29.53,10.16,2.96.46,5.97.77,8.75.77h196.52c2.77,0,5.78-.31,8.75-.77-8.84-2.01-21.41-5.85-29.53-10.16Z"/>
              <path class="cls-9" d="M812.28,244.1h-.8s-13.76,7.07-34.53,10.54l-7.83-1.27,8.28,1.71s17.92-2.29,34.87-10.99Z"/>
              <g class="cls-8">
                <path d="M855.9,246.36h-2.64c-3.76,3.38-8.36,7.76-11.65,10.93h2.61c3.38-3.25,7.99-7.63,11.68-10.93Z"/>
                <path d="M848.03,246.36h-2.71c-4.73,3.6-10.72,7.89-15.01,10.93h2.75c4.41-3.13,10.36-7.4,14.97-10.93Z"/>
                <path d="M863.99,246.36h-2.56c-2.79,3.23-6.07,7.65-8.42,10.93h2.53c2.41-3.35,5.71-7.8,8.45-10.93Z"/>
                <path d="M872.36,246.36h-2.48c-1.82,3.13-3.89,7.57-5.37,10.93h2.47c1.51-3.41,3.6-7.89,5.38-10.93Z"/>
                <path d="M986.17,255.98c-7.03-2.08-16.19-5.32-23.09-9.61h-2.82c7.17,4.65,16.95,8.12,24.4,10.32.71.21,1.41.41,2.1.61h.42c1.05,0,2.13-.04,3.23-.12-1.35-.36-2.77-.76-4.23-1.19Z"/>
                <path d="M881.08,246.36h-2.44c-.89,3.08-1.86,7.5-2.57,10.93h2.44c.81-3.93,1.76-8.12,2.56-10.93Z"/>
                <path d="M817.57,246.36h-2.82c-6.89,4.29-16.03,7.52-23.04,9.6-1.48.44-2.91.84-4.28,1.21,1.1.08,2.18.12,3.23.12h.42c.69-.19,1.39-.4,2.1-.61,7.45-2.2,17.23-5.68,24.4-10.32Z"/>
                <path d="M840.31,246.36h-2.76c-5.67,3.89-13.07,8.06-18.41,10.93h2.96c5.48-2.97,12.74-7.11,18.21-10.93Z"/>
                <path d="M832.68,246.36h-2.8c-6.55,4.24-15.34,8.25-21.74,10.93h3.24c6.55-2.8,15.05-6.77,21.3-10.93Z"/>
                <path d="M803.99,256.25c6.43-2.32,14.82-5.78,21.12-9.89h-2.82c-7.35,4.62-17.46,8.45-24.93,10.93h3.66c.96-.33,1.95-.68,2.96-1.04Z"/>
                <path d="M940.29,246.36h-2.76c5.47,3.82,12.74,7.96,18.21,10.93h2.96c-5.33-2.87-12.74-7.04-18.41-10.93Z"/>
                <path d="M947.95,246.36h-2.8c6.25,4.16,14.75,8.13,21.3,10.93h3.24c-6.4-2.68-15.2-6.69-21.74-10.93Z"/>
                <path d="M932.51,246.36h-2.71c4.61,3.53,10.56,7.8,14.97,10.93h2.75c-4.29-3.04-10.28-7.33-15.01-10.93Z"/>
                <path d="M955.53,246.36h-2.82c6.31,4.11,14.7,7.57,21.12,9.89,1.01.37,2,.71,2.96,1.04h3.66c-7.47-2.48-17.57-6.31-24.92-10.93Z"/>
                <path d="M907.95,246.36h-2.48c1.78,3.04,3.87,7.52,5.38,10.93h2.47c-1.49-3.36-3.55-7.8-5.37-10.93Z"/>
                <path d="M899.19,246.36h-2.44c.8,2.81,1.75,7,2.56,10.93h2.44c-.71-3.43-1.68-7.85-2.57-10.93Z"/>
                <path d="M890.13,257.3v-10.93h-2.44v10.93h2.44Z"/>
                <path d="M924.57,246.36h-2.64c3.69,3.3,8.3,7.68,11.68,10.93h2.61c-3.29-3.18-7.89-7.55-11.65-10.93Z"/>
                <path d="M916.4,246.36h-2.56c2.74,3.13,6.04,7.58,8.45,10.93h2.53c-2.35-3.28-5.62-7.7-8.42-10.93Z"/>
              </g>
            </g>
            <g>
              <rect class="cls-17" x="811.48" y="224.31" width="154.87" height="14.51"/>
              <g>
                <rect class="cls-3" x="811.48" y="224.31" width="3.57" height="14.51"/>
                <rect class="cls-9" x="815.04" y="224.31" width=".79" height="14.51" transform="translate(1630.87 463.13) rotate(180)"/>
              </g>
              <g>
                <rect class="cls-3" x="841.42" y="224.31" width="3.57" height="14.51"/>
                <rect class="cls-9" x="844.99" y="224.31" width=".79" height="14.51" transform="translate(1690.76 463.13) rotate(180)"/>
              </g>
              <g>
                <rect class="cls-3" x="871.57" y="224.31" width="3.57" height="14.51"/>
                <rect class="cls-9" x="875.13" y="224.31" width=".79" height="14.51" transform="translate(1751.05 463.13) rotate(180)"/>
              </g>
              <g>
                <rect class="cls-3" x="901.71" y="224.31" width="3.57" height="14.51"/>
                <rect class="cls-9" x="905.28" y="224.31" width=".79" height="14.51" transform="translate(1811.34 463.13) rotate(180)"/>
              </g>
              <g>
                <rect class="cls-3" x="962.79" y="224.31" width="3.57" height="14.51" transform="translate(1929.14 463.13) rotate(180)"/>
                <rect class="cls-9" x="962" y="224.31" width=".79" height="14.51"/>
              </g>
              <g>
                <rect class="cls-3" x="932.64" y="224.31" width="3.57" height="14.51" transform="translate(1868.85 463.13) rotate(180)"/>
                <rect class="cls-9" x="931.86" y="224.31" width=".79" height="14.51"/>
              </g>
              <rect class="cls-9" x="811.48" y="224.31" width="154.87" height="4.33"/>
              <rect class="cls-16" x="811.48" y="238.82" width="154.87" height="5.28"/>
              <rect class="cls-9" x="811.48" y="238.82" width="154.87" height=".61"/>
            </g>
            <g>
              <rect class="cls-4" x="797.56" y="224.6" width="182.71" height="2.27"/>
              <rect class="cls-18" x="797.56" y="224.6" width="4.33" height="3.75"/>
              <rect class="cls-18" x="806.95" y="224.6" width="4.33" height="3.75"/>
              <rect class="cls-18" x="816.34" y="224.6" width="4.33" height="3.75"/>
              <rect class="cls-18" x="825.72" y="224.6" width="4.33" height="3.75"/>
              <rect class="cls-18" x="835.11" y="224.6" width="4.33" height="3.75"/>
              <rect class="cls-18" x="844.5" y="224.6" width="4.33" height="3.75"/>
              <rect class="cls-18" x="863.28" y="224.6" width="4.33" height="3.75"/>
              <rect class="cls-18" x="882.06" y="224.6" width="4.33" height="3.75"/>
              <rect class="cls-18" x="853.89" y="224.6" width="4.33" height="3.75"/>
              <rect class="cls-18" x="872.67" y="224.6" width="4.33" height="3.75"/>
              <rect class="cls-18" x="891.44" y="224.6" width="4.33" height="3.75"/>
              <rect class="cls-18" x="900.83" y="224.6" width="4.33" height="3.75"/>
              <rect class="cls-18" x="910.22" y="224.6" width="4.33" height="3.75"/>
              <rect class="cls-18" x="919.61" y="224.6" width="4.33" height="3.75"/>
              <rect class="cls-18" x="929" y="224.6" width="4.33" height="3.75"/>
              <rect class="cls-18" x="938.39" y="224.6" width="4.33" height="3.75"/>
              <rect class="cls-18" x="947.78" y="224.6" width="4.33" height="3.75"/>
              <rect class="cls-18" x="957.16" y="224.6" width="4.33" height="3.75"/>
              <rect class="cls-18" x="966.55" y="224.6" width="4.33" height="3.75"/>
              <rect class="cls-18" x="975.94" y="224.6" width="4.33" height="3.75"/>
            </g>
            <g>
              <path class="cls-18" d="M996.76,216.25l-6.77,2.63c-26.12-4.48-41.51-20.98-41.51-20.98h-119.15s-15.38,16.5-41.51,20.98l-6.77-2.63-.77.95c4.7,2.69,12.8,7.22,19.39,7.22h178.47c6.58,0,14.69-4.53,19.39-7.22l-.77-.95Z"/>
              <path class="cls-9" d="M947.6,197.9h.89s15.38,16.5,41.51,20.98l6.77-2.63-6.67,3.22s-22.12-1.87-42.5-21.57Z"/>
              <path class="cls-16" d="M946.49,199.85h-115.15c-13.33,13.84-29.34,20.18-39.22,22.96,2.56.96,5.16,1.6,7.56,1.6h178.47c2.4,0,5-.65,7.56-1.6-9.88-2.78-25.89-9.12-39.22-22.96Z"/>
              <path class="cls-9" d="M830.23,197.9h-.89s-15.38,16.5-41.51,20.98l-6.77-2.63,6.67,3.22s22.12-1.87,42.5-21.57Z"/>
              <g class="cls-8">
                <path d="M867.57,199.85h-2.6c-3.31,6.93-7.52,17.18-10.46,24.57h2.56c3.03-7.57,7.28-17.9,10.51-24.57Z"/>
                <path d="M874.71,199.85h-2.51c-2.19,6.54-4.84,16.91-6.71,24.57h2.48c1.91-7.82,4.6-18.31,6.73-24.57Z"/>
                <path d="M860.67,199.85h-2.68c-4.4,7.5-10.27,17.54-14.38,24.57h2.67c4.23-7.23,10.09-17.26,14.38-24.57Z"/>
                <path d="M847.27,199.85h-2.76c-6.47,9.27-15.71,18.51-22.25,24.57h3.16c6.72-6.32,15.66-15.46,21.85-24.57Z"/>
                <path d="M818.77,221.96c6.7-5.18,15.58-12.99,21.88-22.12h-2.77c-7.4,10.34-18.22,19.07-25.99,24.57h3.61c1.05-.77,2.15-1.59,3.27-2.45Z"/>
                <path d="M808.52,222.92c7.85-4.83,18.29-12.6,25.53-23.08h-2.71c-.08.09-.17.17-.25.25-6.99,9.6-16.68,16.78-24.04,21.32-1.8,1.11-3.53,2.11-5.16,3h4.14c.81-.47,1.64-.97,2.49-1.49Z"/>
                <path d="M890.13,199.85h-2.44v24.57h2.44v-24.57Z"/>
                <path d="M853.93,199.85h-2.73c-5.47,8.3-13.03,17.99-18.35,24.57h2.87c5.47-6.8,12.92-16.43,18.21-24.57Z"/>
                <path d="M882.2,199.85h-2.44c-1.08,6.34-2.32,16.68-3.21,24.57h2.44c1.04-9.22,2.24-18.92,3.2-24.57Z"/>
                <path d="M939.95,199.85h-2.77c6.3,9.12,15.18,16.94,21.88,22.12,1.12.86,2.21,1.68,3.27,2.45h3.61c-7.77-5.5-18.59-14.23-25.99-24.57Z"/>
                <path d="M926.63,199.85h-2.73c5.28,8.14,12.74,17.76,18.21,24.57h2.87c-5.31-6.58-12.88-16.27-18.35-24.57Z"/>
                <path d="M933.32,199.85h-2.76c6.19,9.11,15.13,18.25,21.85,24.57h3.16c-6.54-6.06-15.78-15.3-22.25-24.57Z"/>
                <path d="M970.77,221.41c-7.36-4.54-17.05-11.72-24.04-21.32-.08-.08-.17-.17-.25-.25h-2.71c7.24,10.47,17.68,18.24,25.53,23.08.85.52,1.68,1.02,2.49,1.49h4.14c-1.63-.89-3.37-1.89-5.16-3Z"/>
                <path d="M912.86,199.85h-2.6c3.23,6.66,7.48,16.99,10.51,24.57h2.56c-2.95-7.39-7.15-17.64-10.46-24.57Z"/>
                <path d="M919.83,199.85h-2.68c4.29,7.3,10.16,17.34,14.38,24.57h2.67c-4.11-7.03-9.98-17.07-14.38-24.57Z"/>
                <path d="M905.63,199.85h-2.51c2.13,6.26,4.82,16.75,6.73,24.57h2.48c-1.87-7.66-4.52-18.03-6.71-24.57Z"/>
                <path d="M898.06,199.85h-2.44c.96,5.65,2.16,15.35,3.2,24.57h2.44c-.88-7.89-2.13-18.23-3.21-24.57Z"/>
              </g>
            </g>
          </g>
          <polygon class="cls-16" points="802.79 292.97 807.85 301.91 974.46 301.91 976.89 292.97 802.79 292.97"/>
          <path class="cls-16" d="M974.57,301.9v53.96h-62.28v-15.22c0-12.32-9.98-22.31-22.3-22.31s-22.31,9.99-22.31,22.31v15.22h-59.64v-53.96h166.53Z"/>
          <rect class="cls-9" x="875.72" y="306.14" width="31.17" height="10.04"/>
          <rect class="cls-9" x="808.04" y="301.12" width="166.53" height="2.89"/>
          <path class="cls-18" d="M827.49,191.41s9.22,6.87,16.38,6.49l-9.1,1.43-5.08-.57s-1.68-3.6-2.6-6.79l.4-.55Z"/>
          <path class="cls-18" d="M951.39,191.41s-9.22,6.87-16.38,6.49l9.1,1.43,5.08-.57s1.68-3.6,2.6-6.79l-.4-.55Z"/>
          <rect class="cls-27" x="933.2" y="314.05" width="17.23" height="37.51"/>
          <rect class="cls-24" x="933.2" y="347.42" width="17.23" height="1.47"/>
          <rect class="cls-27" x="928.52" y="348.69" width="26.04" height="7.55"/>
        </g>
        <rect class="cls-27" x="1142.55" y="394.82" width="25.4" height="25.4"/>
        <rect class="cls-24" x="1142.55" y="397.12" width="25.4" height="1.66"/>
        <rect class="cls-27" x="1141.4" y="394.18" width="27.7" height="2.94"/>
        <path class="cls-27" d="M1153.21,385.2h4.09c4.96,0,8.98,4.02,8.98,8.98h-22.04c0-4.96,4.02-8.98,8.98-8.98Z"/>
        <polygon class="cls-24" points="1156.35 381.66 1153.8 381.66 1152.41 385.68 1158.1 385.68 1156.35 381.66"/>
        <rect class="cls-24" x="1154.55" y="374.1" width=".99" height="9.67"/>
        <path class="cls-27" d="M912.42,0s-20.77,46.64-20.26,46.64l52.6,21.28,13.11-45.96L912.42,0Z"/>
        <polygon class="cls-2" points="892.16 46.64 957.87 21.96 944.76 67.91 892.16 46.64"/>
        <polygon class="cls-1" points="944.76 67.91 926.87 33.6 957.87 21.96 944.76 67.91"/>
        <path class="cls-2" d="M892.16,46.64s-9.02,12.83,0,22.7,0,27.06,0,27.06l4,1.02s6.2-21.91-1.12-29.51-2.87-21.28-2.87-21.28Z"/>
        <path class="cls-2" d="M957.14,21.96s15.19,3.89,14.76,17.25,17.59,20.57,17.59,20.57l-2.38,3.38s-18.95-12.63-18.32-23.16c.63-10.53-11.64-18.04-11.64-18.04Z"/>
        <path class="cls-12" d="M944.76,67.91s23.59,13.51,21.83,56.06,85.04,54.14,93.56,95.49"/>
        <g>
          <polygon class="cls-1" points="306.24 503.77 304.84 430.31 303.13 430.31 302.09 503.77 306.24 503.77"/>
          <path class="cls-21" d="M319.84,434.35c-1.12-1.2-1.53-2.92-1.04-4.49.45-1.44.69-2.98.69-4.57,0-5.12-2.51-9.65-6.37-12.44-1.98-1.43-2.54-4.17-1.21-6.22.91-1.4,1.45-3.07,1.48-4.86.08-5.08-4.02-9.31-9.1-9.38-5.16-.07-9.36,4.09-9.36,9.23,0,1.82.53,3.52,1.44,4.96,1.33,2.08.84,4.82-1.16,6.26-3.87,2.78-6.38,7.32-6.38,12.45,0,1.59.24,3.12.69,4.56.49,1.57.08,3.29-1.04,4.49-3.51,3.76-5.68,8.78-5.75,14.31-.16,11.82,9.56,21.7,21.38,21.73,11.86.03,21.48-9.58,21.48-21.43,0-5.65-2.19-10.79-5.76-14.62Z"/>
          <path class="cls-25" d="M304.13,469.92c-4.44,0-8.63-1.79-11.8-5.02-3.18-3.23-4.89-7.45-4.83-11.89.06-4.15,1.65-8.1,4.47-11.14,2.29-2.46,3.1-5.96,2.1-9.15-.32-1.01-.48-2.07-.48-3.15,0-3.39,1.65-6.6,4.41-8.59,4.03-2.9,5.08-8.47,2.39-12.68-.46-.71-.7-1.54-.7-2.4,0-2.47,2.01-4.47,4.47-4.47h.07c1.18.02,2.29.5,3.13,1.36.84.86,1.29,1.99,1.27,3.18-.01.84-.26,1.65-.71,2.35-2.7,4.17-1.64,9.73,2.42,12.66,2.75,1.99,4.39,5.19,4.39,8.58,0,1.08-.16,2.13-.48,3.15-.99,3.19-.19,6.69,2.1,9.15,2.89,3.1,4.48,7.13,4.48,11.37,0,4.46-1.73,8.64-4.88,11.79s-7.34,4.88-11.79,4.88h-.04Z"/>
        </g>
        <g>
          <polygon class="cls-1" points="507.53 461.7 506.12 388.24 504.42 388.24 503.38 461.7 507.53 461.7"/>
          <path class="cls-21" d="M521.13,392.28c-1.12-1.2-1.53-2.92-1.04-4.49.45-1.44.69-2.98.69-4.57,0-5.12-2.51-9.65-6.37-12.44-1.98-1.43-2.54-4.17-1.21-6.22.91-1.4,1.45-3.07,1.48-4.86.08-5.08-4.02-9.31-9.1-9.38-5.16-.07-9.36,4.09-9.36,9.23,0,1.82.53,3.52,1.44,4.96,1.33,2.08.84,4.82-1.16,6.26-3.87,2.78-6.38,7.32-6.38,12.45,0,1.59.24,3.12.69,4.56.49,1.57.08,3.29-1.04,4.49-3.51,3.76-5.68,8.78-5.75,14.31-.16,11.82,9.56,21.7,21.38,21.73,11.86.03,21.48-9.58,21.48-21.43,0-5.65-2.19-10.79-5.76-14.62Z"/>
          <path class="cls-25" d="M505.41,427.85c-4.44,0-8.63-1.79-11.8-5.02-3.18-3.23-4.89-7.45-4.83-11.89.06-4.15,1.65-8.1,4.47-11.14,2.29-2.46,3.1-5.96,2.1-9.15-.32-1.01-.48-2.07-.48-3.15,0-3.39,1.65-6.6,4.41-8.59,4.03-2.9,5.08-8.47,2.39-12.68-.46-.71-.7-1.54-.7-2.4,0-2.47,2.01-4.47,4.47-4.47h.07c1.18.02,2.29.5,3.13,1.36.84.86,1.29,1.99,1.27,3.18-.01.84-.26,1.65-.71,2.35-2.7,4.17-1.64,9.73,2.42,12.66,2.75,1.99,4.39,5.19,4.39,8.58,0,1.08-.16,2.13-.48,3.15-.99,3.19-.19,6.69,2.1,9.15,2.89,3.1,4.48,7.13,4.48,11.37,0,4.46-1.73,8.64-4.88,11.79s-7.34,4.88-11.79,4.88h-.04Z"/>
        </g>
        <g>
          <path class="cls-1" d="M581.95,444.43l-.07-4.38h-2.24l-.07,4.38v.55c-.02.16-.02.32-.03.48-.03.32-.06.63-.13.95-.12.62-.31,1.24-.57,1.81-.26.58-.58,1.13-.96,1.63-.09.13-.2.25-.29.37-.11.12-.21.24-.32.35l-.17.17-.08.08-.1.09-.39.38-3.15,3.04-.2.19-.1.1-.11.11c-.11.11-.21.22-.32.33l-.06-2.76v-.38s-.03-.44-.03-.44c-.02-.29-.05-.59-.09-.88-.09-.58-.23-1.15-.41-1.71-.33-.98-.82-1.91-1.44-2.74l5.41-5.95-1.19-1.19-5.89,5.36-.84-.8-4.42-4.24-1.43,1.43,4.24,4.42,1.06,1.1c.38.39.65.68.92,1.04.53.7.92,1.49,1.16,2.33.12.42.21.84.25,1.27.02.21.03.43.04.65v.33s0,.38,0,.38l-.06,3.06-.13,6.12h.04c-.02.2-.04.4-.04.59v.32s-.02.28-.02.28v.55s-.15,8.76-.15,8.76h3.39l-.14-8.76v-.55s-.01-.27-.01-.27v-.23c0-.31.03-.61.06-.92.08-.61.23-1.21.44-1.79.21-.58.49-1.14.83-1.65.09-.13.17-.26.27-.38l.14-.19.15-.18c.1-.12.2-.23.31-.35l.08-.09.1-.1.19-.2,3.04-3.15.38-.39.1-.1.11-.11.21-.23c.14-.16.27-.32.4-.48.12-.17.25-.33.37-.5.48-.68.87-1.41,1.19-2.17.31-.76.53-1.57.66-2.38.07-.41.1-.82.12-1.23.01-.21,0-.41.01-.62v-.55Z"/>
          <path class="cls-21" d="M590.95,440.61c5.21,0,9.43-4.23,9.41-9.45-.02-5.2-4.31-9.38-9.52-9.38h-.97v-5.63c0-5.4-4.38-9.77-9.77-9.77-1.55-.05-2.89-1.08-3.37-2.55-1.04-3.17-4.02-5.45-7.53-5.44-4.36.02-7.87,3.62-7.87,7.98v3.41c0,1.31-1.06,2.37-2.37,2.37-3.29,0-5.96,2.67-5.96,5.96v3.67h-1.07c-5.2,0-9.5,4.18-9.52,9.38-.02,5.21,4.2,9.45,9.41,9.45h39.11Z"/>
          <path class="cls-25" d="M586.62,440.61c4.06,0,7.34-3.3,7.33-7.35-.01-4.05-3.36-7.3-7.41-7.3h-.75v-4.38c0-4.2-3.41-7.61-7.61-7.61-1.21-.04-2.25-.84-2.62-1.99-.81-2.46-3.13-4.24-5.86-4.23-3.4.01-6.12,2.82-6.12,6.21v2.65c0,1.02-.83,1.84-1.84,1.84-2.56,0-4.64,2.08-4.64,4.64v2.86h-.83c-4.05,0-7.39,3.25-7.41,7.3-.01,4.06,3.27,7.35,7.33,7.35h30.45Z"/>
        </g>
        <g>
          <path class="cls-14" d="M300.18,357.59h-106.2c-.39,0-.71-.32-.71-.71s.32-.71.71-.71h106.2c.39,0,.71.32.71.71s-.32.71-.71.71Z"/>
          <g>
            <circle class="cls-26" cx="203.69" cy="349.83" r="7.05" transform="translate(-74.93 56.16) rotate(-13.28)"/>
            <circle class="cls-23" cx="203.69" cy="349.83" r="5.57" transform="translate(-185.54 461.04) rotate(-75.74)"/>
          </g>
          <path class="cls-5" d="M274.86,337.51c-2.72,0-5.26-1.25-7-3.34-2.79-3.36-6.98-5.39-11.48-5.39h-22.96c-4.54,0-8.95,1.54-12.5,4.37l-4.15,3.31c-.91.73-2,1.21-3.15,1.4l-15.54,2.52c-3.3.54-5.72,3.38-5.72,6.72v5.58h82.65c2.11,0,3.82-1.71,3.82-3.82v-7.54c0-2.11-1.71-3.82-3.82-3.82h-.14Z"/>
          <rect class="cls-26" x="194.86" y="343.13" width="15.57" height="2.02"/>
          <path class="cls-13" d="M248.41,337.47v-7.26h-22.41c-1.81.72-3.52,1.71-5.07,2.94l-4.15,3.31c-.53.42-1.12.76-1.75,1.01h33.38Z"/>
          <path class="cls-5" d="M296.38,337.51c-3.81,0-7.46-1.53-10.13-4.25-2.76-2.81-6.57-4.47-10.65-4.47h-22.96c-4.54,0-8.95,1.54-12.5,4.37l-4.15,3.31c-.91.73-2,1.21-3.15,1.4l-15.54,2.52c-3.3.54-5.72,3.38-5.72,6.72v5.58h78.88c4.19,0,7.59-3.4,7.59-7.59v-5.94c0-.91-.74-1.65-1.65-1.65h0Z"/>
          <path class="cls-13" d="M275.53,330.51h-22.96c-4.2,0-8.33,1.44-11.61,4.06l-4.01,3.2h37.46c3.69,0,7.23-1.47,9.84-4.07-2.42-2.04-5.48-3.18-8.71-3.18Z"/>
          <path class="cls-19" d="M236.94,337.77h7.6c0-1.32-1.19-2.32-2.5-2.09l-3.19.57-1.91,1.52Z"/>
          <g>
            <circle class="cls-26" cx="283.76" cy="349.83" r="7.05" transform="translate(-164.25 303.11) rotate(-45)"/>
            <circle class="cls-20" cx="283.76" cy="349.83" r="5.57"/>
            <path class="cls-10" d="M289.33,349.83h-5.57v5.57c1.42,0,2.85-.54,3.94-1.63,1.09-1.09,1.63-2.51,1.63-3.94ZM279.83,345.89c-1.09,1.09-1.63,2.51-1.63,3.94h5.57s0-5.57,0-5.57c-1.42,0-2.85.54-3.94,1.63Z"/>
            <path class="cls-26" d="M281.8,349.83c0,1.09.88,1.97,1.97,1.97s1.97-.88,1.97-1.97-.88-1.97-1.97-1.97-1.97.88-1.97,1.97Z"/>
            <path class="cls-19" d="M282.78,349.83c0,.54.44.99.99.99s.99-.44.99-.99-.44-.99-.99-.99-.99.44-.99.99Z"/>
          </g>
          <g>
            <circle class="cls-26" cx="222.9" cy="349.83" r="7.05" transform="translate(-53.16 40.22) rotate(-9.22)"/>
            <circle class="cls-20" cx="222.9" cy="349.83" r="5.57" transform="translate(-152.76 525.73) rotate(-82.59)"/>
            <path class="cls-10" d="M228.47,349.83h-5.57v5.57c1.42,0,2.85-.54,3.94-1.63,1.09-1.09,1.63-2.51,1.63-3.94ZM218.97,345.89c-1.09,1.09-1.63,2.51-1.63,3.94h5.57s0-5.57,0-5.57c-1.42,0-2.85.54-3.94,1.63Z"/>
            <path class="cls-26" d="M220.93,349.83c0,1.09.88,1.97,1.97,1.97s1.97-.88,1.97-1.97-.88-1.97-1.97-1.97-1.97.88-1.97,1.97Z"/>
            <path class="cls-19" d="M221.92,349.83c0,.54.44.99.99.99s.99-.44.99-.99-.44-.99-.99-.99-.99.44-.99.99Z"/>
          </g>
          <path class="cls-19" d="M254.87,352.75l-.34-.34,3.45-3.45c2.21-2.21,3.42-5.14,3.42-8.26v-10.19h.48v10.19c0,3.25-1.26,6.3-3.56,8.6l-3.45,3.45Z"/>
          <path class="cls-19" d="M231.34,352.68l.05-.05c1.9-1.9,4.47-2.96,7.16-2.96h29.92c2.68,0,5.26,1.07,7.16,2.96l-44.28.05Z"/>
          <path class="cls-6" d="M298.03,342.78h-5.49c-.95,0-1.72-.77-1.72-1.72s.77-1.72,1.72-1.72h5.49v3.45Z"/>
          <path class="cls-20" d="M214.84,345.15h-5.61c-.56,0-1.01-.45-1.01-1.01s.45-1.01,1.01-1.01h5.61c.56,0,1.01.45,1.01,1.01s-.45,1.01-1.01,1.01Z"/>
          <path class="cls-20" d="M192.64,345.15h2.78c.56,0,1.01-.45,1.01-1.01s-.45-1.01-1.01-1.01h-1.78c-.44.61-.78,1.29-.99,2.02Z"/>
          <path class="cls-19" d="M259.55,339.83h-3.66c-.31,0-.56-.25-.56-.56s.25-.56.56-.56h3.66c.31,0,.56.25.56.56s-.25.56-.56.56Z"/>
          <path class="cls-19" d="M278.06,339.83h-3.66c-.31,0-.56-.25-.56-.56s.25-.56.56-.56h3.66c.31,0,.56.25.56.56s-.25.56-.56.56Z"/>
          <path class="cls-5" d="M250.22,328.79h16.03l-1.39-2.41c-.3-.51-.84-.83-1.43-.83h-10.4c-.59,0-1.14.31-1.43.83l-1.39,2.41Z"/>
          <path class="cls-19" d="M262.66,325.56h.77c.59,0,1.14.31,1.43.83l1.39,2.41h-6.41l1.39-2.41c.29-.51.84-.83,1.43-.83Z"/>
          <path class="cls-26" d="M249.24,328.78h17.83c0-.47-.38-.86-.86-.86h-16.12c-.47,0-.86.38-.86.86h0Z"/>
          <path class="cls-19" d="M259.33,326.81h-.75v.75h.75v-.75ZM257.82,326.05v.75h.75v-.75h-.75ZM257.82,326.81h-.75v.75h.75v-.75ZM256.31,326.05v.75h.75v-.75h-.75ZM256.31,326.81h-.75v.75h.75v-.75ZM254.8,326.05v.75h.75v-.75h-.75ZM254.8,326.81h-.75v.75h.75v-.75ZM253.29,326.05v.75h.75v-.75h-.75ZM252.54,326.81v.75h.75v-.75h-.75Z"/>
        </g>
      </g>
    </g>
  </g>
</svg>