<?xml version="1.0" encoding="UTF-8"?>
<svg id="_レイヤー_2" data-name="レイヤー 2" xmlns="http://www.w3.org/2000/svg" viewBox="0 0 1125.14 529.42">
  <defs>
    <style>
      .cls-1 {
        fill: #fff;
      }
    </style>
  </defs>
  <g id="_圖層_1" data-name="圖層 1">
    <path class="cls-1" d="M4.3,256.06c17.03-43.86,58.57-72.49,97.85-98.39,68.51-45.19,137.93-90.82,215.45-117.78C410.09,7.73,509.66,3.68,607.54.94c70.3-1.96,142.47-3.12,208.7,20.54,36.87,13.17,75.95,43.18,70.83,81.99-5.07,38.4-50.91,60.7-58.1,98.76,32.52,1.09,64.88-4.31,97.38-5.72,48.93-2.12,100.11,5.61,140.45,33.39s67.01,78.85,55.74,126.52c-12.7,53.69-66.16,86.72-117.2,107.65-56.07,22.99-115.12,38.69-175.2,46.59-179.83,23.63-364.21-22.63-543.04,7.67-54.59,9.25-116.98,23.78-160.42-10.54-33.01-26.08-42.31-71.61-47.2-113.4-.64-5.51-1.24-11.21.34-16.53,6.55-22.12,45.37-26.36,44.37-49.41-20.04-7.6-42.17-6.29-63.53-8.07-21.36-1.78-29.22.58-46.92-13.89-16.6-13.57-16-28.43-9.43-50.42"/>
  </g>
</svg>