<?xml version="1.0" encoding="UTF-8"?>
<svg id="_圖層_2" data-name="圖層_2" xmlns="http://www.w3.org/2000/svg" viewBox="0 0 235.1 262.25">
  <defs>
    <style>
      .cls-1 {
        fill: #2364aa;
      }

      .cls-2 {
        fill: #fec601;
      }

      .cls-3 {
        fill: #235f9f;
      }

      .cls-4 {
        fill: #fffce7;
      }

      .cls-5 {
        fill: #ea7317;
      }
    </style>
  </defs>
  <g id="_圖層_2-2" data-name="圖層_2">
    <g>
      <path class="cls-4" d="M66.27,252.41s60.87,19.79,122.29,3.23c0,0-21.1-33.81-28.81-35.87l-6.98-70.41-9.3-8.61-18.69,7.73-15.55,24.29s-17.28-11.09-17.38-10.46-3.79.69-3.79.69l-9.19,49.96-12.62,39.45Z"/>
      <g>
        <g>
          <path class="cls-2" d="M127.41,147.48s-7.93,16.12-7.22,29.65c0,0-25.59-1.53-27.89-3.83s0-13.53,0-13.53c0,0,16.61-12.2,22.73-10.7s12.37-1.59,12.37-1.59Z"/>
          <path class="cls-1" d="M120.19,179.13s-.08,0-.12,0c-9.84-.59-26.71-1.95-29.18-4.41-2.76-2.76-1.3-11.65-.54-15.35.1-.49.38-.92.78-1.21,2.9-2.13,17.7-12.68,24.39-11.03,5.3,1.3,10.95-1.42,11-1.45.76-.38,1.69-.23,2.3.38.6.6.76,1.53.38,2.29-.08.16-7.69,15.83-7.01,28.67.03.57-.18,1.12-.59,1.52-.38.37-.88.58-1.41.58ZM93.7,171.85c1.94,1.1,13.69,2.43,24.45,3.15.09-9.13,3.41-18.77,5.59-24.15-2.54.61-5.86.99-9.18.17-3.48-.86-13.81,5.14-20.44,9.91-.91,4.83-1.11,9.84-.42,10.92Z"/>
        </g>
        <path class="cls-1" d="M113.43,151.1c-34.64,0-62.83-28.19-62.83-62.83s28.19-62.83,62.83-62.83c28.11,0,52.99,18.88,60.52,45.9.3,1.06-.33,2.17-1.39,2.46-1.06.29-2.17-.33-2.46-1.39-7.05-25.3-30.35-42.98-56.66-42.98-32.44,0-58.83,26.39-58.83,58.83s26.39,58.83,58.83,58.83,58.83-26.39,58.83-58.83c0-1.03-.02-1.95-.07-2.8-.06-1.1.79-2.04,1.89-2.1,1.09-.05,2.04.79,2.1,1.89.05.93.07,1.92.07,3.02,0,34.64-28.19,62.83-62.83,62.83Z"/>
        <path class="cls-3" d="M175.17,87.44c-.5,0-.94-.04-1.35-.11-1.09-.2-1.8-1.25-1.6-2.33.2-1.09,1.25-1.8,2.33-1.6.17.03.37.05.61.05,2.84,0,5.15-2.31,5.15-5.15s-2.31-5.15-5.15-5.15c-.8,0-1.56.18-2.25.52-.99.5-2.19.1-2.69-.88-.5-.99-.1-2.19.88-2.69,1.25-.63,2.62-.95,4.05-.95,5.05,0,9.15,4.1,9.15,9.15s-4.1,9.15-9.15,9.15Z"/>
        <path class="cls-3" d="M166.18,120.08c-.1,0-.21-.01-.32-.03-4.04-.88-6.98-4.53-6.98-8.68,0-4.91,3.99-8.9,8.89-8.9,1.77,0,3.48.52,4.93,1.5.69.46.87,1.4.4,2.08-.46.69-1.4.87-2.08.4-.95-.64-2.08-.98-3.25-.98-3.25,0-5.89,2.65-5.89,5.9,0,2.75,1.94,5.16,4.62,5.74.81.18,1.32.97,1.15,1.78-.15.7-.77,1.18-1.46,1.18Z"/>
        <ellipse class="cls-5" cx="138.35" cy="94.37" rx="8.09" ry="5.97" transform="translate(-18.04 34.47) rotate(-13.34)"/>
        <path class="cls-3" d="M147.88,78.28c-.32,0-.65-.08-.96-.24-.97-.53-1.33-1.74-.8-2.71,1.53-2.8,6.05-7.46,12.26-5.08,1.03.4,1.55,1.55,1.15,2.58-.4,1.03-1.55,1.55-2.58,1.15-4.53-1.74-7.2,3.06-7.31,3.26-.36.67-1.05,1.04-1.76,1.04Z"/>
        <g>
          <path class="cls-1" d="M132.9,111.27c-.17-13.78-12.71-16.9-12.71-16.9,24.74-8.04,19.86-51.36,19.86-51.36,3.4.17,14.81-4.09,11.03-11.57s-18.01-1.7-18.01-1.7c4.43-1.02,27.31-14.3,13.79-26.04-20.26-8-29.45,15.34-30.47,15.15-5.79-1.11-13.92,4.67-13.92,4.67-57.07,4.07-54.67,55.85-59.95,60.87-5.28,5.02-15.32-4.09-29.11,0s-15.06,26.55-3.83,39.57,38.21,3.66,38.21,3.66c-2.21,6.47-2.72,19.57,11.06,27.91s22.98-7.66,22.98-7.66c-2.21,9.19-.17,20.17,16.13,16.26s5.9-44.77,5.9-44.77c0,0-17.18-13.28,4.01-25.74,6.13.77,11.68,3,11.68,3l13.34,14.67Z"/>
          <path class="cls-1" d="M91.8,166.93c-3.91,0-6.99-1.11-9.2-3.33-2.17-2.17-3.35-5.37-3.49-9.21-2.16,2.07-5.06,4.14-8.59,5.05-4.2,1.08-8.48.34-12.7-2.22-11.88-7.19-14.4-18.16-12.85-26.7-7.94,2.13-27.31,5.83-36.91-5.28-7.04-8.16-9.83-20.27-6.94-30.12,1.91-6.5,6.07-11,11.72-12.68,7.67-2.27,14.14-.76,19.33.45,4.6,1.08,7.29,1.61,8.96.02.69-.66,1.6-4.35,2.39-7.61,4-16.32,12.29-50.22,58.25-53.76,1.88-1.26,8.24-5.18,13.77-4.83.14-.22.3-.47.45-.71,3.3-5.29,13.34-21.39,31.6-14.18.21.08.41.2.58.35,5.17,4.49,5.34,9.09,4.57,12.16-1.1,4.4-4.65,8.31-8.45,11.3,3.49.19,6.83,1.43,8.58,4.89,1.4,2.78,1.29,5.57-.33,8.06-2.26,3.47-7.04,5.54-10.33,6.19.62,8.3,1.59,39.36-17.05,49.61,4.12,2.4,9.62,7.37,9.74,16.86,0,.83-.49,1.58-1.27,1.89-.77.3-1.65.1-2.21-.52l-13.02-14.32c-1.3-.49-5.5-1.96-10.09-2.62-5.71,3.49-8.74,7.25-8.99,11.21-.39,6,5.72,10.83,5.78,10.88.35.27.6.66.71,1.09.3,1.19,7.35,29.38-.05,41.65-1.78,2.94-4.24,4.81-7.32,5.55-2.42.58-4.63.87-6.63.87ZM81.84,145.86c.25,0,.5.05.74.14.92.37,1.43,1.36,1.2,2.32-.63,2.62-1.73,9.07,1.65,12.45,2.3,2.3,6.36,2.77,12.07,1.39,2.03-.49,3.61-1.71,4.83-3.73,6-9.94.73-33.83-.25-37.98-1.8-1.57-7.19-6.89-6.76-13.81.35-5.5,4.23-10.47,11.54-14.77.38-.22.82-.32,1.26-.26,4.07.51,7.86,1.62,10.1,2.38.13-.71.64-1.3,1.35-1.53,22.89-7.44,18.54-48.82,18.49-49.24-.07-.58.13-1.17.53-1.59.4-.43.97-.66,1.56-.63,1.76.08,7.09-1.61,9.04-4.6.83-1.28.87-2.57.11-4.07-2.29-4.54-10.77-2.32-14.11-1.23-.69.29-1.26.48-1.66.57-1.02.23-2.04-.35-2.36-1.35-.31-.99.19-2.06,1.15-2.46.13-.05.83-.33,1.92-.68,4.23-1.87,13.08-7.61,14.63-13.82.71-2.85-.29-5.45-3.06-7.95-14.95-5.67-23.27,7.66-26.41,12.7-1.19,1.91-1.85,2.97-3.38,2.67-4.04-.77-10.31,2.87-12.39,4.33-.3.21-.65.34-1.01.36-43.53,3.1-51.12,34.11-55.19,50.76-1.23,5.04-1.98,8.09-3.52,9.56-3.32,3.16-7.84,2.1-12.63.98-4.99-1.16-10.63-2.48-17.29-.51-4.3,1.27-7.5,4.81-9.02,9.97-2.49,8.47.04,19.32,6.13,26.38,10.21,11.84,35.79,3.17,36.04,3.08.73-.25,1.53-.07,2.07.47.54.54.73,1.34.48,2.06-.56,1.64-5.05,16.33,10.21,25.56,3.26,1.97,6.5,2.57,9.61,1.77,6.44-1.65,10.56-8.65,10.6-8.72.37-.63,1.04-1,1.73-1ZM123.62,98.09l5.79,6.36c-1.47-3.11-3.79-5.12-5.79-6.36Z"/>
        </g>
        <g>
          <path class="cls-2" d="M114.55,81.35c-5.04-5.21-8.93-12.14-10.84-20.18-4.31-18.15,2.94-35.81,16.48-42.3-.41-.02-.83-.03-1.25-.03-17.34,0-31.4,14.06-31.4,31.4,0,15.86,11.75,28.97,27.01,31.11Z"/>
          <path class="cls-1" d="M114.55,83.35c-.09,0-.19,0-.28-.02-16.38-2.3-28.73-16.52-28.73-33.09,0-18.42,14.98-33.4,33.4-33.4.45,0,.91.01,1.35.03.91.04,1.68.7,1.86,1.6.18.9-.27,1.8-1.1,2.2-12.96,6.21-19.43,23.05-15.4,40.03,1.77,7.43,5.34,14.09,10.33,19.25.59.61.73,1.54.34,2.3-.34.68-1.04,1.09-1.78,1.09ZM112.6,21.52c-13.17,2.91-23.06,14.68-23.06,28.71,0,12.59,8.1,23.65,19.6,27.73-3.43-4.78-5.95-10.33-7.37-16.34-3.72-15.65.78-31.26,10.83-40.1Z"/>
        </g>
        <path class="cls-1" d="M111.18,122.03c-8.39,0-15.21-6.82-15.21-15.21s6.82-15.21,15.21-15.21c4.06,0,7.88,1.58,10.76,4.46.78.78.78,2.05,0,2.83-.78.78-2.05.78-2.83,0-2.12-2.12-4.93-3.28-7.93-3.28-6.18,0-11.21,5.03-11.21,11.21s5.03,11.21,11.21,11.21c.63,0,1.27-.05,1.89-.16,1.09-.19,2.12.55,2.3,1.64.18,1.09-.55,2.12-1.64,2.31-.84.14-1.7.21-2.55.21Z"/>
        <g>
          <path class="cls-2" d="M147.88,146.24s-16.51,21.7-14.21,48c1.53,17.57,40.59,14.81,40.59,14.81l2.91-44.12c-10.88-1.74-32.27-22.77-32.27-22.77"/>
          <path class="cls-1" d="M168.52,211.22c-11.44,0-35.53-1.79-36.84-16.8-2.13-24.4,11.2-44.6,14.09-48.67-1.29-1.21-2.11-2.01-2.27-2.16-.79-.77-.8-2.04-.02-2.83.77-.79,2.04-.8,2.83-.02,5.82,5.73,22.78,20.88,31.18,22.22,1.02.16,1.75,1.08,1.68,2.11l-2.91,44.12c-.07,1-.86,1.79-1.86,1.86-.37.03-2.61.17-5.89.17ZM148.74,148.48c-3.11,4.54-15.01,23.55-13.08,45.59,1.06,12.14,25.4,13.59,36.72,13.09l2.68-40.66c-8.06-2.37-19.65-12.01-26.32-18.01Z"/>
        </g>
        <path class="cls-1" d="M66.27,252.41c-.1,0-.2,0-.3-.02-1.09-.16-1.85-1.18-1.68-2.27,1.66-11.15,11-31.8,12.88-35.88-2.37-10.28,7.31-45.73,8.46-49.85.29-1.06,1.4-1.69,2.46-1.39,1.06.3,1.69,1.4,1.39,2.46-4.48,16.16-10.39,42.35-8.3,48.28.17.49.15,1.04-.07,1.51-.11.24-11.13,23.87-12.85,35.45-.15.99-1,1.71-1.98,1.71Z"/>
        <path class="cls-1" d="M190.35,256.75c-.73,0-1.44-.41-1.79-1.11-4.16-8.33-28.04-34.26-28.28-34.52-.34-.37-.53-.85-.53-1.36-.01-1.07-2.25-5.5-4.79-9.49-.59-.93-.32-2.17.61-2.76.93-.59,2.17-.32,2.76.61,1.16,1.81,4.69,7.54,5.32,10.75,3.39,3.7,24.34,26.68,28.48,34.97.49.99.09,2.19-.89,2.68-.29.14-.59.21-.89.21Z"/>
        <path class="cls-1" d="M120.6,225.9c-38.41,0-42.4-9.77-42.76-11.1-.22-.8.25-1.62,1.05-1.84.78-.21,1.59.23,1.83,1,.14.34,6.02,12.93,67.04,7.64.81-.07,1.55.54,1.62,1.36.07.83-.54,1.55-1.36,1.62-10.68.93-19.73,1.32-27.41,1.32Z"/>
        <path class="cls-1" d="M192.86,175.39c-12.05,0-17.29-5.12-17.58-5.42-.58-.59-.58-1.54.01-2.12.59-.58,1.53-.58,2.12,0,.12.11,8.52,8.07,29.04,2.56-.51-2.33-1.05-6.52.86-8.76.67-.78,1.91-1.66,4.08-1.38,6.51.83,8.41,3.53,8.6,3.83.45.7.24,1.62-.45,2.07-.69.45-1.63.25-2.07-.45h0s-1.43-1.83-6.46-2.48c-1.01-.13-1.31.22-1.42.35-1.06,1.24-.57,5.1.11,7.44.11.38.07.79-.12,1.14-.19.35-.51.61-.9.72-6.22,1.81-11.47,2.48-15.82,2.48Z"/>
        <path class="cls-1" d="M188.16,206.55c-7.82,0-13.72-1.09-14.18-1.18-.81-.15-1.35-.94-1.19-1.75.15-.81.93-1.35,1.75-1.19.2.04,20.59,3.78,35.67-2.84,15.2-6.67,16.97-17.65,18.14-24.91,1.17-7.26-5.13-17.55-5.2-17.65-.44-.7-.22-1.63.48-2.06.71-.44,1.63-.22,2.06.48.29.46,6.96,11.34,5.61,19.71-1.2,7.42-3.2,19.85-19.9,27.18-7.57,3.32-16.19,4.21-23.26,4.21Z"/>
        <g>
          <path class="cls-5" d="M205.22,116.7s3.26-5.68,8.62-3.55,5.68,6.23,5.65,6.59c0,0,7.22-5.3,11.06,1.13,3.84,6.43.05,11.41.73,10.45,0,0,5.91,7.54-1.18,12.28-4.39,2.59-7.19,1.29-7.19,1.29,0,0-1.72,8.1-6.48,7.2l-7.89-6.88-3.32-28.51Z"/>
          <path class="cls-1" d="M217.19,153.66c-.33,0-.68-.03-1.04-.1-.26-.05-.51-.17-.71-.34l-7.89-6.88c-.28-.25-.46-.59-.5-.96l-3.32-28.51c-.04-.32.03-.64.19-.92,1.35-2.35,5.28-6.26,10.47-4.2,3.66,1.45,5.38,3.8,6.12,5.66,1.58-.77,3.95-1.57,6.34-1.08,2.07.42,3.75,1.69,5,3.77,2.92,4.9,1.92,9.1,1.14,11.05.89,1.39,2.53,4.49,2,7.82-.38,2.36-1.74,4.34-4.05,5.88-3.03,1.79-5.44,1.99-6.94,1.83-.98,3.16-3.17,6.99-6.81,6.99ZM217.07,150.65s.04,0,.06,0c2.93,0,4.31-6.01,4.32-6.07.1-.45.39-.83.8-1.03.41-.2.89-.21,1.3-.02.06.02,2.23.88,5.8-1.22,1.54-1.03,2.44-2.3,2.69-3.82.38-2.35-.95-4.76-1.59-5.76,0,0-.02,0-.02-.01-.68-.42-.9-1.33-.51-2.03.38-.69,2.16-4.38-.63-9.05-.8-1.34-1.78-2.11-3-2.36-2.77-.57-5.86,1.65-5.89,1.67-.47.34-1.1.38-1.61.1-.51-.29-.81-.84-.77-1.42h0s-.16-3.27-4.71-5.08c-3.43-1.36-5.77,1.44-6.51,2.51l3.19,27.41,7.1,6.19Z"/>
        </g>
        <g>
          <path class="cls-5" d="M177.88,130.84s-2.19-6.17,2.92-8.85,8.43-.26,8.68,0c0,0,.68-8.94,8.06-7.66s8.7,7.4,8.4,6.26c0,0,9.57.43,8.55,8.89-.89,5.02-3.7,6.3-3.7,6.3,0,0,5.03,6.58,1.24,9.61l-10.92-1.48-23.24-13.06Z"/>
          <path class="cls-1" d="M212.03,146.88c-.07,0-.13,0-.2-.01l-10.92-1.48c-.19-.03-.37-.09-.53-.18l-23.24-13.06c-.32-.18-.56-.46-.68-.81-.91-2.56-1.31-8.08,3.64-10.68,3.49-1.83,6.38-1.61,8.28-.96.45-1.7,1.38-4.02,3.31-5.52,1.67-1.3,3.73-1.75,6.11-1.34,5.62.97,8.16,4.47,9.13,6.33,1.63.23,5.06,1,7.23,3.57,1.55,1.82,2.16,4.15,1.83,6.91-.62,3.47-2.03,5.42-3.13,6.46,1.92,3.06,3.51,7.73.12,10.44-.27.21-.6.33-.94.33ZM201.6,142.45l9.9,1.34c1.68-2.28-1.86-7.06-1.89-7.11-.28-.36-.37-.83-.26-1.28s.42-.81.83-1c.06-.03,2.12-1.12,2.85-5.19.22-1.84-.15-3.35-1.15-4.52-1.54-1.82-4.23-2.38-5.41-2.54h-.03c-.76.25-1.59-.17-1.87-.92-.27-.74-1.91-4.49-7.28-5.41-1.54-.27-2.76-.02-3.75.74-2.23,1.73-2.56,5.52-2.56,5.56-.05.58-.43,1.09-.98,1.29-.55.2-1.17.07-1.58-.35h0s-2.59-2.01-6.92.27c-3.18,1.67-2.67,5.19-2.35,6.52l22.45,12.62Z"/>
        </g>
        <g>
          <path class="cls-4" d="M175.46,129.47l25.66,14.43,26.43,3.58-7.91,18.5s-2.55-4.98-8.43-4.21-3.29,8.24-3.29,8.24c0,0-18.41,6.2-30.16,0l-1.41-5.09-5.96-2.62,5.07-32.83Z"/>
          <path class="cls-1" d="M190.84,174.28c-4.68,0-9.6-.73-13.78-2.94-.37-.19-.64-.53-.75-.93l-1.22-4.4-5.31-2.33c-.62-.27-.98-.93-.88-1.6l5.07-32.83c.08-.49.38-.9.83-1.12.44-.21.96-.2,1.39.04l25.41,14.29,26.14,3.54c.46.06.87.34,1.1.75.23.41.26.9.07,1.33l-7.92,18.5c-.23.53-.75.89-1.33.91-.59.03-1.12-.3-1.39-.81-.08-.16-2.18-4.02-6.9-3.41-.99.13-1.67.5-2.06,1.13-.93,1.51-.3,4.28,0,5.13.13.38.1.79-.07,1.15-.18.36-.49.63-.87.76-.51.17-8.61,2.85-17.55,2.85ZM179.02,168.98c9.28,4.48,22.81,1.23,27.07.02-.33-1.62-.55-4.19.69-6.18.61-.98,1.83-2.22,4.22-2.53,4-.52,6.68,1.2,8.24,2.76l6.14-14.35-24.47-3.32c-.19-.03-.37-.09-.53-.18l-23.77-13.36-4.56,29.55,4.91,2.16c.41.18.72.54.84.97l1.23,4.45Z"/>
        </g>
      </g>
    </g>
  </g>
</svg>