<svg width="32" height="32" viewBox="0 0 32 32" fill="none" xmlns="http://www.w3.org/2000/svg">
<path d="M16 28C18.6626 27.9996 21.2494 27.1137 23.3532 25.4818C25.457 23.8499 26.9584 21.5647 27.6208 18.9859C28.2833 16.407 28.0694 13.6811 27.0126 11.2373C25.9559 8.79341 24.1163 6.7704 21.7837 5.48674C19.451 4.20308 16.7576 3.73166 14.1276 4.14671C11.4976 4.56177 9.08035 5.83971 7.25635 7.77936C5.43236 9.719 4.30524 12.2102 4.05245 14.8607C3.79966 17.5112 4.43556 20.1706 5.86002 22.42L4.00002 28L9.58002 26.14C11.4995 27.3582 13.7266 28.0035 16 28Z" stroke="#73BFB8" stroke-width="2" stroke-linecap="round" stroke-linejoin="round"/>
</svg>
