<svg width="112" height="96" viewBox="0 0 112 96" fill="none" xmlns="http://www.w3.org/2000/svg">
<path d="M107 0C109.761 5.15405e-07 112 2.23858 112 5V75C112 77.7614 109.761 80 107 80H97.1113L90 96L84.667 80H5C2.23858 80 0 77.7614 0 75V5C0 2.23858 2.23858 6.44256e-08 5 0H107Z" fill="#EA7317"/>
<path d="M66.1746 22.5C61.746 22.5 57.9218 25.0935 56 28.8765C54.0781 25.0935 50.254 22.5 45.8253 22.5C39.477 22.5 34.3333 27.8235 34.3333 34.3755C34.3333 40.9275 38.2701 46.9335 43.3575 51.867C48.4448 56.8005 56 61.5 56 61.5C56 61.5 63.3103 56.8785 68.6425 51.867C74.33 46.524 77.6666 40.947 77.6666 34.3755C77.6666 27.804 72.523 22.5 66.1746 22.5Z" fill="white"/>
</svg>
