<?xml version="1.0" encoding="UTF-8"?>
<svg id="_レイヤー_2" data-name="レイヤー 2" xmlns="http://www.w3.org/2000/svg" viewBox="0 0 157.53 130.26">
  <defs>
    <style>
      .cls-1 {
        fill: #2364aa;
      }

      .cls-2 {
        fill: #fec601;
      }

      .cls-3 {
        fill: #fff;
      }

      .cls-4 {
        fill: #fffce7;
      }

      .cls-5 {
        fill: #35d2d5;
      }
    </style>
  </defs>
  <g id="_圖層_2" data-name="圖層 2">
    <g>
      <path class="cls-1" d="M1.71,111.32c-.76,0-1.41-.58-1.49-1.35-1.05-10.45,1.92-21.81,4.09-30.11,1.36-5.21,2.77-10.59,1.98-11.92-2.79-4.74-.44-14.13-.16-15.19.21-.8,1.03-1.28,1.83-1.07.8.21,1.28,1.03,1.07,1.83-.67,2.53-1.99,9.79-.16,12.9,1.41,2.41.19,7.1-1.67,14.2-2.11,8.08-5,19.14-4.01,29.05.08.82-.52,1.56-1.34,1.64-.05,0-.1,0-.15,0Z"/>
      <path class="cls-1" d="M61.28,93.49s-.08,0-.12,0c-18.71-1.53-27.73-4.71-28.11-4.85-.6-.21-.99-.78-.99-1.41v-7.49c0-.83.67-1.5,1.5-1.5s1.5.67,1.5,1.5v6.39c2.74.82,11.13,3.05,25.36,4.28l2.77-5.27c.39-.73,1.29-1.02,2.03-.63.73.39,1.01,1.29.63,2.03l-3.23,6.15c-.26.5-.77.8-1.33.8Z"/>
      <path class="cls-5" d="M25.53,45.52s-13.08-13.7,5.55-19.32c18.63-5.62,30.63-7.14,38.29-13.78S85.71-3.84,101.79,1.61s9.96,22.45-3.06,30.29c-13.02,7.84-.81,19.74-2.04,21.24,0,0-39.42,9.4-71.16-7.62Z"/>
      <g>
        <circle class="cls-4" cx="71.1" cy="45.52" r="13.62"/>
        <path class="cls-1" d="M71.1,60.64c-8.34,0-15.12-6.78-15.12-15.12s6.78-15.12,15.12-15.12,15.12,6.78,15.12,15.12-6.78,15.12-15.12,15.12ZM71.1,33.4c-6.68,0-12.12,5.44-12.12,12.12s5.44,12.12,12.12,12.12,12.12-5.44,12.12-12.12-5.44-12.12-12.12-12.12Z"/>
      </g>
      <path class="cls-2" d="M14.84,40.87s-5.2,18.03,1.74,26.23,28.55,21.83,54.51,18.76c25.96-3.07,36.29-22.31,38.79-30.14,2.5-7.83-3.68-3.68-3.68-3.68,0,0-21.45,7.34-57.17.83s-34.2-12.01-34.2-12.01Z"/>
      <path class="cls-1" d="M64.53,87.35c-5.66,0-11.71-.67-18.15-2.02-15.75-3.29-27.24-10.6-34.13-21.73C.43,44.53,6.29,21.31,6.54,20.34c.21-.8,1.03-1.28,1.83-1.07.8.21,1.28,1.03,1.08,1.83-.06.23-5.78,22.99,5.37,40.95,6.45,10.39,17.27,17.23,32.18,20.35,18.9,3.95,34.25,1.9,45.65-6.1,14.44-10.13,17.77-26.44,18.44-31.2.12-.82.88-1.39,1.7-1.27.82.12,1.39.88,1.27,1.7-.72,5.06-4.26,22.41-19.69,33.23-8.16,5.72-18.15,8.59-29.84,8.59Z"/>
      <path class="cls-1" d="M79.85,56.76c-24.38,0-43.98-3.63-59.72-11.03C1.99,37.19,5.18,24.03,6.58,20.2c2.97-8.09,16.38-9.03,17.71-9.1,1-.15,7.61-.82,32.19,2.18,26.43,3.22,49.05,16.23,52.76,19.44,2.4,2.08,6.7,8.22,4.68,13.95-2.15,6.09-10.46,9.44-24.72,9.94-3.19.11-6.32.17-9.36.17ZM27.97,13.91c-2.33,0-3.16.13-3.24.15-.06.01-.14.02-.21.02-.13,0-12.75.68-15.12,7.15-1.52,4.14-3.39,14.54,12.01,21.78,17.26,8.12,39.4,11.58,67.69,10.58,16.06-.57,20.83-4.63,21.99-7.94,1.52-4.31-2.26-9.34-3.82-10.68-3.42-2.96-25.78-15.64-51.16-18.73-16.06-1.96-24.23-2.33-28.15-2.33ZM24.45,12.59h0,0Z"/>
      <g>
        <circle class="cls-4" cx="39.15" cy="15.23" r="13.62"/>
        <path class="cls-1" d="M39.15,30.35c-8.34,0-15.12-6.78-15.12-15.12S30.81.11,39.15.11s15.12,6.78,15.12,15.12-6.78,15.12-15.12,15.12ZM39.15,3.11c-6.68,0-12.12,5.44-12.12,12.12s5.44,12.12,12.12,12.12,12.12-5.44,12.12-12.12-5.44-12.12-12.12-12.12Z"/>
      </g>
      <path class="cls-5" d="M98.73,31.89c-3.43,2.07-5.11,4.42-5.74,6.79l-17.55-13.17-20.5-6.01c6-1.85,10.72-3.88,14.43-7.09,7.65-6.64,16.34-16.25,32.42-10.81,16.09,5.45,9.96,22.45-3.06,30.29Z"/>
      <g>
        <path class="cls-4" d="M18.17,70.58s7.82-8.8,13.75-5.78c4.85,2.47.27,11.18-3.05,13.73s-6.23,32.56-3.42,33.84"/>
        <path class="cls-1" d="M25.45,113.87c-.21,0-.42-.04-.62-.13-1.01-.46-1.55-1.63-1.82-3.93-.86-7.44,1.31-29.67,4.94-32.47,1.99-1.53,4.84-6.17,4.56-9.2-.09-.98-.49-1.61-1.27-2.01-4.01-2.04-9.99,3.24-11.95,5.44-.55.62-1.5.67-2.12.12-.62-.55-.67-1.5-.12-2.12.35-.39,8.66-9.62,15.55-6.12,1.71.87,2.71,2.39,2.9,4.41.4,4.31-3.06,9.81-5.72,11.85-2.46,2.26-5.27,28.04-3.45,31.44.56.41.78,1.17.48,1.83-.25.55-.8.88-1.37.88Z"/>
      </g>
      <g>
        <path class="cls-1" d="M118.07,61.75c-.39,0-.79-.15-1.08-.46-2.6-2.7-4.53-8.82-3.23-12.97.73-2.33,2.43-3.88,4.79-4.35,7.59-1.53,11.27,9.59,11.42,10.06.25.79-.18,1.63-.97,1.89-.79.26-1.63-.18-1.89-.97-.03-.09-3.04-9.02-7.98-8.04-1.3.26-2.1.99-2.51,2.31-.94,2.99.61,7.99,2.53,9.99.57.6.56,1.55-.04,2.12-.29.28-.67.42-1.04.42Z"/>
        <g>
          <path class="cls-3" d="M154.26,30.69s-74.46,14.25-75.09,17.06,4.65,15.21,20.9,11.05c10.86-3.53,8.21-8.96,12.62-11.11s38.95-10.1,40.5-10.78,4.9-4.17,1.07-6.23Z"/>
          <path class="cls-1" d="M93.78,61.15c-5.81,0-9.6-2.3-11.93-4.56-3.14-3.04-4.59-7.12-4.14-9.16.31-1.39.6-2.7,38.94-10.73,18.49-3.87,37.15-7.45,37.33-7.48.34-.07.69-.01.99.15,2.31,1.24,2.59,2.97,2.56,3.89-.09,2.26-2.23,4.37-3.73,5.04-.6.26-3.37.96-11.12,2.87-10.59,2.61-26.59,6.55-29.33,7.89-1.21.59-1.69,1.5-2.4,2.89-1.29,2.49-3.05,5.91-10.41,8.3-2.51.64-4.75.92-6.76.92ZM80.63,48.5c.1,1.12.99,3.69,3.31,5.94,2.59,2.51,7.42,5.05,15.77,2.92,6.09-1.99,7.42-4.54,8.58-6.8.81-1.56,1.64-3.18,3.75-4.21,2.79-1.36,15.75-4.61,29.92-8.1,5.16-1.27,10.04-2.47,10.65-2.71.62-.27,1.88-1.48,1.92-2.4,0-.12.02-.45-.56-.86-26.38,5.06-68.28,13.68-73.35,16.22Z"/>
        </g>
        <path class="cls-1" d="M144.24,130.26c-.17,0-.34-.03-.5-.09-.78-.28-1.19-1.14-.91-1.92,2.49-6.99-.48-35.65-2.08-51.05-.74-7.1-1.12-10.87-1.07-12.16.07-1.79,1.27-3.41,2.66-5.28,3.11-4.19,7.38-9.92,2.72-21.51-3.51-8.73-9.92-12.12-14.68-13.43-6.18-1.7-12.15-.6-14.64,1.3-3.57,2.73-5.8,6.22-5.67,8.91.07,1.5.87,2.71,2.44,3.69,1.42.88,2.8,1.14,4.23.8,2.89-.7,5.29-3.8,5.97-4.93.43-.71,1.35-.94,2.06-.51.71.43.94,1.35.51,2.06-.13.21-3.15,5.17-7.83,6.3-2.22.54-4.41.14-6.52-1.17-3.04-1.89-3.77-4.36-3.86-6.09-.21-4.42,3.4-8.8,6.85-11.44,3.13-2.39,10.07-3.78,17.25-1.8,7.65,2.1,13.57,7.5,16.67,15.2,5.28,13.15.24,19.93-3.1,24.42-1.1,1.47-2.04,2.75-2.07,3.6-.04,1.15.47,6.06,1.06,11.74,2.35,22.64,4.43,45.33,1.92,52.36-.22.61-.8,1-1.41,1Z"/>
        <path class="cls-1" d="M105.91,129.22c-.39,0-.78-.15-1.08-.45-.58-.59-.56-1.54.03-2.12,4.24-4.13,4.58-41.08,3.8-63.41-.03-.83.62-1.52,1.45-1.55.87-.03,1.52.62,1.55,1.45.21,6.05,1.88,59.26-4.71,65.66-.29.28-.67.42-1.05.42Z"/>
        <path class="cls-4" d="M130.96,24.88s-2.36,1.24-9.27,11.12c-1.85,2.65-6.43,4.85-9.23,2.68s-2.88-3.61-2.23-4.72c8.17-14.14,20.74-9.08,20.74-9.08Z"/>
        <polygon class="cls-3" points="139.97 35.02 147.99 33.44 149.23 36.44 147.65 36.89 144.31 37.67 138.64 36.24 139.97 35.02"/>
      </g>
    </g>
  </g>
</svg>