<?xml version="1.0" encoding="UTF-8"?>
<svg id="_レイヤー_2" data-name="レイヤー 2" xmlns="http://www.w3.org/2000/svg" viewBox="0 0 150.23 137.09">
  <defs>
    <style>
      .cls-1 {
        fill: #2364aa;
      }

      .cls-2 {
        fill: #fffce7;
      }

      .cls-3 {
        fill: #35d2d5;
      }
    </style>
  </defs>
  <g id="_圖層_2" data-name="圖層 2">
    <g>
      <path class="cls-3" d="M80.14,68.97l-19.15,5.77c-2.92.7-3.12-2.32-3.82-5.25l-11.11-46.17c-.7-2.92,1.1-5.87,4.02-6.57l19.96-4.8c2.92-.7,5.87,1.1,6.57,4.02l7.56,46.44c.7,2.92-1.1,5.87-4.02,6.57Z"/>
      <path class="cls-1" d="M52.55,90.37c-.05,0-.1,0-.14,0-.57-.04-1.08-.35-1.52-.9-4.35-5.44-16.9-63.23-15.17-75.11C37.61,1.36,71.35.15,75.85.05c.73-.13,1.79-.08,2.92.76,7.51,5.5,12,45.9,14.01,69.49.33,3.92-2.02,7.59-5.72,8.93-20.48,7.39-32.08,11.14-34.52,11.14ZM76.46,3c-.05,0-.09,0-.12.01l-.3.04c-9.94.21-36.04,2.72-37.36,11.74-1.76,12.08,10.98,67.23,14.35,72.55,2.35-.35,12.04-3.36,33.01-10.93,2.43-.88,3.97-3.28,3.75-5.85-3.25-38.12-8.15-63.92-12.8-67.32-.26-.19-.43-.23-.54-.23Z"/>
      <g>
        <path class="cls-2" d="M42.05,72.78s4.77-5.45,9.87-3.74c5.11,1.7,5.45,8-3.91,17.36,0,0-6.32,40.51-10.97,49.19"/>
        <path class="cls-1" d="M37.04,137.09c-.24,0-.48-.06-.71-.18-.73-.39-1.01-1.3-.61-2.03,4.48-8.36,10.75-48.31,10.81-48.71.05-.31.2-.6.42-.83,7.21-7.21,7.25-11.14,6.93-12.5-.27-1.13-1.08-1.93-2.42-2.38-4.08-1.36-8.23,3.27-8.27,3.31-.55.62-1.49.68-2.12.14-.62-.55-.68-1.49-.14-2.11.22-.25,5.49-6.18,11.48-4.18,2.33.78,3.89,2.39,4.39,4.53.93,3.94-1.62,9.1-7.38,14.96-.76,4.82-6.56,40.8-11.05,49.19-.27.5-.79.79-1.32.79Z"/>
      </g>
      <path class="cls-1" d="M1.5,135.82s-.04,0-.05,0c-.83-.03-1.48-.72-1.45-1.55.12-3.39,4.08-11.85,10.53-25.39,6.76-14.19,15.18-31.85,16.29-40.36,2.1-16,12.55-24.18,12.99-24.52.66-.5,1.6-.38,2.1.28.5.66.38,1.6-.27,2.1-.11.08-9.91,7.82-11.84,22.53-1.18,8.98-9.35,26.13-16.56,41.26-4.98,10.46-10.13,21.27-10.24,24.2-.03.81-.69,1.45-1.5,1.45Z"/>
      <g>
        <path class="cls-2" d="M94.09,66.96s-5.98-4.08-10.49-1.16c-4.52,2.92-3.27,9.11,8.13,15.83,0,0,16.24,37.65,22.91,44.89"/>
        <path class="cls-1" d="M114.64,128.03c-.4,0-.81-.16-1.1-.48-6.45-7-21.05-40.38-23-44.86-7.04-4.23-10.8-8.6-10.88-12.64-.05-2.21,1.06-4.16,3.12-5.49,5.3-3.43,11.88.99,12.16,1.18.68.47.86,1.4.39,2.08-.47.68-1.4.86-2.08.39h0c-.05-.03-5.22-3.48-8.84-1.14-1.19.77-1.78,1.75-1.75,2.91.03,1.39,1.04,5.19,9.83,10.37.27.16.49.41.62.7.16.37,16.22,37.49,22.64,44.47.56.61.52,1.56-.09,2.12-.29.27-.65.4-1.02.4Z"/>
      </g>
      <path class="cls-1" d="M148.73,117.91c-.65,0-1.25-.42-1.44-1.08-.83-2.81-8.52-12-15.96-20.88-10.76-12.85-22.96-27.41-26.35-35.81-5.55-13.77-16.98-18.81-17.1-18.85-.76-.33-1.11-1.21-.79-1.97.33-.76,1.21-1.11,1.96-.79.51.22,12.67,5.53,18.71,20.49,3.21,7.96,15.77,22.96,25.86,35.01,9.63,11.49,15.58,18.7,16.54,21.95.23.79-.22,1.63-1.01,1.86-.14.04-.29.06-.43.06Z"/>
      <path class="cls-1" d="M58.95,75.74c-.07,0-.14,0-.21-.02-.5-.11-.81-.5-.99-.79-2.75-4.27-12.3-49.99-11.35-54.36.93-4.28,9.46-6.42,19.66-8.6,8.72-1.86,10.76,2.95,10.84,3.16.21.51-.04,1.09-.56,1.3-.51.2-1.09-.04-1.29-.54-.08-.17-1.63-3.43-8.57-1.96-6.5,1.38-17.39,3.7-18.12,7.06-.86,3.95,8.78,49.82,11.08,52.87.38.21.59.64.49,1.08-.1.47-.52.79-.98.79ZM59.16,73.76s0,0,0,0c0,0,0,0,0,0Z"/>
    </g>
  </g>
</svg>