<?xml version="1.0" encoding="UTF-8"?>
<svg id="_圖層_2" data-name="圖層_2" xmlns="http://www.w3.org/2000/svg" viewBox="0 0 233.43 277.42">
  <defs>
    <style>
      .cls-1 {
        fill: #2364aa;
      }

      .cls-2 {
        fill: #fec601;
      }

      .cls-3 {
        fill: #235f9f;
      }

      .cls-4 {
        fill: #fffce7;
      }

      .cls-5 {
        fill: #df701d;
      }

      .cls-6 {
        fill: #ea7317;
      }

      .cls-7 {
        fill: #3da5d9;
      }
    </style>
  </defs>
  <g id="_圖層_2-2" data-name="圖層_2">
    <g>
      <path class="cls-2" d="M99.96,163.04s-21.11,14.3-24.94,14.55c0,0,6.08,44.43,16.19,51.32l18.03-9.45s3.98,37.53,7.73,41.62c0,0,24.18,3.32,48.18-5.36s57.7-22.64,57.7-22.64c0,0-50.71-92.63-52.12-91.76s-13.13,13.94-42.17,9.83c-20.11-7.07-17.8-2.47-17.8-2.47l-10.8,14.36Z"/>
      <path class="cls-7" d="M75.02,74.2l-34.32,16.32-25.19,36.77,12.94,29.24s6.13-2.01,8.17,1.74,1.89,13.62,1.89,13.62c0,0,4.91,9.57,15.12,9.21s19.07,0,19.07,0l2.32-1.73v-2.72l16.19-7.88,4.79-15.73,12.46-8.1s-23.33-15.17-27.12-27.18-14.21-27.12-6.32-43.57Z"/>
      <path class="cls-5" d="M73.96,92.82s19.85,15.01,34.5,16.57c0,0-4.5,19.6-21.48,14.72,0,0-12.51-17-13.02-31.3Z"/>
      <path class="cls-3" d="M136.94,153.14c-35.83,0-64.98-29.15-64.98-64.98,0-7.53,1.27-14.89,3.79-21.9.37-1.04,1.52-1.58,2.56-1.21,1.04.37,1.58,1.52,1.21,2.56-2.36,6.57-3.55,13.48-3.55,20.54,0,33.62,27.36,60.98,60.98,60.98s60.98-27.36,60.98-60.98-27.36-60.98-60.98-60.98c-20.51,0-39.52,10.21-50.85,27.32-.61.92-1.85,1.17-2.77.56-.92-.61-1.17-1.85-.56-2.77,12.08-18.23,32.34-29.12,54.19-29.12,35.83,0,64.98,29.15,64.98,64.98s-29.15,64.98-64.98,64.98Z"/>
      <path class="cls-1" d="M77.63,68.94c-.05,0-.11,0-.16,0-5.23-.42-9.32-4.87-9.32-10.12,0-5.6,4.56-10.16,10.16-10.16,2.91,0,5.68,1.25,7.61,3.42.73.83.66,2.09-.17,2.82-.83.73-2.09.66-2.82-.17-1.17-1.32-2.85-2.08-4.61-2.08-3.4,0-6.16,2.76-6.16,6.16,0,3.18,2.48,5.88,5.64,6.14,1.1.09,1.92,1.05,1.83,2.16-.08,1.05-.96,1.84-1.99,1.84Z"/>
      <path class="cls-1" d="M94.25,126.97c-1.03,0-1.9-.79-1.99-1.83-.1-1.1.72-2.07,1.82-2.17,9.18-.79,12-8.19,12.83-11.77-18.71-2.74-33.56-16.84-34.2-17.47-.8-.77-.82-2.03-.05-2.83s2.03-.82,2.83-.06c.15.15,15.65,14.85,33.95,16.63,1.09.11,1.89,1.07,1.8,2.16-.46,5.53-4.56,16.26-16.8,17.32-.06,0-.12,0-.17,0Z"/>
      <ellipse class="cls-1" cx="93.84" cy="72.43" rx="5.1" ry="4.55" transform="translate(5.79 151.79) rotate(-79.69)"/>
      <path class="cls-7" d="M106.89,74.2s-18.51-58.17,4.98-70.42,49.04,33.19,49.04,33.19l-54.02,37.23Z"/>
      <ellipse class="cls-6" cx="160.91" cy="78.05" rx="52.23" ry="62.75" transform="translate(-17.86 73.03) rotate(-24.27)"/>
      <g>
        <path class="cls-4" d="M120.99,111.65c1.62-.68,3.4-1.06,5.27-1.06,7.47,0,13.53,6.06,13.53,13.53s-6.06,13.53-13.53,13.53c-3.41,0-6.53-1.26-8.91-3.35"/>
        <path class="cls-1" d="M126.26,139.15c-3.64,0-7.16-1.32-9.9-3.72-.62-.55-.69-1.49-.14-2.12.55-.62,1.49-.69,2.12-.14,2.19,1.92,5.01,2.98,7.92,2.98,6.63,0,12.03-5.4,12.03-12.03s-5.4-12.03-12.03-12.03c-1.62,0-3.2.32-4.68.94-.76.32-1.64-.03-1.97-.8-.32-.76.03-1.64.8-1.97,1.85-.78,3.82-1.18,5.85-1.18,8.29,0,15.03,6.74,15.03,15.03s-6.74,15.03-15.03,15.03Z"/>
      </g>
      <ellipse class="cls-2" cx="207.96" cy="59.69" rx="6.23" ry="7.12" transform="translate(3.42 130.21) rotate(-35.04)"/>
      <path class="cls-1" d="M67.83,184.33c-10.2,0-27.91-1.63-33.53-12.43-.19-.37-.27-.8-.2-1.21.48-3.28.54-9.21-1.33-11.14-.3-.31-.78-.65-1.78-.54-4.18.48-4.43,2.45-4.78,5.18-.12.92-.24,1.87-.56,2.73-.28.74-.96,1.25-1.75,1.29-.79.05-1.53-.38-1.9-1.08L.22,125.04c-.33-.64-.29-1.42.11-2.02l29.28-44.38c.2-.31.48-.55.81-.71l38.87-18.38c1-.47,2.19-.05,2.66.95.47,1,.05,2.19-.95,2.66l-38.37,18.14L4.32,124.24l18.64,36.01c.84-2.36,2.75-4.68,7.58-5.23,2.02-.23,3.78.37,5.1,1.74,3.39,3.5,2.79,11.32,2.5,13.81,7.19,12.16,36.39,9.5,36.69,9.47,1.09-.1,2.08.7,2.18,1.8.11,1.1-.7,2.08-1.8,2.18-.39.04-3.27.3-7.38.3Z"/>
      <path class="cls-1" d="M77.11,217.1c-13.17,0-44.77-2.77-61.12-27.84-15.12-23.19-3.77-39.86-3.28-40.56.63-.9,1.88-1.12,2.79-.49.9.63,1.12,1.88.49,2.79-.42.61-10.22,15.25,3.36,36.08,19.21,29.46,62.9,25.86,63.33,25.82,1.09-.09,2.07.71,2.17,1.81.1,1.1-.71,2.07-1.81,2.17-.39.04-2.55.22-5.93.22Z"/>
      <path class="cls-7" d="M106.16,147.61l-11.76,11c-1.54,1.44-1.7,3.82-.36,5.45,7.04,8.54,27.99,33.79,39.19,45.28,2.45,2.51,6.72.84,6.83-2.67l.74-22.69c.03-.98-.3-1.94-.93-2.69l-27.93-33.32c-1.47-1.75-4.11-1.91-5.78-.35Z"/>
      <path class="cls-7" d="M162.43,197.7s16,14.77,36.43,3.81,16.68-23.55,0-39.21-43.83-8.48-52.43,0c-13.62,13.45-17.79,45.62,2.51,78.3s37.3,42.21,63.87,30.98,23.16-44.91,13.62-56.5-17.7-33.89-24.51-32.61"/>
      <path class="cls-3" d="M137.23,214.05c-.21,0-.42-.04-.62-.14-5.17-2.37-43.27-45.22-45.99-50.57-2.74-5.4,11.75-15.38,18.1-19.42.7-.44,1.63-.24,2.07.46.44.7.24,1.63-.46,2.07-9.86,6.27-17.98,13.67-17.04,15.53,2.19,4.3,39.95,47.08,44.56,49.2.75.35,1.08,1.24.74,1.99-.25.55-.8.88-1.36.88Z"/>
      <path class="cls-3" d="M181.39,208.38c-13.87,0-22.65-10.36-22.76-10.5-.53-.64-.44-1.58.2-2.11.64-.53,1.58-.44,2.11.2.57.68,14.23,16.69,34.59,5.48,20.22-11.13,17.25-16.93,12.32-26.54l-.17-.34c-5.12-10-22.44-22.81-35.86-20-.81.17-1.61-.35-1.78-1.16-.17-.81.35-1.61,1.16-1.78,15.27-3.19,33.67,10.87,39.15,21.57l.17.34c4.95,9.66,9.22,18.01-13.55,30.54-5.68,3.13-10.92,4.3-15.59,4.3Z"/>
      <path class="cls-3" d="M196.97,277.42c-9.06,0-18.09-3.1-25.84-7.77-.06-.04-.12-.08-.18-.13-43.23-35.61-35.56-77.9-35.48-78.33.16-.81.94-1.35,1.76-1.18.81.16,1.34.94,1.19,1.76-.08.41-7.35,40.95,34.35,75.37,17.06,10.22,40.62,12.34,55.71-12.33.43-.71,1.36-.93,2.06-.5s.93,1.36.5,2.06c-9.37,15.32-21.76,21.05-34.07,21.05Z"/>
      <path class="cls-7" d="M154.56,152.39s-6.15-16.29,6.27-18.67c12.42-2.39,20,8.55,17,25.28,0,0-18.71,3.87-23.26-6.6Z"/>
      <path class="cls-1" d="M155.84,158.03c-.59,0-1.15-.35-1.39-.93-.24-.57-5.71-13.98-.73-21.06,2.11-3,5.67-4.4,10.57-4.16,5.75.28,10.02,2.24,12.69,5.82,4.69,6.29,2.56,15.2,2.47,15.57-.2.8-1.01,1.3-1.82,1.1s-1.3-1.01-1.1-1.82c.02-.08,1.87-7.93-1.97-13.08-2.11-2.82-5.61-4.37-10.42-4.61-3.81-.19-6.49.78-7.97,2.89-3.36,4.77-.39,14.74,1.04,18.19.32.77-.04,1.64-.81,1.96-.19.08-.38.12-.57.12Z"/>
      <path class="cls-1" d="M165.76,154.72s-2.79-6.69,0-9.98,4.88,7.47,4.88,7.47l-4.88,2.51Z"/>
      <path class="cls-1" d="M120.98,113.27c-.54,0-1.07-.21-1.46-.64-17.01-18.22-15.54-39.99-15.19-43.44-1.44-4.93-13.44-47.93.6-62.28,15.07-15.4,33.12-.27,33.31-.12.84.72.94,1.98.22,2.82-.72.84-1.98.94-2.82.22-.66-.56-15.42-12.81-27.85-.12-12.95,13.23.35,58.28.49,58.73.08.27.1.56.07.84-.03.22-2.71,22.62,14.1,40.63.75.81.71,2.07-.1,2.83-.39.36-.88.54-1.36.54Z"/>
      <path class="cls-1" d="M106.36,71.01c-.07,0-.13,0-.2,0-1.1-.11-1.9-1.09-1.79-2.19,4.28-43.57,29.25-49.69,30.31-49.93,1.08-.24,2.15.43,2.39,1.51.24,1.07-.43,2.14-1.5,2.39-.97.23-23.23,5.93-27.21,46.42-.1,1.03-.97,1.8-1.99,1.8Z"/>
      <path class="cls-3" d="M116.97,263.08c-.42,0-.85-.13-1.21-.41-5.65-4.29-7.74-29.79-8.35-39.99l-15.27,8c-.62.32-1.35.3-1.95-.05-12.83-7.64-16.75-48.26-17.16-52.86-.08-.95.52-1.83,1.43-2.1,9.62-2.8,17.13-10.77,17.21-10.85.75-.81,2.02-.85,2.83-.1.81.75.85,2.02.1,2.82-.32.34-7.53,8.02-17.43,11.46,1.26,12.56,5.76,40.86,14.19,47.57l16.96-8.89c.6-.32,1.33-.3,1.92.04.59.34.97.96,1,1.64.72,15.01,3.34,37.38,6.95,40.12.88.67,1.05,1.92.38,2.8-.39.52-.99.79-1.59.79Z"/>
    </g>
  </g>
</svg>