<?xml version="1.0" encoding="UTF-8"?>
<svg xmlns="http://www.w3.org/2000/svg" xmlns:xlink="http://www.w3.org/1999/xlink" viewBox="0 0 372.73 581.88">
  <defs>
    <style>
      .cls-1 {
        fill: #37384f;
      }

      .cls-2 {
        fill: #2364aa;
      }

      .cls-3 {
        fill: #fec601;
      }

      .cls-4 {
        fill: #f48368;
      }

      .cls-5 {
        fill: #b8252b;
      }

      .cls-6 {
        fill: #cf2a30;
      }

      .cls-7 {
        fill: #fff;
      }

      .cls-8 {
        fill: #60628a;
      }

      .cls-9 {
        fill: none;
      }

      .cls-10 {
        fill: #ed637f;
      }

      .cls-11 {
        isolation: isolate;
      }

      .cls-12 {
        opacity: .2;
      }

      .cls-12, .cls-13 {
        mix-blend-mode: overlay;
      }

      .cls-14 {
        fill: #aaace3;
      }

      .cls-15 {
        fill: #1274ff;
      }

      .cls-16 {
        fill: #fffce7;
      }

      .cls-17 {
        fill: #f492b8;
      }

      .cls-18 {
        fill: #35d2d5;
      }

      .cls-19 {
        fill: #1063d9;
      }

      .cls-20 {
        fill: #ea7317;
      }

      .cls-21 {
        fill: #e32e34;
      }

      .cls-22 {
        fill: #e86600;
      }

      .cls-13 {
        opacity: .3;
      }

      .cls-23 {
        clip-path: url(#clippath);
      }

      .cls-24 {
        fill: #287bc6;
      }

      .cls-25 {
        fill: #73bfb8;
      }

      .cls-26 {
        fill: #653fd8;
      }

      .cls-27 {
        fill: #3da5d9;
      }
    </style>
    <clipPath id="clippath">
      <rect class="cls-9" width="372.73" height="581.88"/>
    </clipPath>
  </defs>
  <g class="cls-11">
    <g id="_レイヤー_2" data-name="レイヤー 2">
      <g id="_圖層_2" data-name="圖層 2">
        <g class="cls-23">
          <g>
            <path class="cls-18" d="M244.99,153.29c-3.29,0-6.37-1.13-8.7-3.51-.84-.86-2.92-3.01-1.99-4.43.67-1.03,3.64-.45,4.57-.29,1.84.31,3.58.92,5.18,1.91,2.39,1.48,1.41,2.63-.85,2.73-2.91.13-6.7-.64-8.27-3.31l-.8,3.07c2.35-.99,3.92-.42,6.22.15.2.05-3.26.11-1.99-1.2.5-.52,3.49.42,4.03.63,1.67.63,2.63,1.9,4.08,2.78,4.08,2.45,8.41-1.96,11.77-4.09l-3.07-3.07c-1.59,2.33-4.22-.45-4.66-2.1s-.28-3.95.68-5.45c2.06-3.21,8.17-.63,11.08.24,3.13.94,7.29,1.9,9.93,3.88,1.98,1.48,2.45,3.74.15,5.3-2.14,1.45-5.12.86-7.42.31-1.7-.4-3.37-.93-5.06-1.4-.81-.23-1.64-.44-2.44-.69-1.23-.38-1.87-.13-1.48-1.4.89-2.97,6.81-2.34,8.91-1.47.14.06,1.91.75,1.92.76.65-.06.55.03-.3.27-.39.18-.79.31-1.21.41-1.48.42-3.03.56-4.57.45-3.5-.24-6.62-1.75-9.09-4.21l-.99,3.75c1.83-.67,3.67-1.11,5.63-1.07,2.71.06,4.13,1.15,6.62,1.79.5.13,1.71-.25.54-.22s-2.3.35-3.47.28c-2.39-.16-4.52-1.08-6.49-2.4v3.87c3.31-2.2,7.06-2.25,10.4-.12l.54-4.1c-5.02,1.3-10.01.85-14.68-1.43l.45,3.52c2.21-2.4,5.03-3.29,8.26-3.17,1.31.05,9.16,1.05,8.9,3.28-.06.54-3.88.41-4.43.36-1.62-.16-3.24-.63-4.71-1.33-2.8-1.34-4.87-3.46-6.31-6.18l-1.34,3.29c4.86-1.21,9.93-.71,14.33,1.76.33.19,2.69,1.38,2.66,1.85-.07,1.13-3.18.49-3.45.43-2.64-.53-4.96-2.05-6.58-4.19-.45,1.1-.89,2.2-1.34,3.29,5.56-1.73,11.41-.78,15.96,2.94v-3.17h.24c-.5-.92-1.57-1.24-2.53-1.04-6.55,1.36-12.97-.95-17.37-5.91v3.17c2.38-3.01,6.19-3.04,9.67-2.2,1.61.39,3.33.9,4.7,1.86,1.51,1.05,2.53,2.44,1.5,4.14-.96,1.58-2.43,1.56-4.18,1.42-3.95-.31-8.44-2.17-11.68-4.39-2.16-1.48-3.67-2.71-.29-3.64,2.22-.61,4.56-.79,6.85-.54,3.68.39,8.65,2.06,10.67,5.42,3.5,5.82-6.58,5.59-9.9,6.38-4.33,1.03-10.04-.31-9.81-5.96.23-5.81,6.17-6.64,10.71-5.58,1.86.44,3.67,1.12,5.36,2,.66.34,2.89,1.29,3.15,2.05.42,1.24-1.18,2.77-1.9,3.32-3.28,2.51-7.22,4.96-11.3,5.78-3.55.71-8.02-.23-10.13-3.45-2.79-4.25,1.05-8.73,5.1-10.08,4.43-1.47,9.43.09,13.62,1.69,1.29.49,3.87,1.15,4.5,2.56,1.13,2.55-4.57,5.54-6.24,6.5-3.47,2-7.56,3.37-11.51,2.01-4.6-1.58-6.36-6.32-3.57-10.39,6.47-9.43,28.07.29,18.67,9.62-6.45,6.4-16.85.93-23.86,6.39-1.29,1-.58,3.48.99,3.75,5.23.9,9.82-.56,14.82-1.97,5.96-1.67,12.05-2.62,18.25-2.72,5-.08,9.94,1.03,14.9.93,3.51-.07,6.51-1.05,8.51-4.06.82-1.23-.02-2.91-1.34-3.29-8.55-2.5-17.29,1.35-25.81-.86v4.32c6.42-2.47,13.16-2.25,19.31.91.18-1.37.36-2.73.54-4.1-3.62,1.16-7.32,1.79-11.14,1.63-2.04-.09-3.95-.58-5.95-.86l-1.28-.35.8.7c.96.1,2.37-.54,3.34-.68,3.59-.5,7.26-.31,10.78.58.8.2,1.59.43,2.37.7.5.16.99.34,1.46.56.96.48,1.14.52.56.12-1.1.2-2.45-.19-3.76.24l1.19,4.32c3.86-1.28,7.79-2.28,11.82-2.86,2.43-.35,9.23-1.99,10.79.8.27-1.02.54-2.05.8-3.07-5.27,3.14-13.41.74-19.11.06-2.86-.34-2.83,4.14,0,4.48,6.87.83,15.03,3.11,21.38-.67,1.05-.63,1.4-2,.8-3.07-2.08-3.71-6.35-3.75-10.14-3.5-5.98.41-11.84,1.61-17.53,3.49-2.72.9-1.57,5.22,1.19,4.32,2.48-.8,5.12.03,6.91-2.4,1.33-1.81.77-4.09-.99-5.36-5.26-3.77-13.94-4.05-20.03-3.05-2.41.4-5.42.94-6.64,3.35-.97,1.92-.09,3.82,1.7,4.81,2.8,1.55,7.05,1.76,10.19,1.82,3.97.08,7.89-.59,11.67-1.8,1.73-.55,2.34-3.17.54-4.1-7.14-3.67-15.24-4.25-22.77-1.36-1.94.75-2.31,3.72,0,4.32,8.56,2.23,17.36-1.61,25.81.86l-1.34-3.29c-2.04,3.07-7.33,1.68-10.36,1.34-4.46-.49-8.95-.57-13.42-.24-4.19.31-8.38.96-12.46,1.96-4.95,1.21-9.98,3.59-15.17,2.7.33,1.25.66,2.5.99,3.75,3.33-2.6,8.34-1.42,12.25-1.76,3.67-.32,7.34-1.24,10.31-3.52,5.29-4.05,6.69-11.43,2.05-16.52-4.62-5.07-13.11-7.11-19.55-4.92-5.97,2.03-10.48,8.54-8.5,14.9,1.88,6.04,8.83,8.7,14.64,7.89,3.32-.47,6.43-1.89,9.25-3.66,2.8-1.76,6.61-4.1,7.44-7.57,1.65-6.88-8.36-9.57-13.13-10.68-6.56-1.52-14.07-.65-18.16,5.32-3.48,5.08-1.87,11.47,3.16,14.82,5.95,3.96,13.06,2.37,18.92-.9,4.37-2.44,13.35-7.89,7.95-13.69-4.38-4.7-14.34-7.45-20.35-5.01-5.34,2.17-7.94,8.8-5.68,14.05,1.12,2.61,3.3,4.65,5.9,5.76,3.58,1.52,6.4.63,10.01-.2,3.22-.73,6.96-.2,9.76-2.25,2.64-1.93,3.37-5.3,2.45-8.34-1.92-6.34-10.07-9.27-16.01-9.68-5.14-.36-17.51,2.06-11.78,9.63,2.28,3.01,6.5,4.78,9.92,6.08,3.55,1.35,7.79,2.58,11.58,1.53,7.59-2.1,5.81-10.98.02-14.09-5.65-3.04-14.5-4.01-18.91,1.56-.79,1-.88,2.17,0,3.17,5.48,6.19,13.68,8.74,21.74,7.07l-2.53-1.03c1.42,2.62,4.73,3.02,6.8.92.79-.8.95-2.4,0-3.17-5.78-4.73-13.15-6.33-20.33-4.09-1.24.39-2.25,2.08-1.34,3.29,2.7,3.57,6.39,6.03,10.92,6.51,3.19.34,8.07-.25,7.94-4.48s-5.26-6.48-8.47-7.71c-4.73-1.81-9.79-1.97-14.67-.75-1.45.36-2,2.05-1.34,3.29,2.52,4.74,7.01,8.2,12.28,9.35,3.52.77,11.49,1.11,12.07-3.94.59-5.13-6.92-7.26-10.73-7.93-5.35-.94-10.84,0-14.64,4.12-.91.99-.9,2.86.45,3.52,5.76,2.81,11.92,3.49,18.13,1.88,1.93-.5,2.12-3.09.54-4.1-4.63-2.94-10.36-2.91-14.93.12-1.44.96-1.44,2.91,0,3.87,3.29,2.19,7.13,3.31,11.09,2.96,2.57-.23,6.72-1.27,6.23-4.73-.42-2.94-4.7-4.49-7.09-5.23-3.95-1.21-8.14-.99-11.99.43-1.54.57-2.26,2.48-.99,3.75,3.93,3.91,9.32,5.98,14.87,5.48,3.12-.28,10.06-1.88,8.28-6.43-3.57-9.16-25.45-4.35-20.44,4.25,1.16,2,3.64,2.62,5.7,3.22,3.53,1.03,7.18,2.34,10.87,2.62,4.88.37,10.5-2.31,10.85-7.78.36-5.62-5.84-7.73-10.1-9.36-4.78-1.82-12.79-5.38-17.85-2.98-5.06,2.4-6.07,10.03-3.4,14.52,2.64,4.45,8.87,4.98,11.82.65,1.27-1.86-1.22-4.24-3.07-3.07-1.58,1-3.17,2.01-4.75,3.01-2,1.27-2.28.99-4.01-.25-2.54-1.83-5.72-2.8-8.85-2.69-2.22.08-4.67.76-5.51,3.06-.84,2.31.43,4.84,2.42,6.04,3.04,1.83,11.41,1.39,10.32-3.94-1.15-5.61-9.91-5.12-13.73-3.5-1.12.47-1.35,2.13-.8,3.07,2.89,4.93,11.05,7.07,16.23,4.69,2.36-1.09,3.9-3.46,2.99-6.1-1.04-2.99-4.65-4.76-7.4-5.76-4.53-1.65-15.08-1.87-13.22,5.82,1.59,6.57,9.08,10.47,15.35,10.48,2.89,0,2.89-4.48,0-4.48h0Z"/>
            <path class="cls-3" d="M226.93,277.87c-2.37-.06-134.1-56.83-215.05,16.75-80.95,73.58-210.58-8.76-271.14,1.74-60.56,10.49-91.23,46.4-91.23,46.4l164.75,98.86L8.11,495.98l176.74-58.82,42.08-159.29Z"/>
            <path class="cls-25" d="M166.23,341.09s22.52-57.26,116.48-115.85c37.91-23.64,147.03-42.98,184.88-45.51l15.15,245.5-316.51-84.14Z"/>
            <path class="cls-27" d="M147.94,310.11s68.4-3.25,152.52,37.53c84.13,40.78,115.99,60.64,123.51,65.36l2.37,52.1-189.25-11.82-89.16-143.16Z"/>
            <path class="cls-20" d="M415.12,390.21s-94.61-8.62-155.55,29.66c-65.37,41.06-160.78,100.3-169.82,91.93,0,0,172.77,60.03,319.35,10.89l6.01-132.47Z"/>
            <path class="cls-25" d="M23.48,497.55s-3.03-161.32,52.54-187.44,117.1,1.45,141.75,46.64c24.65,45.19,19.55,190.41,19.55,190.41l-212.07-32.38s-1.75-11.35-1.78-17.23Z"/>
            <path class="cls-20" d="M-124.25,541.67s2.24-121.79,61.03-149.45c58.79-27.65,123.88,1.53,149.96,49.38,26.08,47.85-5.32,78.01-5.32,78.01l-167.14,36.48s-38.5-8.2-38.53-14.43Z"/>
            <path class="cls-20" d="M256.93,198.53h9.86s-1.69,7.18-1.93,7.18-4.2.07-4.27,0-3.66-4.1-3.66-4.1v-3.08Z"/>
            <path class="cls-20" d="M249.83,203.96h9.86s-1.69,7.18-1.93,7.18-4.2.07-4.27,0-3.66-4.1-3.66-4.1v-3.08Z"/>
            <path class="cls-20" d="M245.07,208.76h9.86s-1.69,7.18-1.93,7.18-4.2.07-4.27,0-3.66-4.1-3.66-4.1v-3.08Z"/>
            <path class="cls-20" d="M237.37,212.17h4.11s-.71,3.59-.81,3.59-1.75.04-1.78,0-1.53-2.05-1.53-2.05v-1.54Z"/>
            <path class="cls-20" d="M230.27,214.94h4.11s-.71,3.59-.81,3.59-1.75.04-1.78,0-1.53-2.05-1.53-2.05v-1.54Z"/>
            <path class="cls-20" d="M224.94,217.85h4.11s-.71,3.59-.81,3.59-1.75.04-1.78,0-1.53-2.05-1.53-2.05v-1.54Z"/>
            <polygon class="cls-24" points="327.19 524.65 170.06 524.65 170.06 478.26 317.39 478.26 327.19 495.99 327.19 524.65"/>
            <polygon class="cls-24" points="150.18 529.47 -1.58 529.47 -1.58 494.96 8.49 478.26 150.18 478.26 150.18 529.47"/>
            <rect class="cls-27" x="43.26" y="447.46" width="70.35" height="31.97"/>
            <rect class="cls-27" x="181.4" y="447.46" width="65.98" height="30.8"/>
            <rect class="cls-2" x="124.77" y="435.38" width="42.37" height="24.16"/>
            <polygon class="cls-2" points="121.97 422.09 80.41 422.09 41.29 448.67 106.27 448.67 105.81 437.98 121.97 422.09"/>
            <polygon class="cls-2" points="170.06 422.09 211.62 422.09 250.74 448.67 188.14 448.67 186.22 437.98 170.06 422.09"/>
            <polygon class="cls-27" points="126.59 415.89 92.15 441.81 197.83 441.81 165.91 415.89 126.59 415.89"/>
            <polygon class="cls-24" points="170.06 431.4 181.16 431.4 186.83 440.47 188.95 440.62 188.95 479.53 161.77 479.53 161.77 449.66 160.58 449.66 160.58 440.89 163.09 440.89 170.06 431.4"/>
            <polygon class="cls-24" points="119.93 431.4 108.83 431.4 103.16 440.54 101.04 440.7 101.04 479.92 128.23 479.92 128.23 449.81 129.41 449.81 129.41 440.97 126.91 440.97 119.93 431.4"/>
            <circle class="cls-2" cx="115.23" cy="440.44" r="3.23"/>
            <circle class="cls-2" cx="174.77" cy="440.44" r="3.23"/>
            <path class="cls-2" d="M114.2,454.61h0c3.16,0,5.73,2.57,5.73,5.73v17.03h-11.47v-17.03c0-3.16,2.57-5.73,5.73-5.73Z"/>
            <path class="cls-2" d="M174.77,455.5h0c3.16,0,5.73,2.57,5.73,5.73v17.03h-11.47v-17.03c0-3.16,2.57-5.73,5.73-5.73Z"/>
            <rect class="cls-24" x="107.47" y="463.22" width="13.26" height=".99"/>
            <rect class="cls-24" x="107.47" y="469.75" width="13.26" height=".99"/>
            <rect class="cls-24" x="102.28" y="465.05" width="23.65" height=".99" transform="translate(579.65 351.44) rotate(90)"/>
            <rect class="cls-24" x="168.14" y="464.11" width="13.26" height=".99"/>
            <rect class="cls-24" x="168.14" y="470.64" width="13.26" height=".99"/>
            <rect class="cls-24" x="162.94" y="465.94" width="23.65" height=".99" transform="translate(641.2 291.67) rotate(90)"/>
            <path class="cls-27" d="M191.72,522.66h-13.02v-17.8c0-3.59,2.92-6.51,6.51-6.51s6.51,2.92,6.51,6.51v17.8ZM180.25,521.11h9.92v-16.25c0-2.73-2.22-4.96-4.96-4.96s-4.96,2.22-4.96,4.96v16.25Z"/>
            <rect class="cls-27" x="179.47" y="507.73" width="11.47" height=".99"/>
            <rect class="cls-27" x="179.47" y="514.26" width="11.47" height=".99"/>
            <rect class="cls-27" x="173.74" y="509.92" width="22.93" height=".99" transform="translate(695.62 325.21) rotate(90)"/>
            <path class="cls-27" d="M108.03,528.04h-13.02v-23.18c0-3.59,2.92-6.51,6.51-6.51s6.51,2.92,6.51,6.51v23.18ZM96.56,526.49h9.92v-21.63c0-2.73-2.22-4.96-4.96-4.96s-4.96,2.22-4.96,4.96v21.63Z"/>
            <rect class="cls-27" x="95.78" y="507.73" width="11.47" height=".99"/>
            <rect class="cls-27" x="95.78" y="514.26" width="11.47" height=".99"/>
            <rect class="cls-27" x="88.52" y="511.45" width="26" height=".99" transform="translate(613.46 410.43) rotate(90)"/>
            <polygon class="cls-27" points="145.92 443.67 128.22 457.76 128.22 529.47 163.25 529.47 163.25 456.26 145.92 443.67"/>
            <polygon class="cls-24" points="131.64 528.87 122.23 528.87 130.4 453.27 131.64 454.64 131.64 528.87"/>
            <polygon class="cls-24" points="160.27 528.87 169.69 528.87 161.52 453.27 160.27 454.64 160.27 528.87"/>
            <rect class="cls-27" x="161.5" y="453.27" width="9.42" height="78.44"/>
            <rect class="cls-27" x="120.98" y="453.27" width="9.42" height="78.44"/>
            <path class="cls-2" d="M145.74,480.24h0c5.52,0,9.99,4.48,9.99,9.99v39.23h-19.99v-39.23c0-5.52,4.48-9.99,9.99-9.99Z"/>
            <path class="cls-2" d="M211.75,457.85h0c3.69,0,6.69,3,6.69,6.69v13.72h-13.38v-13.72c0-3.69,3-6.69,6.69-6.69Z"/>
            <path class="cls-2" d="M228.1,464.5h0c3.69,0,6.69,3,6.69,6.69v7.07h-13.38v-7.07c0-3.69,3-6.69,6.69-6.69Z"/>
            <path class="cls-2" d="M72.58,459.02h13.38v13.72c0,3.69-3,6.69-6.69,6.69h0c-3.69,0-6.69-3-6.69-6.69v-13.72h0Z" transform="translate(158.55 938.45) rotate(-180)"/>
            <path class="cls-2" d="M56.78,465.67h13.38v7.07c0,3.69-3,6.69-6.69,6.69h0c-3.69,0-6.69-3-6.69-6.69v-7.07h0Z" transform="translate(126.94 945.1) rotate(180)"/>
            <path class="cls-24" d="M161.25,531.47h-30.97v-52.61c0-8.54,6.95-15.49,15.48-15.49s15.49,6.95,15.49,15.49v52.61ZM131.05,530.69h29.42v-51.84c0-8.11-6.6-14.71-14.71-14.71s-14.71,6.6-14.71,14.71v51.84Z"/>
            <path class="cls-24" d="M156.12,529.38h-20.76v-45.79c0-5.37,4.37-9.74,9.74-9.74h1.29c5.37,0,9.74,4.37,9.74,9.74v45.79ZM136.13,528.6h19.21v-45.01c0-4.94-4.02-8.96-8.96-8.96h-1.29c-4.94,0-8.96,4.02-8.96,8.96v45.01Z"/>
            <g>
              <rect class="cls-5" x="37.37" y="252.08" width="3.9" height="21.01"/>
              <rect class="cls-5" x="45.3" y="252.08" width="5.53" height="21.01"/>
              <rect class="cls-5" x="54.02" y="252.08" width="2.89" height="21.01"/>
              <rect class="cls-5" x="100.3" y="252.08" width="3.9" height="21.01" transform="translate(204.5 525.17) rotate(-180)"/>
              <rect class="cls-5" x="90.73" y="252.08" width="5.53" height="21.01" transform="translate(187 525.17) rotate(-180)"/>
              <rect class="cls-5" x="84.65" y="252.08" width="2.89" height="21.01" transform="translate(172.2 525.17) rotate(-180)"/>
              <g>
                <g>
                  <rect class="cls-22" x="31.45" y="264.27" width="11.37" height="3.86"/>
                  <g class="cls-13">
                    <rect x="31.45" y="264.27" width="11.37" height="2.19"/>
                  </g>
                </g>
                <g>
                  <g>
                    <rect class="cls-22" x="45.3" y="264.27" width="15.25" height="3.86"/>
                    <g class="cls-13">
                      <rect x="45.3" y="264.27" width="15.25" height="2.19"/>
                    </g>
                  </g>
                  <g>
                    <rect class="cls-22" x="64.28" y="264.27" width="14.02" height="3.86"/>
                    <g class="cls-13">
                      <rect x="64.28" y="264.27" width="14.02" height="2.19"/>
                    </g>
                  </g>
                  <g>
                    <rect class="cls-22" x="81.64" y="264.27" width="14.02" height="3.86"/>
                    <g class="cls-13">
                      <rect x="81.64" y="264.27" width="14.02" height="2.19"/>
                    </g>
                  </g>
                </g>
                <g>
                  <rect class="cls-22" x="99.29" y="264.27" width="10.47" height="3.86"/>
                  <g class="cls-13">
                    <rect x="99.29" y="264.27" width="10.47" height="2.19"/>
                  </g>
                </g>
                <g>
                  <rect class="cls-6" x="25.28" y="252.08" width="90.62" height="1.02"/>
                  <rect class="cls-21" x="25.28" y="252.08" width="1.95" height="1.69"/>
                  <rect class="cls-21" x="29.5" y="252.08" width="1.95" height="1.69"/>
                  <rect class="cls-21" x="33.73" y="252.08" width="1.95" height="1.69"/>
                  <rect class="cls-21" x="37.95" y="252.08" width="1.95" height="1.69"/>
                  <rect class="cls-21" x="42.17" y="252.08" width="1.95" height="1.69"/>
                  <rect class="cls-21" x="46.39" y="252.08" width="1.95" height="1.69"/>
                  <rect class="cls-21" x="54.84" y="252.08" width="1.95" height="1.69"/>
                  <rect class="cls-21" x="63.28" y="252.08" width="1.95" height="1.69"/>
                  <rect class="cls-21" x="50.62" y="252.08" width="1.95" height="1.69"/>
                  <rect class="cls-21" x="59.06" y="252.08" width="1.95" height="1.69"/>
                  <rect class="cls-21" x="67.51" y="252.08" width="1.95" height="1.69"/>
                  <rect class="cls-21" x="71.73" y="252.08" width="1.95" height="1.69"/>
                  <rect class="cls-21" x="75.95" y="252.08" width="1.95" height="1.69"/>
                  <rect class="cls-21" x="80.17" y="252.08" width="1.95" height="1.69"/>
                  <rect class="cls-21" x="84.4" y="252.08" width="1.95" height="1.69"/>
                  <rect class="cls-21" x="88.62" y="252.08" width="1.95" height="1.69"/>
                  <rect class="cls-21" x="92.84" y="252.08" width="1.95" height="1.69"/>
                  <rect class="cls-21" x="97.06" y="252.08" width="1.95" height="1.69"/>
                  <rect class="cls-21" x="101.29" y="252.08" width="1.95" height="1.69"/>
                  <rect class="cls-21" x="105.51" y="252.08" width="1.95" height="1.69"/>
                  <rect class="cls-21" x="109.73" y="252.08" width="1.95" height="1.69"/>
                  <rect class="cls-21" x="113.95" y="252.08" width="1.95" height="1.69"/>
                </g>
                <g>
                  <path class="cls-21" d="M124.47,250.32l-3.52.57c-9.34-1.56-15.53-4.74-15.53-4.74H35.76s-6.19,3.18-15.53,4.74l-3.52-.57-.4.21c2.45.58,6.66,1.56,10.09,1.56h88.39c3.43,0,7.64-.98,10.09-1.56l-.4-.21Z"/>
                  <path class="cls-20" d="M105.43,247.17H35.75c-3.65,1.94-9.31,3.67-13.28,4.57,1.33.21,2.69.35,3.93.35h88.39c1.25,0,2.6-.14,3.93-.35-3.98-.9-9.63-2.63-13.28-4.57Z"/>
                  <g class="cls-13">
                    <path d="M36.12,246.15h-.36s-6.19,3.18-15.53,4.74l-3.52-.57,3.72.77s8.06-1.03,15.68-4.94Z"/>
                  </g>
                  <g class="cls-12">
                    <path d="M55.74,247.17h-1.19c-1.69,1.52-3.76,3.49-5.24,4.92h1.17c1.52-1.46,3.59-3.43,5.25-4.92Z"/>
                    <path d="M52.2,247.17h-1.22c-2.13,1.62-4.82,3.55-6.75,4.92h1.24c1.98-1.41,4.66-3.33,6.73-4.92Z"/>
                    <path d="M59.38,247.17h-1.15c-1.26,1.45-2.73,3.44-3.79,4.92h1.14c1.08-1.51,2.57-3.51,3.8-4.92Z"/>
                    <path d="M63.15,247.17h-1.12c-.82,1.41-1.75,3.41-2.42,4.92h1.11c.68-1.54,1.62-3.55,2.42-4.92Z"/>
                    <path d="M114.33,251.49c-3.16-.93-7.28-2.39-10.39-4.32h-1.27c3.22,2.09,7.62,3.65,10.97,4.64.32.09.64.19.95.27h.19c.47,0,.96-.02,1.45-.06-.61-.16-1.25-.34-1.9-.54Z"/>
                    <path d="M67.07,247.17h-1.1c-.4,1.38-.84,3.37-1.16,4.92h1.1c.37-1.77.79-3.65,1.15-4.92Z"/>
                    <path d="M38.5,247.17h-1.27c-3.1,1.93-7.21,3.38-10.36,4.32-.66.2-1.31.38-1.93.54.49.04.98.06,1.45.06h.19c.31-.09.62-.18.95-.27,3.35-.99,7.75-2.55,10.97-4.64Z"/>
                    <path d="M48.73,247.17h-1.24c-2.55,1.75-5.88,3.62-8.28,4.92h1.33c2.46-1.34,5.73-3.2,8.19-4.92Z"/>
                    <path d="M45.3,247.17h-1.26c-2.95,1.91-6.9,3.71-9.78,4.92h1.46c2.95-1.26,6.77-3.05,9.58-4.92Z"/>
                    <path d="M32.39,251.61c2.89-1.04,6.67-2.6,9.5-4.45h-1.27c-3.31,2.08-7.85,3.8-11.21,4.92h1.65c.43-.15.88-.3,1.33-.47Z"/>
                    <path d="M93.7,247.17h-1.24c2.46,1.72,5.73,3.58,8.19,4.92h1.33c-2.4-1.29-5.73-3.17-8.28-4.92Z"/>
                    <path d="M97.14,247.17h-1.26c2.81,1.87,6.63,3.66,9.58,4.92h1.46c-2.88-1.21-6.83-3.01-9.78-4.92Z"/>
                    <path d="M90.2,247.17h-1.22c2.07,1.59,4.75,3.51,6.73,4.92h1.24c-1.93-1.37-4.62-3.3-6.75-4.92Z"/>
                    <path d="M100.55,247.17h-1.27c2.84,1.85,6.61,3.4,9.5,4.45.45.16.9.32,1.33.47h1.64c-3.36-1.11-7.9-2.84-11.21-4.92Z"/>
                    <path d="M79.15,247.17h-1.12c.8,1.37,1.74,3.38,2.42,4.92h1.11c-.67-1.51-1.6-3.51-2.42-4.92Z"/>
                    <path d="M75.21,247.17h-1.1c.36,1.26.79,3.15,1.15,4.92h1.1c-.32-1.54-.75-3.53-1.16-4.92Z"/>
                    <path d="M71.14,252.08v-4.92h-1.1v4.92h1.1Z"/>
                    <path d="M86.63,247.17h-1.19c1.66,1.48,3.73,3.45,5.25,4.92h1.17c-1.48-1.43-3.55-3.4-5.24-4.92Z"/>
                    <path d="M82.95,247.17h-1.15c1.23,1.41,2.72,3.41,3.8,4.92h1.14c-1.06-1.48-2.53-3.46-3.79-4.92Z"/>
                  </g>
                </g>
                <g>
                  <g>
                    <rect class="cls-5" x="35.76" y="237.25" width="1.6" height="6.53"/>
                    <g class="cls-13">
                      <rect x="37.37" y="237.25" width=".35" height="6.53" transform="translate(75.09 481.02) rotate(180)"/>
                    </g>
                  </g>
                  <g>
                    <rect class="cls-5" x="49.23" y="237.25" width="1.6" height="6.53"/>
                    <g class="cls-13">
                      <rect x="50.83" y="237.25" width=".35" height="6.53" transform="translate(102.02 481.02) rotate(180)"/>
                    </g>
                  </g>
                  <g>
                    <rect class="cls-5" x="62.79" y="237.25" width="1.6" height="6.53"/>
                    <g class="cls-13">
                      <rect x="64.39" y="237.25" width=".35" height="6.53" transform="translate(129.14 481.02) rotate(180)"/>
                    </g>
                  </g>
                  <g>
                    <rect class="cls-5" x="76.35" y="237.25" width="1.6" height="6.53"/>
                    <g class="cls-13">
                      <rect x="77.95" y="237.25" width=".35" height="6.53" transform="translate(156.25 481.02) rotate(180)"/>
                    </g>
                  </g>
                  <g>
                    <rect class="cls-5" x="103.81" y="237.25" width="1.6" height="6.53" transform="translate(209.23 481.02) rotate(180)"/>
                    <g class="cls-13">
                      <rect x="103.46" y="237.25" width=".35" height="6.53"/>
                    </g>
                  </g>
                  <g>
                    <rect class="cls-5" x="90.26" y="237.25" width="1.6" height="6.53" transform="translate(182.12 481.02) rotate(180)"/>
                    <g class="cls-13">
                      <rect x="89.9" y="237.25" width=".35" height="6.53"/>
                    </g>
                  </g>
                  <rect class="cls-20" x="35.76" y="243.77" width="69.65" height="2.37"/>
                  <g class="cls-13">
                    <rect x="35.76" y="243.77" width="69.65" height=".27"/>
                  </g>
                </g>
                <g>
                  <rect class="cls-6" x="29.5" y="237.38" width="82.18" height="1.02"/>
                  <rect class="cls-21" x="29.5" y="237.38" width="1.95" height="1.69"/>
                  <rect class="cls-21" x="33.73" y="237.38" width="1.95" height="1.69"/>
                  <rect class="cls-21" x="37.95" y="237.38" width="1.95" height="1.69"/>
                  <rect class="cls-21" x="42.17" y="237.38" width="1.95" height="1.69"/>
                  <rect class="cls-21" x="46.39" y="237.38" width="1.95" height="1.69"/>
                  <rect class="cls-21" x="50.62" y="237.38" width="1.95" height="1.69"/>
                  <rect class="cls-21" x="59.06" y="237.38" width="1.95" height="1.69"/>
                  <rect class="cls-21" x="67.51" y="237.38" width="1.95" height="1.69"/>
                  <rect class="cls-21" x="54.84" y="237.38" width="1.95" height="1.69"/>
                  <rect class="cls-21" x="63.28" y="237.38" width="1.95" height="1.69"/>
                  <rect class="cls-21" x="71.73" y="237.38" width="1.95" height="1.69"/>
                  <rect class="cls-21" x="75.95" y="237.38" width="1.95" height="1.69"/>
                  <rect class="cls-21" x="80.17" y="237.38" width="1.95" height="1.69"/>
                  <rect class="cls-21" x="84.4" y="237.38" width="1.95" height="1.69"/>
                  <rect class="cls-21" x="88.62" y="237.38" width="1.95" height="1.69"/>
                  <rect class="cls-21" x="92.84" y="237.38" width="1.95" height="1.69"/>
                  <rect class="cls-21" x="97.06" y="237.38" width="1.95" height="1.69"/>
                  <rect class="cls-21" x="101.29" y="237.38" width="1.95" height="1.69"/>
                  <rect class="cls-21" x="105.51" y="237.38" width="1.95" height="1.69"/>
                  <rect class="cls-21" x="109.73" y="237.38" width="1.95" height="1.69"/>
                </g>
                <g>
                  <path class="cls-21" d="M119.1,233.62l-3.04,1.19c-11.75-2.02-18.67-9.44-18.67-9.44h-53.59s-6.92,7.42-18.67,9.44l-3.04-1.19-.35.43c2.11,1.21,5.76,3.25,8.72,3.25h80.27c2.96,0,6.6-2.04,8.72-3.25l-.35-.43Z"/>
                  <g class="cls-13">
                    <path d="M96.98,225.37h.4s6.92,7.42,18.67,9.44l3.04-1.19-3,1.45s-9.95-.84-19.11-9.7Z"/>
                  </g>
                  <path class="cls-20" d="M96.48,226.25h-51.79c-5.99,6.23-13.2,9.08-17.64,10.33,1.15.43,2.32.72,3.4.72h80.27c1.08,0,2.25-.29,3.4-.72-4.44-1.25-11.64-4.1-17.64-10.33Z"/>
                  <g class="cls-13">
                    <path d="M44.2,225.37h-.4s-6.92,7.42-18.67,9.44l-3.04-1.19,3,1.45s9.95-.84,19.11-9.7Z"/>
                  </g>
                  <g class="cls-12">
                    <path d="M60.99,226.25h-1.17c-1.49,3.12-3.38,7.73-4.71,11.05h1.15c1.36-3.41,3.27-8.05,4.73-11.05Z"/>
                    <path d="M64.2,226.25h-1.13c-.98,2.94-2.18,7.6-3.02,11.05h1.12c.86-3.52,2.07-8.23,3.03-11.05Z"/>
                    <path d="M57.89,226.25h-1.2c-1.98,3.37-4.62,7.89-6.47,11.05h1.2c1.9-3.25,4.54-7.76,6.47-11.05Z"/>
                    <path d="M51.86,226.25h-1.24c-2.91,4.17-7.07,8.32-10.01,11.05h1.42c3.02-2.84,7.04-6.95,9.83-11.05Z"/>
                    <path d="M39.04,236.19c3.02-2.33,7.01-5.84,9.84-9.95h-1.25c-3.33,4.65-8.19,8.58-11.69,11.05h1.62c.47-.35.97-.71,1.47-1.1Z"/>
                    <path d="M34.43,236.62c3.53-2.17,8.22-5.67,11.48-10.38h-1.22s-.07.07-.11.11c-3.14,4.32-7.5,7.55-10.81,9.59-.81.5-1.59.95-2.32,1.35h1.86c.37-.21.74-.44,1.12-.67Z"/>
                    <path d="M71.14,226.25h-1.1v11.05h1.1v-11.05Z"/>
                    <path d="M54.86,226.25h-1.23c-2.46,3.73-5.86,8.09-8.25,11.05h1.29c2.46-3.06,5.81-7.39,8.19-11.05Z"/>
                    <path d="M67.57,226.25h-1.1c-.49,2.85-1.05,7.5-1.44,11.05h1.1c.47-4.14,1.01-8.51,1.44-11.05Z"/>
                    <path d="M93.55,226.25h-1.25c2.83,4.1,6.83,7.62,9.84,9.95.5.39.99.76,1.47,1.1h1.62c-3.49-2.47-8.36-6.4-11.69-11.05Z"/>
                    <path d="M87.55,226.25h-1.23c2.38,3.66,5.73,7.99,8.19,11.05h1.29c-2.39-2.96-5.79-7.32-8.25-11.05Z"/>
                    <path d="M90.56,226.25h-1.24c2.78,4.1,6.81,8.21,9.83,11.05h1.42c-2.94-2.73-7.1-6.88-10.01-11.05Z"/>
                    <path d="M107.41,235.94c-3.31-2.04-7.67-5.27-10.81-9.59-.04-.04-.07-.07-.11-.11h-1.22c3.26,4.71,7.95,8.21,11.48,10.38.38.23.75.46,1.12.67h1.86c-.73-.4-1.51-.85-2.32-1.35Z"/>
                    <path d="M81.36,226.25h-1.17c1.45,3,3.36,7.64,4.73,11.05h1.15c-1.33-3.32-3.22-7.93-4.71-11.05Z"/>
                    <path d="M84.5,226.25h-1.2c1.93,3.28,4.57,7.8,6.47,11.05h1.2c-1.85-3.16-4.49-7.68-6.47-11.05Z"/>
                    <path d="M78.11,226.25h-1.13c.96,2.81,2.17,7.53,3.03,11.05h1.12c-.84-3.44-2.03-8.11-3.02-11.05Z"/>
                    <path d="M74.71,226.25h-1.1c.43,2.54.97,6.9,1.44,11.05h1.1c-.4-3.55-.96-8.2-1.44-11.05Z"/>
                  </g>
                </g>
              </g>
              <polygon class="cls-20" points="31.86 268.13 34.13 272.15 109.06 272.15 110.16 268.13 31.86 268.13"/>
              <path class="cls-20" d="M109.11,272.15v24.27h-28.01v-6.85c0-5.54-4.49-10.03-10.03-10.03s-10.03,4.49-10.03,10.03v6.85h-26.82v-24.27h74.9Z"/>
              <g class="cls-13">
                <rect x="64.65" y="274.05" width="14.02" height="4.52"/>
              </g>
              <g class="cls-13">
                <rect x="34.22" y="271.79" width="74.9" height="1.3"/>
              </g>
              <path class="cls-21" d="M42.96,222.45s4.15,3.09,7.37,2.92l-4.09.64-2.29-.26s-.76-1.62-1.17-3.05l.18-.25Z"/>
              <path class="cls-21" d="M98.69,222.45s-4.15,3.09-7.37,2.92l4.09.64,2.29-.26s.76-1.62,1.17-3.05l-.18-.25Z"/>
              <rect class="cls-27" x="90.51" y="277.61" width="7.75" height="16.87"/>
              <rect class="cls-24" x="90.51" y="292.61" width="7.75" height=".66"/>
              <rect class="cls-27" x="88.4" y="293.19" width="11.71" height="3.4"/>
            </g>
            <rect class="cls-27" x="135.89" y="398.02" width="19.69" height="19.69"/>
            <rect class="cls-24" x="135.89" y="399.81" width="19.69" height="1.29"/>
            <rect class="cls-27" x="135" y="397.53" width="21.47" height="2.28"/>
            <path class="cls-27" d="M144.15,390.57h3.17c3.84,0,6.96,3.12,6.96,6.96h-17.09c0-3.84,3.12-6.96,6.96-6.96Z"/>
            <polygon class="cls-24" points="146.59 387.82 144.61 387.82 143.53 390.94 147.94 390.94 146.59 387.82"/>
            <rect class="cls-24" x="145.19" y="381.96" width=".77" height="7.5"/>
            <path class="cls-20" d="M278.06,192.18l-10.16.35-.56,9.53s8.21,2.19,8.35,2.15,2.37-12.02,2.37-12.02Z"/>
            <path class="cls-27" d="M309.78,200.34s7.16-14.28,7.16-15.3-36.83-1.02-36.83-1.02c0,0-5.34,17.49-8.01,17-2.67-.49-2.77-8.77-4.2-8.49s-3.5,12.17-5.28,12.42c-1.78.25-4.71-3.12-5.41-6.04-.7-2.93-2.4,10.89-3.78,11.18-1.38.29-3.01-3.91-3.43-5.87s-2.66,7.89-3.18,8.24-.17-3.34-1.48-3.69-4.91,3.42-5.23,5.68c-.32,2.26-.95-2.8-3.02-2.23-2.07.57-3.72,4.28-4.26,5.84s-1.35-3.5-2.69-3.12c-1.35.38-2.43,4.21-2.75,5.14s-1.14-2.29-2.48-2.23-3.83,4.75-4.44,4.85,10.8.87,10.8.87c0,0-.91-.67,2.19-.38,3.1.29,6.15-.05,7.78-1.72,1.67-.52,2.58,1.38,4.53-.19,1.96-1.57,2.96-1.81,4.48-1.77,1.53.05,5.03-1.08,6.89-3.23,1.57-.19,4.06,1.05,6.54-2.39s4.9-.05,6.49-.46c1.59-.41,4.18-3.53,7.11-3.4,2.93.13,4.5-3.91,8.75-3.58s7.98.16,9.6-3.09,10.19-4.25,14.17-3.04Z"/>
            <path class="cls-2" d="M287.47,188.81h3.75v45.65c0,.91-.74,1.64-1.64,1.64h-.33c-.98,0-1.78-.8-1.78-1.78v-45.51h0Z"/>
            <path class="cls-2" d="M278.06,201.02h2.56v38.58c0,.68-.55,1.23-1.23,1.23h0c-.74,0-1.33-.6-1.33-1.33v-38.48h0Z"/>
            <path class="cls-2" d="M265.75,207.64h2.56v35.44c0,.68-.55,1.23-1.23,1.23h0c-.74,0-1.33-.6-1.33-1.33v-35.34h0Z"/>
            <path class="cls-2" d="M256.4,213.6h2.56v32.28c0,.68-.55,1.23-1.23,1.23h0c-.74,0-1.33-.6-1.33-1.33v-32.17h0Z"/>
            <path class="cls-2" d="M248.48,214.69h2.56v36.41c0,.68-.55,1.23-1.23,1.23h0c-.74,0-1.33-.6-1.33-1.33v-36.3h0Z"/>
            <path class="cls-2" d="M241.23,220.36h2.56v34.74c0,.68-.55,1.23-1.23,1.23h0c-.74,0-1.33-.6-1.33-1.33v-34.64h0Z"/>
            <path class="cls-2" d="M222.87,223.11h1.59v47.24c0,.41-.33.74-.74.74h0c-.47,0-.85-.38-.85-.85v-47.14h0Z"/>
            <path class="cls-2" d="M228.53,223.48h1.59v41.01c0,.41-.33.74-.74.74h0c-.47,0-.85-.38-.85-.85v-40.9h0Z"/>
            <path class="cls-2" d="M234.59,221.95h1.59v40.2c0,.41-.33.74-.74.74h0c-.47,0-.85-.38-.85-.85v-40.09h0Z"/>
            <ellipse class="cls-2" cx="326.27" cy="149.19" rx="25.58" ry="12.45"/>
            <g>
              <path class="cls-16" d="M303.93,147.72l-3.24,80.34s24.23,5.34,49.81,0v-78.24s-19.08-16.98-46.56-2.1Z"/>
              <path class="cls-2" d="M326.29,230.79c-14.69,0-25.52-2.33-25.68-2.37-.18-.04-.3-.2-.29-.38l3.24-80.34c0-.13.08-.25.2-.31,27.39-14.84,46.8,1.98,46.99,2.15.08.07.13.17.13.28v78.24c0,.18-.12.33-.3.37-8.49,1.77-16.88,2.37-24.28,2.37ZM301.08,227.75c2.88.58,25.49,4.84,49.05,0v-77.76c-1.69-1.4-20.14-15.83-45.82-2.04l-3.22,79.81Z"/>
            </g>
            <polygon class="cls-2" points="324.42 160.22 337.49 161.17 337.49 177.77 324.89 176.63 324.42 160.22"/>
            <polygon class="cls-2" points="344.07 162.41 349.89 165.75 350.49 180.63 344.83 179.11 344.07 162.41"/>
            <polygon class="cls-2" points="316.5 160.79 316.5 177.77 306.67 178.82 306.67 164.32 316.5 160.79"/>
            <path class="cls-2" d="M317.07,230.13v-23.99c0-3.12-2.53-5.66-5.66-5.66s-5.65,2.53-5.65,5.66v22.8"/>
            <g>
              <polyline class="cls-2" points="304.25 146.48 323.87 126.97 338.89 112.03 340.89 119.86 323.35 127.48"/>
              <path class="cls-2" d="M304.25,147.22c-.19,0-.38-.07-.53-.22-.29-.29-.29-.77,0-1.06l34.64-34.44c.19-.19.47-.26.73-.19.26.07.46.28.53.54l2,7.82c.09.36-.09.72-.43.87l-17.41,7.57-19,18.9c-.15.14-.34.22-.53.22ZM338.49,113.48l-11.79,11.73,13.32-5.79-1.52-5.94Z"/>
            </g>
            <g>
              <polyline class="cls-2" points="304.25 145.43 309.38 123.87 313.3 107.36 317.97 111.81 309.26 124.36"/>
              <path class="cls-2" d="M304.25,146.17c-.06,0-.12,0-.17-.02-.4-.1-.65-.5-.55-.9l5-21.05s0-.03.01-.04l4.04-16.98c.06-.26.26-.47.51-.54.26-.08.54,0,.73.18l4.67,4.46c.27.25.31.66.1.97l-8.63,12.43-4.98,20.93c-.08.34-.39.57-.73.57ZM313.73,108.8l-2.83,11.89,6.09-8.77-3.27-3.12Z"/>
            </g>
            <g>
              <polyline class="cls-2" points="304.25 147.14 295.75 131.17 289.23 118.93 294.55 119.23 295.64 130.96"/>
              <path class="cls-2" d="M304.25,147.89c-.27,0-.53-.14-.66-.4l-15.02-28.21c-.13-.24-.12-.53.03-.75.15-.23.39-.36.67-.34l5.32.3c.37.02.67.31.7.68l1.11,11.65,8.5,15.97c.19.36.06.82-.31,1.01-.11.06-.23.09-.35.09ZM290.52,119.75l4.03,7.58-.68-7.39-3.35-.19Z"/>
            </g>
            <g>
              <polyline class="cls-2" points="303.46 147.14 288.96 147.39 277.86 147.58 280.27 142.5 287.05 147.27"/>
              <path class="cls-2" d="M277.86,148.33c-.25,0-.49-.13-.63-.34-.14-.22-.16-.49-.05-.72l2.41-5.08c.09-.2.27-.35.49-.4.21-.06.44-.02.62.11l6.77,4.77s0,0,.01.01l15.95-.28c.39,0,.75.32.76.73,0,.41-.32.75-.73.76l-25.59.44h-.01ZM280.57,143.62l-1.51,3.19,5.9-.1-4.39-3.09Z"/>
            </g>
            <g>
              <polyline class="cls-2" points="303.46 147.33 288.27 162.7 276.64 174.47 277.39 169.09 287.4 163.58"/>
              <path class="cls-2" d="M276.64,175.22c-.11,0-.23-.03-.33-.08-.29-.14-.45-.45-.41-.77l.75-5.38c.03-.23.17-.44.38-.55l9.92-5.46,15.98-16.17c.29-.29.76-.3,1.06,0,.29.29.3.76,0,1.06l-16.04,16.23s-.02.02-.03.03l-10.75,10.88c-.14.15-.34.22-.53.22ZM278.08,169.56l-.39,2.78,5.56-5.63-5.17,2.85Z"/>
            </g>
            <g>
              <polyline class="cls-2" points="302.91 148.36 298.65 173.01 295.39 191.89 292.53 186.34 298.41 174.42"/>
              <path class="cls-2" d="M295.39,192.64c-.28,0-.54-.15-.66-.41l-2.86-5.56c-.11-.21-.11-.46,0-.67l5.83-11.82,4.48-25.95c.07-.41.46-.68.86-.61.41.07.68.46.61.86l-4.5,26.05s0,.01,0,.01l-3.02,17.47c-.05.32-.31.56-.62.61-.04,0-.08,0-.11,0ZM293.37,186.33l1.67,3.24,1.76-10.18-3.43,6.95Z"/>
            </g>
            <g>
              <polyline class="cls-2" points="302.91 145.43 313.57 165.85 321.73 181.49 316 185.4 314.18 167.02"/>
              <path class="cls-2" d="M316,186.15c-.11,0-.22-.02-.32-.07-.24-.11-.4-.34-.43-.6l-1.81-18.24-11.2-21.46c-.19-.37-.05-.82.32-1.01.37-.19.82-.05,1.01.32l11.25,21.57s.01.02.02.03l7.54,14.46c.18.34.07.75-.24.96l-5.73,3.91c-.13.09-.27.13-.42.13ZM315.3,170.79l1.32,13.29,4.14-2.83-5.46-10.46Z"/>
            </g>
            <g>
              <polyline class="cls-2" points="303.98 147.33 327.01 147.5 346.98 147.33 340.89 155.03 328.33 147.51"/>
              <path class="cls-2" d="M340.89,155.78c-.13,0-.26-.03-.38-.11l-12.42-7.43h-1.07s-23.05-.16-23.05-.16c-.41,0-.74-.34-.74-.75,0-.41.34-.74.75-.74h0l23.04.17,19.96-.17c.31,0,.55.16.68.42.13.26.09.57-.09.79l-6.09,7.7c-.15.19-.36.28-.59.28ZM330.96,148.22l9.75,5.84,4.72-5.96-14.47.12Z"/>
            </g>
            <path class="cls-2" d="M317.97,138.24s6.6-3.94,7.94-3.82,4.83,2.16,6.17,3.31c1.34,1.14-14.11.51-14.11.51Z"/>
            <path class="cls-2" d="M300.1,197.06s4.57-4.26,11.32-1.08c6.75,3.18,7.43,7.81,19.12,7.71,11.69-.1,17.84-2.19,21.13-.81v4.68s-12.63,1.59-16.92,1.94c-4.41.36-13.99-.29-16.24-4.39-2.24-4.1-7.25-9.16-17.43-4.2l-.99-3.85Z"/>
            <path class="cls-2" d="M318.86,212.36s8.05,3.94,31.63,2.04v1.59s-27.81,2.54-31.63.32v-3.94Z"/>
            <polygon class="cls-20" points="304.19 182.05 304.19 189.97 314.55 188.77 314.55 179.99 304.19 182.05"/>
            <polygon class="cls-2" points="304.19 182.02 304.19 185.72 308.01 185.24 308.11 181.22 304.19 182.02"/>
            <path class="cls-27" d="M211.52,490.48v28.94c-1.47-.33-2.92-.67-4.36-1.02v-27.93c0-1.2.98-2.18,2.18-2.18.6,0,1.15.24,1.54.64.39.4.64.94.64,1.54Z"/>
            <path class="cls-27" d="M265.01,490.48v28.94c-1.47-.33-2.92-.67-4.36-1.02v-27.93c0-1.2.98-2.18,2.18-2.18.6,0,1.15.24,1.54.64.39.4.64.94.64,1.54Z"/>
            <path class="cls-18" d="M207.97,236.51c-1.2-2.94-3.47-5.04-6.65-5.68-1.41-.29-3.05-.25-4.4.3-1.62-2.37-4.73-3.12-7.14-1.96-1.97-4.68-8.54-6.7-13.68-5.33-4.69,1.25-6.98,5.77-5.89,9.72-1.04.15-1.99.66-2.7,1.72-1.16,1.73-.6,3.64.79,4.68.2.61.73,1.07,1.59.96,10.69-1.3,21.43-1.52,32.14-.67.28.39.73.64,1.39.58.79-.08,1.58-.16,2.37-.24,1.37-.14,1.91-1.3,1.64-2.26.55-.36.85-.99.52-1.8ZM170.8,237.27c-.14-.04-.28-.08-.44-.09.29.02.53.04.75.06-.1.01-.21.02-.31.03Z"/>
            <path class="cls-18" d="M307.29,101.05c-1.01-2.48-2.92-4.24-5.6-4.79-1.19-.24-2.57-.21-3.7.25-1.37-2-3.98-2.63-6.01-1.65-1.66-3.94-7.19-5.65-11.52-4.49-3.95,1.06-5.88,4.86-4.96,8.19-.87.13-1.67.56-2.27,1.45-.98,1.46-.51,3.06.66,3.94.17.52.62.9,1.34.81,9-1.1,18.05-1.28,27.08-.57.23.33.62.54,1.17.48.67-.07,1.33-.14,2-.2,1.15-.12,1.61-1.1,1.38-1.91.46-.3.72-.83.44-1.52ZM275.98,101.69c-.11-.04-.23-.06-.37-.07.24.02.44.03.63.05-.09,0-.17.02-.26.03Z"/>
            <path class="cls-3" d="M-3.09,398.67c.03.16.06.32.08.48.01.07.02.14.03.2-.02-.18-.03-.18,0,0,.03.27.06.55.08.82.04.6.05,1.19.03,1.79,0,.28-.03.55-.05.83-.01.16-.03.32-.05.48,0,.07-.02.14-.02.21.03-.18.03-.18,0,0-.09.59-.21,1.18-.35,1.76-.2.79.25,1.72,1.08,1.91s1.69-.24,1.91-1.08c.68-2.7.75-5.47.26-8.21-.14-.8-1.16-1.32-1.91-1.08-.86.28-1.24,1.05-1.08,1.91h0Z"/>
            <path class="cls-3" d="M12.83,400.15c-.82,1.16-1.65,2.33-2.47,3.49-.22.31-.25.84-.16,1.19s.38.75.71.93c.36.19.8.29,1.19.16s.68-.37.93-.71c.82-1.16,1.65-2.33,2.47-3.49.22-.31.25-.84.16-1.19s-.38-.75-.71-.93c-.36-.19-.8-.29-1.19-.16s-.68.37-.93.71h0Z"/>
            <path class="cls-3" d="M-1.2,449.19c.18,2.29.37,4.57.55,6.86.07.81.67,1.59,1.55,1.55s1.46-.68,1.55-1.55v-.13c.1-.81-.76-1.59-1.54-1.55-.91.04-1.46.68-1.55,1.55v.13h3.09c-.18-2.29-.37-4.57-.55-6.86-.07-.81-.67-1.59-1.55-1.55-.78.04-1.62.68-1.55,1.55h0Z"/>
            <path class="cls-3" d="M12.05,449.95c-.36,1.03-.74,2.05-1.13,3.07-.19.49-.38.98-.58,1.46-.11.26-.21.52-.32.79-.05.11-.09.22-.14.34-.03.07-.06.15-.09.22-.12.26-.05.16.21-.32l.68-.4-.07.02,1.19.16-.03-.02.71.93v-.04c0,.27,0,.55,0,.82v-.04c-.12.23-.25.46-.39.68l.02-.02-1.88.24.03.02c.72.37,1.72.21,2.12-.56.38-.71.21-1.72-.56-2.12l-.03-.02c-.64-.33-1.35-.24-1.88.24-.71.65-.61,1.85.13,2.42s1.76.4,2.32-.33c.3-.39.45-.93.64-1.39.15-.35.29-.71.43-1.07.56-1.41,1.09-2.82,1.6-4.25.27-.77-.31-1.73-1.08-1.91-.87-.2-1.62.26-1.91,1.08h0Z"/>
            <path class="cls-3" d="M362.18,408.22c1.91-.25,3.84-.33,5.76-.23s3.47.36,5.4.85c.98.25,2.15-.32,2.38-1.35s-.3-2.11-1.35-2.38c-3.97-1.02-8.12-1.3-12.19-.77-1,.13-1.99.8-1.94,1.94.04.94.86,2.08,1.94,1.94h0Z"/>
            <path class="cls-3" d="M337.43,418.62c4.28-.49,8.57-.82,12.87-.98,1.01-.04,1.99-.86,1.94-1.94-.05-1.02-.85-1.98-1.94-1.94-4.3.17-8.59.5-12.87.98-1,.11-1.99.81-1.94,1.94.04.95.86,2.06,1.94,1.94h0Z"/>
            <path class="cls-3" d="M321.49,411.96c4.74-1.76,9.73-2.4,14.76-1.91,1.04.1,1.94-.96,1.94-1.94,0-1.13-.89-1.84-1.94-1.94-5.33-.52-10.77.19-15.79,2.05-.98.36-1.65,1.31-1.35,2.38.26.94,1.4,1.72,2.38,1.35h0Z"/>
            <path class="cls-3" d="M300.72,417.14c1.37-.54,2.77-.98,4.2-1.3.68-.15,1.39-.31,2.09-.38-.48.04.12-.01.21-.02.19-.02.38-.04.57-.06.38-.03.76-.06,1.14-.08,1.01-.05,1.99-.85,1.94-1.94-.05-1.01-.85-1.99-1.94-1.94-3.16.16-6.3.8-9.24,1.97-.49.19-.88.42-1.16.89-.24.42-.35,1.03-.2,1.49.29.91,1.38,1.75,2.38,1.35h0Z"/>
            <path class="cls-3" d="M298.62,434.58c3.78-1.88,8.16-3.23,12.28-3.74,1.04-.13,1.94-.8,1.94-1.94,0-.95-.89-2.07-1.94-1.94-4.98.62-9.74,2.03-14.24,4.27-.94.47-1.2,1.79-.7,2.65.56.95,1.71,1.16,2.65.7h0Z"/>
            <path class="cls-3" d="M275.69,429.58c.17-.14.35-.28.52-.42.09-.07.18-.14.26-.21.14-.11.15-.12,0,0,.36-.27.71-.54,1.07-.8.75-.54,1.51-1.06,2.28-1.56,1.52-.99,3.1-1.89,4.72-2.71.91-.46,1.24-1.81.7-2.65-.6-.93-1.68-1.19-2.65-.7-3.44,1.75-6.65,3.88-9.65,6.31-.79.64-.72,2.08,0,2.74.84.77,1.9.68,2.74,0h0Z"/>
            <path class="cls-16" d="M115.33,331.86c1.03,1.62,2.36,2.98,3.94,4.06.4.27,1.04.32,1.49.2s.94-.47,1.16-.89c.24-.45.36-.99.2-1.49l-.2-.46c-.17-.29-.4-.52-.7-.7-.19-.13-.37-.26-.55-.4l.39.3c-.78-.6-1.47-1.3-2.07-2.08l.3.39c-.22-.29-.42-.58-.62-.88-.27-.42-.67-.76-1.16-.89s-1.08-.07-1.49.2-.78.66-.89,1.16-.09,1.05.2,1.49h0Z"/>
            <path class="cls-16" d="M124.4,326.36c.65,1.66,1.29,3.32,1.94,4.98.19.49.43.89.89,1.16.42.24,1.03.35,1.49.2s.92-.44,1.16-.89.38-1.02.2-1.49c-.65-1.66-1.29-3.32-1.94-4.98-.19-.49-.43-.89-.89-1.16-.42-.24-1.03-.35-1.49-.2s-.92.44-1.16.89-.38,1.02-.2,1.49h0Z"/>
            <path class="cls-16" d="M134.93,329.26c.04.15.07.29.09.45l-.07-.52c.04.32.03.64,0,.96l.07-.52c-.05.32-.13.63-.25.93l.2-.46c-.13.32-.3.61-.51.88l.3-.39c-.19.24-.4.45-.64.64l.39-.3c-.06.05-.12.09-.19.13-.42.28-.75.66-.89,1.16-.13.46-.07,1.08.2,1.49s.66.78,1.16.89,1.06.09,1.49-.2.88-.65,1.22-1.07c.22-.28.44-.56.62-.86s.3-.63.43-.95c.4-1.03.42-2.23.14-3.28-.12-.47-.48-.92-.89-1.16s-1.03-.35-1.49-.2-.92.44-1.16.89-.33.98-.2,1.49h0Z"/>
            <path class="cls-16" d="M154.51,356.34c.82,1.38,1.81,2.68,2.92,3.84.34.35.89.57,1.37.57s1.04-.21,1.37-.57.59-.85.57-1.37-.2-.99-.57-1.37c-.46-.48-.89-.98-1.29-1.5l.3.39c-.48-.62-.92-1.27-1.32-1.95-.25-.42-.68-.76-1.16-.89s-1.08-.07-1.49.2-.78.66-.89,1.16-.08,1.04.2,1.49h0Z"/>
            <path class="cls-16" d="M162.15,352.47v4.75c0,.5.22,1.02.57,1.37s.89.59,1.37.57c1.05-.05,1.94-.85,1.94-1.94,0-1.58,0-3.17,0-4.75,0-.5-.22-1.02-.57-1.37s-.89-.59-1.37-.57c-1.05.05-1.94.85-1.94,1.94h0Z"/>
            <path class="cls-16" d="M172.51,355.65c-.04.17-.09.34-.15.5l.2-.46c-.1.24-.23.46-.39.66l.3-.39c-.15.19-.33.37-.52.52l.39-.3c-.2.15-.41.28-.64.37l.46-.2s-.1.04-.14.06c-.25.06-.47.18-.66.35-.21.14-.38.32-.5.54-.14.22-.22.46-.23.72-.06.26-.05.52.03.77.15.47.44.92.89,1.16s1.01.37,1.49.2c.38-.14.78-.3,1.12-.53s.66-.48.93-.78c.19-.21.36-.44.52-.67.07-.1.13-.21.19-.32.19-.36.35-.76.44-1.16.08-.26.09-.52.03-.77-.01-.26-.09-.5-.23-.72-.12-.23-.29-.41-.5-.54-.19-.17-.41-.29-.66-.35l-.52-.07c-.35,0-.68.09-.98.26-.41.26-.79.67-.89,1.16h0Z"/>
            <path class="cls-16" d="M106.67,389.55c1.21,1.49,2.69,2.76,4.31,3.79.42.26,1.03.32,1.49.2s.94-.47,1.16-.89c.51-.96.22-2.07-.7-2.65-.44-.28-.86-.57-1.27-.89l.39.3c-.98-.76-1.86-1.63-2.64-2.59-.29-.36-.92-.57-1.37-.57-.48,0-1.04.21-1.37.57s-.59.85-.57,1.37l.07.52c.09.33.26.61.5.86h0Z"/>
            <path class="cls-16" d="M114.04,385.45c.21.36.4.73.57,1.12l-.2-.46c.31.75.53,1.53.64,2.33l-.07-.52c.06.44.09.89.08,1.33,0,1.01.9,1.98,1.94,1.94s1.93-.85,1.94-1.94c.02-2.01-.53-4.03-1.55-5.75-.25-.42-.69-.76-1.16-.89s-1.08-.07-1.49.2c-.88.57-1.25,1.72-.7,2.65h0Z"/>
            <path class="cls-16" d="M121.92,387.4c.04.32.03.64,0,.96l.07-.52c-.05.36-.15.72-.29,1.05l.2-.46c-.09.2-.19.39-.31.58-.14.22-.22.46-.23.72-.06.26-.05.52.03.77.06.25.18.47.35.66.14.21.32.38.54.5.45.24.99.36,1.49.2s.88-.45,1.16-.89c.21-.33.35-.68.5-1.04.09-.22.16-.44.22-.67.14-.6.22-1.25.15-1.86.01-.27-.05-.52-.17-.75-.08-.24-.21-.45-.4-.62-.18-.19-.38-.32-.62-.4-.23-.12-.48-.18-.75-.17-.5.02-1.02.19-1.37.57l-.3.39c-.18.3-.26.63-.26.98h0Z"/>
            <path class="cls-16" d="M179.17,404.74c.28.65.63,1.27,1.03,1.86.49.7,1.03,1.37,1.65,1.96.36.35.86.57,1.37.57.48,0,1.04-.21,1.37-.57s.59-.85.57-1.37-.19-1.01-.57-1.37-.73-.76-1.05-1.17l.3.39c-.53-.7-.98-1.45-1.33-2.26-.18-.41-.74-.78-1.16-.89-.46-.13-1.08-.07-1.49.2s-.78.66-.89,1.16l-.07.52c0,.35.09.68.26.98h0Z"/>
            <path class="cls-16" d="M186.1,399.41c0,1.58,0,3.17,0,4.75,0,.5.22,1.02.57,1.37s.89.59,1.37.57c1.05-.05,1.94-.85,1.94-1.94,0-1.58,0-3.17,0-4.75,0-.5-.22-1.02-.57-1.37s-.89-.59-1.37-.57c-1.05.05-1.94.85-1.94,1.94h0Z"/>
            <path class="cls-16" d="M195.38,401.47c-.44.34-.78.77-1.1,1.22s-.54.97-.72,1.48c-.08.26-.09.52-.03.77.01.26.09.5.23.72.12.23.29.41.5.54.19.17.41.29.66.35l.52.07c.35,0,.68-.09.98-.26l.39-.3c.24-.24.41-.53.5-.86.03-.09.07-.19.11-.28l-.2.46c.13-.31.31-.6.51-.87l-.3.39c.2-.26.44-.49.7-.69.19-.18.32-.38.4-.62.12-.23.18-.48.17-.75.01-.27-.05-.52-.17-.75-.08-.24-.21-.45-.4-.62l-.39-.3c-.3-.18-.63-.26-.98-.26l-.52.07c-.33.09-.61.26-.86.5h0Z"/>
            <path class="cls-16" d="M333.3,255.81c.63,1,1.2,2.03,1.71,3.09.12.25.24.5.35.75.06.14.13.29.19.43.07.16.06.14-.01-.03.03.07.06.14.09.22.22.54.43,1.1.62,1.65.26.74,1.04,1.31,1.85,1.05.73-.24,1.32-1.05,1.05-1.85-.83-2.38-1.91-4.68-3.25-6.81-.42-.66-1.36-.99-2.05-.54s-.98,1.34-.54,2.05h0Z"/>
            <path class="cls-16" d="M341.62,254.1c.3,1.03.55,2.08.73,3.13.04.24.08.49.12.73.02.17.02.16,0-.03,0,.06.02.12.02.18.02.14.03.29.05.43.06.53.1,1.07.13,1.6.04.78.66,1.54,1.5,1.5.78-.03,1.54-.66,1.5-1.5-.12-2.32-.5-4.63-1.15-6.85-.22-.75-1.07-1.3-1.85-1.05s-1.28,1.04-1.05,1.85h0Z"/>
            <path class="cls-16" d="M350.32,258.72c-.54.7-1.08,1.4-1.62,2.1-.11.17-.17.36-.18.56-.04.2-.04.4.03.6.1.35.36.73.69.9.35.18.77.28,1.16.15l.36-.15c.23-.13.4-.31.54-.54l1.62-2.1c.11-.17.17-.36.18-.56.04-.2.04-.4-.03-.6-.1-.35-.36-.73-.69-.9-.35-.18-.77-.28-1.16-.15l-.36.15c-.23.13-.4.31-.54.54h0Z"/>
            <path class="cls-16" d="M284.18,284.37c.79.79,1.59,1.59,2.38,2.38.27.27.68.44,1.06.44s.81-.16,1.06-.44.46-.66.44-1.06-.15-.77-.44-1.06c-.79-.79-1.59-1.59-2.38-2.38-.27-.27-.68-.44-1.06-.44s-.81.16-1.06.44-.46.66-.44,1.06.15.77.44,1.06h0Z"/>
            <path class="cls-16" d="M291.07,281.69c.17.29.32.58.45.89l-.15-.36c.27.64.45,1.3.55,1.98l-.05-.4c.04.29.06.57.07.86.01.39.16.78.44,1.06.26.26.69.46,1.06.44.79-.04,1.52-.66,1.5-1.5-.05-1.58-.48-3.13-1.27-4.49-.19-.33-.53-.59-.9-.69s-.84-.05-1.16.15c-.68.44-.96,1.33-.54,2.05h0Z"/>
            <path class="cls-16" d="M299.06,283.65c0,.68,0,1.36,0,2.04,0,.38.17.79.44,1.06.14.15.3.25.48.31.18.09.37.14.58.13.39-.02.79-.14,1.06-.44s.44-.65.44-1.06c0-.68,0-1.36,0-2.04,0-.38-.17-.79-.44-1.06-.14-.15-.3-.25-.48-.31-.18-.09-.37-.14-.58-.13-.39.02-.79.14-1.06.44s-.44.65-.44,1.06h0Z"/>
            <path class="cls-16" d="M260.06,258.23c.79,1.37,1.57,2.73,2.36,4.1.39.68,1.37.98,2.05.54s.96-1.32.54-2.05l-2.36-4.1c-.39-.68-1.37-.98-2.05-.54s-.96,1.32-.54,2.05h0Z"/>
            <path class="cls-16" d="M267.02,254.81c.22.52.36,1.06.44,1.61l-.05-.4c.08.59.08,1.17,0,1.76l.05-.4c-.04.29-.1.58-.18.86-.04.13-.07.25-.12.38-.02.07-.05.14-.08.21-.09.27.14-.31.01-.03-.17.38-.27.74-.15,1.16.1.35.36.73.69.9.65.35,1.71.23,2.05-.54.47-1.05.75-2.12.77-3.28.02-1.02-.16-2.08-.55-3.02-.16-.38-.32-.68-.69-.9-.32-.19-.8-.27-1.16-.15s-.71.34-.9.69-.3.79-.15,1.16h0Z"/>
            <path class="cls-16" d="M275.21,255.73c0,.05-.01.1-.02.16l.05-.4c-.07.52-.21,1.03-.41,1.51l.15-.36c-.21.48-.47.94-.79,1.35l.23-.3s-.04.05-.07.08c-.15.14-.25.3-.31.48-.09.18-.14.37-.13.58,0,.37.16.81.44,1.06s.66.46,1.06.44c.37-.02.82-.14,1.06-.44s.5-.64.71-.99.37-.73.53-1.11c.28-.67.41-1.35.49-2.07.04-.36-.2-.82-.44-1.06-.26-.26-.69-.46-1.06-.44s-.79.14-1.06.44l-.23.3c-.14.23-.2.49-.2.76h0Z"/>
            <path class="cls-16" d="M369.08,227.54c.34.57.68,1.13,1.02,1.7.2.33.53.59.9.69.2.06.4.07.6.03.2,0,.39-.07.56-.18.32-.21.6-.51.69-.9s.06-.8-.15-1.16c-.34-.57-.68-1.13-1.02-1.7-.2-.33-.53-.59-.9-.69-.2-.06-.4-.07-.6-.03-.2,0-.39.07-.56.18-.32.21-.6.51-.69.9s-.06.8.15,1.16h0Z"/>
            <path class="cls-7" d="M203.05,319.97c4.72,1.09,9.12,2.9,13.23,5.46.89.55,2.13.19,2.65-.7.54-.93.2-2.1-.7-2.65-4.35-2.71-9.16-4.69-14.16-5.85-1.02-.23-2.1.31-2.38,1.35-.27.98.33,2.15,1.35,2.38h0Z"/>
            <path class="cls-7" d="M230.48,332.7c4.99,1.84,9.79,4.14,14.37,6.85,2.15,1.27,4.1-2.08,1.96-3.35-4.87-2.88-9.99-5.29-15.3-7.24-.98-.36-2.12.4-2.38,1.35-.3,1.08.37,2.02,1.35,2.38h0Z"/>
            <path class="cls-7" d="M257.98,349.16c4.26,2.55,7.82,5.46,11.22,9.2.68.75,2.06.75,2.74,0,.74-.8.73-1.94,0-2.74-3.49-3.83-7.56-7.14-12-9.8-.87-.52-2.17-.22-2.65.7s-.23,2.09.7,2.65h0Z"/>
            <path class="cls-7" d="M278.94,366.56c1.43,1.58,2.83,3.18,4.19,4.81.67.8,1.34,1.61,1.99,2.43.32.4.64.79.95,1.19.18.22.35.45.53.67.08.1.16.2.23.3.03.04.29.37.1.13.32.42.63.74,1.16.89.46.13,1.08.07,1.49-.2.79-.51,1.36-1.79.7-2.65-2.74-3.55-5.6-7-8.61-10.32-.68-.75-2.06-.75-2.74,0-.74.8-.73,1.94,0,2.74h0Z"/>
            <path class="cls-7" d="M293.17,386.1c.23.27.58.58.74.9-.06-.12-.18-.24-.04-.05.06.08.12.16.17.23.11.16.23.31.34.47.46.65.89,1.33,1.28,2.03s.73,1.37,1.05,2.07c.04.09.08.18.12.27.02.05.15.35.05.1s.02.06.04.1c.04.09.07.18.11.27.15.38.29.77.42,1.16.32.96,1.35,1.69,2.38,1.35.95-.31,1.7-1.36,1.35-2.38-1.16-3.42-2.94-6.53-5.28-9.27-.66-.77-2.07-.73-2.74,0-.76.82-.7,1.91,0,2.74h0Z"/>
            <g>
              <g>
                <path class="cls-4" d="M265.78,328.97s-4.41-1.14-4.5-.23c-.19,1.94,4.75,15.02,4.75,15.02l1.65-.41c-.27-3.22-.78-11.75-1.9-14.37Z"/>
                <path class="cls-1" d="M266.62,333.4c4,.96,7,.34,9.84.47,3.6.17,5.8-4.18,5.8-8.05,0,0-14.01.58-18.39.62-1.38.01-2.52,1.04-2.6,2.29,1.01,1.92,3.25,3.99,5.34,4.66Z"/>
                <polygon class="cls-1" points="267.67 343.35 265.67 342.79 264.01 344.21 262.99 344.44 262.99 344.93 267.73 344.99 267.67 343.35"/>
              </g>
              <g>
                <g>
                  <path class="cls-8" d="M274.23,349.09c0-5.8,4.72-10.51,10.51-10.51s10.51,4.72,10.51,10.51-4.72,10.51-10.51,10.51-10.51-4.72-10.51-10.51ZM275.63,349.09c0,5.02,4.09,9.11,9.11,9.11s9.11-4.09,9.11-9.11-4.09-9.11-9.11-9.11-9.11,4.09-9.11,9.11Z"/>
                  <path class="cls-14" d="M284.74,358.85c5.38,0,9.76-4.38,9.76-9.76s-4.38-9.76-9.76-9.76-9.76,4.38-9.76,9.76,4.38,9.76,9.76,9.76ZM275.63,349.09c0-5.02,4.09-9.11,9.11-9.11s9.11,4.09,9.11,9.11-4.09,9.11-9.11,9.11-9.11-4.09-9.11-9.11Z"/>
                </g>
                <g>
                  <path class="cls-8" d="M269.72,350.3c.06,0,.12-.01.17-.03.24-.1.36-.37.26-.61l-1.94-4.85c-.1-.24-.37-.36-.61-.26-.24.1-.36.37-.26.61l1.94,4.85c.07.18.25.29.43.29Z"/>
                  <path class="cls-15" d="M268.16,344.29h-2.46c-.33,0-.6.27-.6.6s.27.6.6.6h2.46c.33,0,.6-.27.6-.6s-.27-.6-.6-.6Z"/>
                </g>
                <path class="cls-8" d="M274.91,340.57c.17,0,.33-.08.42-.23l5.77-9.9c.13-.22.05-.51-.17-.64-.22-.13-.51-.05-.64.17l-5.77,9.9c-.13.22-.05.51.17.64.07.04.15.06.22.06Z"/>
                <path class="cls-15" d="M269.53,349.83s.04,0,.06,0c.24-.02.46-.15.58-.36l9.2-15.74c.13-.23.13-.51,0-.74-.13-.23-.37-.37-.64-.37h-18.54c-.41,0-.74.33-.74.74s.33.74.74.74h17.25l-8.02,13.73-10.24-12.49c-.26-.31-.72-.36-1.04-.1-.31.26-.36.72-.1,1.04l10.91,13.31c.14.17.35.27.57.27Z"/>
                <path class="cls-15" d="M269.53,349.83h15.21c.24,0,.47-.12.61-.32.14-.2.17-.45.08-.68l-6.01-15.74c-.14-.38-.57-.57-.95-.42-.38.14-.57.57-.42.95l5.63,14.75h-14.15c-.41,0-.74.33-.74.74s.33.74.74.74Z"/>
                <g>
                  <path class="cls-8" d="M241.92,349.09c0-5.8,4.72-10.51,10.51-10.51s10.51,4.72,10.51,10.51-4.72,10.51-10.51,10.51-10.51-4.72-10.51-10.51ZM243.33,349.09c0,5.02,4.09,9.11,9.11,9.11s9.11-4.09,9.11-9.11-4.09-9.11-9.11-9.11-9.11,4.09-9.11,9.11Z"/>
                  <path class="cls-14" d="M252.44,358.85c5.38,0,9.76-4.38,9.76-9.76s-4.38-9.76-9.76-9.76-9.76,4.38-9.76,9.76,4.38,9.76,9.76,9.76ZM243.33,349.09c0-5.02,4.09-9.11,9.11-9.11s9.11,4.09,9.11,9.11-4.09,9.11-9.11,9.11-9.11-4.09-9.11-9.11Z"/>
                </g>
                <g>
                  <circle class="cls-8" cx="284.74" cy="349.09" r="1.94"/>
                  <path class="cls-15" d="M283.9,349.09c0,.46.38.84.84.84s.84-.38.84-.84-.38-.84-.84-.84-.84.38-.84.84Z"/>
                  <circle class="cls-15" cx="269.53" cy="349.09" r="3.34"/>
                  <circle class="cls-14" cx="269.53" cy="349.09" r="1.94" transform="translate(-72.99 71.26) rotate(-13.28)"/>
                  <path class="cls-8" d="M269.66,352.67s-.09,0-.14,0c-1.97,0-3.58-1.6-3.58-3.58s1.6-3.58,3.58-3.58c.04,0,.09,0,.14,0l15.23,1.41s.26.03.26.03c1.01.19,1.77,1.08,1.77,2.13s-.76,1.94-1.77,2.13c0,.01-15.23,1.42-15.23,1.42l-.26.02h0ZM270.13,352.16l14.46-1.34s.26-.03.26-.03c.89-.06,1.6-.8,1.6-1.7s-.7-1.64-1.6-1.7c0,0-.27-.02-.26-.03,0,0-14.46-1.34-14.46-1.33l-.26-.03c-.12-.01-.24-.02-.34-.02-1.71,0-3.11,1.39-3.11,3.11s1.39,3.11,3.11,3.11c.11,0,.22,0,.34-.02l.26-.03h0Z"/>
                </g>
                <path class="cls-14" d="M250.68,349.09c0,.97.79,1.76,1.76,1.76s1.76-.79,1.76-1.76-.79-1.76-1.76-1.76-1.76.79-1.76,1.76Z"/>
                <path class="cls-8" d="M260.03,333.29c.15,0,.3-.09.37-.23l1.92-4.03c.06-.13.05-.28-.02-.39-.07-.12-.21-.19-.35-.19h-4.41c-.23,0-.41.18-.41.41s.18.41.41.41h3.77l-1.64,3.44c-.1.2-.01.45.19.54.06.03.12.04.18.04Z"/>
                <path class="cls-15" d="M252.48,349.87c.29,0,.58-.17.71-.45l8.06-17.34c.18-.39.01-.85-.38-1.04-.39-.18-.85-.01-1.04.38l-8.06,17.34c-.18.39-.01.85.38,1.04.11.05.22.07.33.07Z"/>
                <path class="cls-14" d="M276.49,329.76l5.97.63c.49.05.92-.33.92-.82,0-.46-.37-.83-.83-.83h-6c-.28,0-.51.23-.51.51,0,.26.2.48.46.51Z"/>
                <g>
                  <path class="cls-8" d="M271.22,353.92c.06,0,.12-.01.17-.03.24-.1.36-.37.26-.61l-1.94-4.85c-.1-.24-.37-.36-.61-.26-.24.1-.36.37-.26.61l1.94,4.85c.07.18.25.29.43.29Z"/>
                  <path class="cls-15" d="M270.84,354.14h2.46c.33,0,.6-.27.6-.6s-.27-.6-.6-.6h-2.46c-.33,0-.6.27-.6.6s.27.6.6.6Z"/>
                </g>
                <path class="cls-8" d="M257.54,334.25c.23,0,.41-.18.41-.41s-.18-.41-.41-.41c-1.15,0-2.08-.93-2.08-2.08s.93-2.08,2.08-2.08c.23,0,.41-.18.41-.41s-.18-.41-.41-.41c-1.6,0-2.9,1.3-2.9,2.9s1.3,2.9,2.9,2.9Z"/>
              </g>
              <g>
                <polygon class="cls-4" points="261.38 317.02 263.36 318.82 264.46 316.4 262.34 315.42 261.38 317.02"/>
                <path class="cls-4" d="M260.88,317.26c.18.4.74.56,1.34-.07l1.01-1.25-.43-2.04-1.35-1.12-2.13,1.19,1.57,3.3Z"/>
                <path class="cls-1" d="M259.12,313.73l2.09-1.28c.94-.46,1.66.05,1.88,1.24l.21,1.46c.05.37.14.54-.07.79l-.67-.71c.03-.09.05-.19.04-.31-.02-.27-.15-.48-.3-.47-.15,0-.26.23-.25.5,0,.13.04.24.09.33,0,0,.55,1.11.55,1.11.05.1.05.23,0,.33l-.21.39c-.52.86-1.18.81-1.48.41l-.41-.89,1.05-.5c.17-.08.25-.28.18-.45l-.3-.77c-.14-.37-.09-.79.15-1.1l-2.22,1.4c-.27.12-.58-.02-.66-.3l-.38-1.42.71.24Z"/>
                <path class="cls-7" d="M260.96,316.6c.01.21.16.32.35.24.19-.08.35-.31.38-.54l-.73.3Z"/>
                <polygon class="cls-4" points="260.25 315.64 260 316.71 260.58 316.63 260.25 315.64"/>
              </g>
              <g>
                <path class="cls-4" d="M269.86,336.75l-4.07-2.23c-.29.51-.37,1.2-.44,2.11-.14,1.94,5.14,14.89,5.14,14.89l1.64-.46c-.35-3.21-1.08-11.73-2.27-14.32Z"/>
                <path class="cls-1" d="M272.07,339.34c3.88-1.36,4.86-5.09,8.9-6.65,3.37-1.3,2.62-6.66.53-9.9,0,0-11.47,8.06-15.13,10.47-1.15.76-1.29,2.66-1.07,3.25.95.98,4.31,2.64,6.77,2.83Z"/>
                <polygon class="cls-1" points="272.13 351.07 270.5 351.53 270.15 354.28 269.59 355.16 269.95 355.51 273.05 352.49 272.13 351.07"/>
              </g>
              <path class="cls-10" d="M263.36,318.82l1.09-2.43c.8-.56,1.52-.78,3.03-.84,4.48-.15,11.16,2.24,15.51,8.49-.2,3.66-9.46,3.74-10.41,2.64-2.63-3.05-8.65-3.88-9.22-7.87Z"/>
              <g>
                <path class="cls-10" d="M269.04,319.43c-.36,1.2-1.11,2.95-1.85,4.55l-3.13-.98,1.34-4.5c.65-1.32,3.66-.42,3.64.92Z"/>
                <path class="cls-4" d="M263.11,326.23l.96-3.23,3.13.98c-.99,2.15-1.96,4.04-1.96,4.04-2.31,1.91-6.5,3.28-8.25,3.51l-.32-1.36,6.44-3.95Z"/>
                <polygon class="cls-4" points="256.98 330.46 256.67 330.18 255.15 329.64 254.75 329.98 254.23 330.26 254.44 331.9 255.84 331.9 256.99 331.54 256.98 330.46"/>
                <rect class="cls-10" x="265.03" y="320.74" width="1.83" height="3.89" rx=".34" ry=".34" transform="translate(-125.83 468.85) rotate(-70.97)"/>
              </g>
            </g>
            <g>
              <g>
                <path class="cls-1" d="M223.16,308.01c.05-.76.74-1.38,1.57-1.39,2.66-.03,10.65-.87,10.65-.87,0,2.34.09,4.32-2.03,4.87-1.16.3-3.03.32-4.89.08-1.02-.13-1.9.72-1.8,1.75.18,1.71.29,3.44.37,4.4l-1,.25s-2.99-7.93-2.88-9.1Z"/>
                <polygon class="cls-1" points="227.04 316.86 225.82 316.52 224.82 317.38 224.2 317.52 224.2 317.82 227.07 317.85 227.04 316.86"/>
              </g>
              <g>
                <path class="cls-7" d="M229.99,299.43c.67-1.54,3.12-.77,2.62,1.09-.24.84-.74,1.65-1.24,2.73l-2.26-.76.88-3.06Z"/>
                <path class="cls-17" d="M228.5,304.65l.62-2.16,2.26.76c-.5,1.08-.93,1.96-.93,1.96h-.05s.03.01.03.01c-.11.24-.33.47-.66.69-1.58.86-4.17,1.05-5.23.99l-.1-.94,4.06-1.31Z"/>
                <path class="cls-17" d="M224.58,305.99l-.9-.21c-.26-.08-.54,0-.71.2-.18.21-.19.53-.02.75l.23.3,1.36-.14.05-.91Z"/>
              </g>
              <g>
                <path class="cls-17" d="M210.74,317.38l.74-.2c0-.24-.02-.77-.05-1.46l-1.13.45.44,1.2Z"/>
                <polygon class="cls-26" points="211.56 316.95 210.5 316.74 209.56 317.8 208.99 318.03 209.04 318.32 211.55 317.95 211.56 316.95"/>
                <path class="cls-19" d="M208.12,308.16l.05-.23c.13-.35.73-.94,1.52-.78l9.84-.32c-.34,2.24-.57,4.21-3.11,4.33-1.03.05-2.52-.06-4.04-.36-.57-.11-1.08.39-.97.96.26,1.45.45,3.05.51,4.16l-2.2.37s-1.82-7.02-1.59-8.13Z"/>
              </g>
              <g>
                <path class="cls-26" d="M208.59,306.64l2.83-2.21c.06-.05.28-.38.32-.44.33-.59,1.35-2.89,1.72-3.8.36-.88.89-1.47,1.6-1.22,1.45.5-1.16,4.85-1.84,5.8-.06.08-.14.15-.23.2-1.06,1-3.3,2.03-4.21,2.21l-.2-.53Z"/>
                <path class="cls-17" d="M208.68,306.57l.11.6h-.9s-.59.28-.59.28v-.48c.23-.23.77-.42.77-.42l.61.02Z"/>
              </g>
              <g>
                <g>
                  <path class="cls-8" d="M230.95,321.2c0-3.51,2.86-6.37,6.37-6.37,3.51,0,6.37,2.86,6.37,6.37s-2.86,6.37-6.37,6.37c-3.51,0-6.37-2.86-6.37-6.37ZM231.8,321.2c0,3.04,2.48,5.52,5.52,5.52,3.04,0,5.52-2.48,5.52-5.52,0-3.04-2.48-5.52-5.52-5.52-3.04,0-5.52,2.48-5.52,5.52Z"/>
                  <path class="cls-14" d="M237.32,327.11c3.26,0,5.91-2.65,5.91-5.91s-2.65-5.91-5.91-5.91-5.91,2.65-5.91,5.91,2.65,5.91,5.91,5.91ZM231.8,321.2c0-3.04,2.48-5.52,5.52-5.52,3.04,0,5.52,2.48,5.52,5.52,0,3.04-2.48,5.52-5.52,5.52-3.04,0-5.52-2.48-5.52-5.52Z"/>
                </g>
                <g>
                  <path class="cls-8" d="M228.08,321.49s.07,0,.11-.02c.15-.06.22-.22.16-.37l-1.18-2.94c-.06-.15-.22-.22-.37-.16-.15.06-.22.22-.16.37l1.18,2.94c.04.11.15.18.26.18Z"/>
                  <path class="cls-10" d="M227.13,317.85h-1.49c-.2,0-.37.16-.37.37s.16.37.37.37h1.49c.2,0,.37-.16.37-.37,0-.2-.16-.37-.37-.37Z"/>
                </g>
                <path class="cls-8" d="M231.32,315.99c.1,0,.2-.05.25-.14l3.49-6c.08-.14.03-.31-.1-.39-.14-.08-.31-.03-.39.1l-3.49,6c-.08.14-.03.31.1.39.04.02.09.04.14.04Z"/>
                <path class="cls-10" d="M232.9,312.11h-13.92c-.25,0-.45-.2-.45-.45,0-.25.2-.45.45-.45h14.7c.16,0,.31.09.39.22.08.14.08.31,0,.45l-5.57,9.54c-.07.13-.2.21-.35.22-.01,0-.02,0-.04,0,0,0-.01,0-.02,0v-1.3s4.81-8.24,4.81-8.24Z"/>
                <path class="cls-8" d="M216.56,315.99c.1,0,.2-.05.25-.14l3.49-6c.08-.14.03-.31-.1-.39-.14-.08-.31-.03-.39.1l-3.49,6c-.08.14-.03.31.1.39.04.02.09.04.14.04Z"/>
                <path class="cls-14" d="M217.52,309.44l3.62.38c.3.03.55-.2.55-.5,0-.28-.22-.5-.5-.5h-3.64c-.17,0-.31.14-.31.31s.12.29.28.31Z"/>
                <path class="cls-10" d="M219.31,311.89l-5.57,9.54c-.07.13-.2.21-.35.22-.01,0-.02,0-.04,0,0,0-.01,0-.02,0l-.45-.53,5.38-9.21,1.1-.18c0,.06-.03.12-.06.17Z"/>
                <g>
                  <path class="cls-8" d="M213.25,321.49s.07,0,.11-.02c.15-.06.22-.22.16-.37l-1.18-2.94c-.06-.15-.22-.22-.37-.16-.15.06-.22.22-.16.37l1.18,2.94c.04.11.15.18.26.18Z"/>
                  <path class="cls-10" d="M212.31,317.85h-1.49c-.2,0-.37.16-.37.37,0,.2.16.37.37.37h1.49c.2,0,.37-.16.37-.37,0-.2-.16-.37-.37-.37Z"/>
                </g>
                <path class="cls-10" d="M207.04,312.11c-.25,0-.45-.2-.45-.45,0-.25.2-.45.45-.45h12.91c.16,0,.31.09.39.22,0,.01.01.03.02.04l-1.49.63h-11.83Z"/>
                <path class="cls-10" d="M206.19,312.79c.19-.16.47-.13.63.06l6.51,7.95-.45.79c-.05-.03-.1-.07-.14-.11l-6.61-8.06c-.16-.19-.13-.47.06-.63Z"/>
                <path class="cls-10" d="M213.07,321.65h24.25c.15,0,.28-.07.37-.19s.1-.27.05-.41l-3.64-9.54c-.09-.23-.35-.35-.58-.26-.23.09-.35.35-.26.58l3.41,8.93h-23.61c-.25,0-.45.2-.45.45,0,.25.2.45.45.45Z"/>
                <g>
                  <circle class="cls-8" cx="237.32" cy="321.2" r="1.18" transform="translate(-48.39 42.16) rotate(-9.22)"/>
                  <path class="cls-10" d="M236.82,321.2c0,.28.23.51.51.51s.51-.23.51-.51c0-.28-.23-.51-.51-.51s-.51.23-.51.51Z"/>
                  <path class="cls-10" d="M226.08,321.2c0,1.12.91,2.02,2.02,2.02,1.12,0,2.02-.91,2.02-2.02,0-1.12-.91-2.02-2.02-2.02s-2.02.91-2.02,2.02Z"/>
                  <circle class="cls-14" cx="228.11" cy="321.2" r="1.18"/>
                  <path class="cls-8" d="M228.19,323.37s-.06,0-.08,0c-1.19,0-2.17-.97-2.17-2.17s.97-2.17,2.17-2.17c.03,0,.05,0,.08,0l9.23.85s.16.02.15.02c.61.12,1.07.66,1.07,1.29s-.46,1.18-1.07,1.3l-9.23.85h-.15s0,.01,0,.01ZM228.47,323.06s8.76-.81,8.76-.82h.16c.54-.05.97-.5.97-1.04s-.42-1-.97-1.03c0,0-.16-.01-.16-.02,0,0-8.76-.81-8.76-.81l-.16-.02c-.07,0-.14-.01-.21-.01-1.04,0-1.88.84-1.88,1.88s.84,1.88,1.88,1.88c.07,0,.13,0,.21-.01l.16-.02h0Z"/>
                </g>
                <g>
                  <g>
                    <path class="cls-8" d="M196.04,321.2c0-3.51,2.86-6.37,6.37-6.37,3.51,0,6.37,2.86,6.37,6.37,0,3.51-2.86,6.37-6.37,6.37-3.51,0-6.37-2.86-6.37-6.37ZM196.89,321.2c0,3.04,2.48,5.52,5.52,5.52s5.52-2.48,5.52-5.52c0-3.04-2.48-5.52-5.52-5.52-3.04,0-5.52,2.48-5.52,5.52Z"/>
                    <path class="cls-14" d="M202.41,327.11c3.26,0,5.91-2.65,5.91-5.91,0-3.26-2.65-5.91-5.91-5.91-3.26,0-5.91,2.65-5.91,5.91s2.65,5.91,5.91,5.91ZM196.89,321.2c0-3.04,2.48-5.52,5.52-5.52,3.04,0,5.52,2.48,5.52,5.52,0,3.04-2.48,5.52-5.52,5.52s-5.52-2.48-5.52-5.52Z"/>
                  </g>
                  <path class="cls-14" d="M201.34,321.2c0,.59.48,1.07,1.07,1.07s1.07-.48,1.07-1.07c0-.59-.48-1.07-1.07-1.07s-1.07.48-1.07,1.07Z"/>
                </g>
                <path class="cls-14" d="M232.28,309.44l3.62.38c.3.03.55-.2.55-.5,0-.28-.22-.5-.5-.5h-3.64c-.17,0-.31.14-.31.31,0,.16.12.29.28.31Z"/>
                <g>
                  <path class="cls-8" d="M229.28,324.42s.07,0,.11-.02c.15-.06.22-.22.16-.37l-1.18-2.94c-.06-.15-.22-.22-.37-.16-.15.06-.22.22-.16.37l1.18,2.94c.04.11.15.18.26.18Z"/>
                  <path class="cls-10" d="M229.05,324.56h1.49c.2,0,.37-.16.37-.37s-.16-.37-.37-.37h-1.49c-.2,0-.37.16-.37.37,0,.2.16.37.37.37Z"/>
                </g>
                <path class="cls-10" d="M211.26,321.2c0,1.12.91,2.02,2.02,2.02s2.02-.91,2.02-2.02c0-1.12-.91-2.02-2.02-2.02s-2.02.91-2.02,2.02Z"/>
                <circle class="cls-14" cx="213.28" cy="321.2" r="1.18"/>
                <g>
                  <path class="cls-8" d="M214.46,324.42s.07,0,.11-.02c.15-.06.22-.22.16-.37l-1.18-2.94c-.06-.15-.22-.22-.37-.16-.15.06-.22.22-.16.37l1.18,2.94c.04.11.15.18.26.18Z"/>
                  <path class="cls-10" d="M214.22,324.56h1.49c.2,0,.37-.16.37-.37,0-.2-.16-.37-.37-.37h-1.49c-.2,0-.37.16-.37.37,0,.2.16.37.37.37Z"/>
                </g>
                <path class="cls-8" d="M207.32,311.32l.38-.92c.16-.39.05-.84-.27-1.12l-.86-.75c-.11-.09-.17-.23-.17-.37,0-.27.22-.49.49-.49h3.2s0-.5,0-.5h-3.2c-.54,0-.99.44-.99.99,0,.29.12.56.34.75l.86.75c.16.14.21.36.13.56l-.38.92.46.19Z"/>
                <path class="cls-14" d="M208.97,307.89h2.25c.26,0,.47-.21.47-.47s-.21-.47-.47-.47h-2.25c-.26,0-.47.21-.47.47,0,.26.21.47.47.47Z"/>
                <path class="cls-10" d="M202.47,321.6c.18,0,.35-.1.43-.27l4.89-10.5c.11-.24,0-.52-.23-.63-.24-.11-.52,0-.63.23l-4.89,10.5c-.11.24,0,.52.23.63.06.03.13.04.2.04Z"/>
                <path class="cls-8" d="M213.28,319.04h14.83v.28h-14.83c-1.04,0-1.88.84-1.88,1.88,0,1.04.84,1.88,1.88,1.88,0,0,14.83,0,14.83,0v.28h-14.83c-1.19,0-2.17-.97-2.17-2.17,0-1.19.97-2.17,2.17-2.17Z"/>
              </g>
              <g>
                <g>
                  <path class="cls-1" d="M226.24,311.26c2.22-1.46,9.17-6.34,9.17-6.34,1.27,1.97,1.57,4.91-.32,6-1.49.86-4.19,2.15-6.54,2.98.61,1.97.99,6.39,1.18,8.16l-.99.28s-2.7-7.07-3.11-8.32c-.35-1.07-.1-2.29.6-2.75Z"/>
                  <polygon class="cls-1" points="229.73 322.06 228.74 322.33 228.53 324 228.2 324.53 228.41 324.75 230.29 322.91 229.73 322.06"/>
                </g>
                <g>
                  <path class="cls-8" d="M224.28,310.85l.38-.92c.16-.39.05-.84-.27-1.12l-.86-.75c-.11-.09-.17-.23-.17-.37,0-.27.22-.49.49-.49h1.22s0-.5,0-.5h-1.22c-.54,0-.99.44-.99.99,0,.29.12.56.34.75l.86.75c.16.14.21.36.13.56l-.38.92.46.19Z"/>
                  <path class="cls-14" d="M224.45,307.42h1.75c.26,0,.47-.21.47-.47,0-.26-.21-.47-.47-.47h-1.75c-.26,0-.47.21-.47.47,0,.26.21.47.47.47Z"/>
                  <path class="cls-10" d="M223.89,309.96c.11-.24.39-.34.63-.23.24.11.34.39.23.63l-.4.86h-1.04s.59-1.26.59-1.26Z"/>
                </g>
                <path class="cls-7" d="M230.04,299.09l1.44-.85c.59.07,1.5.25,2.21.83,2.1,1.72,3.65,4.83,3.13,9.42l-4.85-.51c-.85-.21-1.45-.98-1.44-1.85.02-2.44-1.35-4.13-.49-7.04Z"/>
                <g>
                  <path class="cls-7" d="M230.4,299.71c.29-1.65,2.85-1.49,2.8.44-.04.88-.33,1.78-.56,2.95l-2.37-.2.13-3.18Z"/>
                  <path class="cls-17" d="M230.21,304.67l.07-1.78,2.37.2c-.23,1.17-.44,2.12-.44,2.12-.11.24-.33.47-.66.69-1.58.86-4.17,1.05-5.23.99l-.1-.94,3.99-1.28Z"/>
                  <path class="cls-17" d="M226.36,305.99l-.9-.21c-.26-.08-.54,0-.71.2l-.31.37.52.69,1.36-.14.05-.91Z"/>
                </g>
                <g>
                  <polygon class="cls-17" points="229.73 297.71 230.04 299.09 231.48 298.24 230.86 296.83 229.73 297.71"/>
                  <path class="cls-17" d="M229.32,297.78c.01.26.28.48.76.26l.76-.56.3-1.15-.5-.93-1.45.18.13,2.19Z"/>
                  <polygon class="cls-17" points="229.48 297.31 229.05 297.18 229.3 296.55 229.44 296.5 229.48 297.31"/>
                  <path class="cls-1" d="M230.19,297.3v-1.08s-.24-.13-.24-.13l-.72.16c-.52.1-.86-.53-.78-.91.15.06.34.07.57.04l1.56-.2c.63-.05.91.4.76,1.11l-.21.86c-.06.23.26.42.04.51l-.33-.43c-.08-.1-.1-.24-.06-.36.05-.15.02-.3-.06-.33-.09-.03-.2.07-.25.22-.02.06-.01.13,0,.19.05.17.11.35.14.53.02.12-.02.25-.12.33l-.27.25c-.48.36-.84.19-.92-.11l-.03-.58.89-.06Z"/>
                  <path class="cls-7" d="M229.4,297.5c-.03.12.04.21.16.2.12-.01.26-.12.32-.24l-.47.04Z"/>
                </g>
              </g>
              <g>
                <g>
                  <path class="cls-17" d="M214.15,323.18l.79-.11c.03-.24.08-.8.12-1.5l-1.22.32.31,1.29Z"/>
                  <polygon class="cls-26" points="214.98 322.85 213.97 322.66 213.05 324.07 212.52 324.4 212.62 324.69 215.11 323.86 214.98 322.85"/>
                  <path class="cls-15" d="M212.32,312.38s0-.1,0-.15c.03-.37.21-.81.64-1.09l2.67-2.52c.32-.42.59-1.57.28-3.36l4.1-2.37c2.1,2.54,1.96,6.25.25,7.35-1.41.91-2.91,2.05-5.12,2.98.37,1.99.5,6.8.38,8.62l-2.06.11c-.68-3.59-1.27-6.7-1.15-9.57Z"/>
                </g>
                <path class="cls-1" d="M213.57,296.05c-.44,2.3.69,2.01,1.08,2.61.44.68,1.42,1.03,2.11.47.22-.18,1.31-1.47.76-1.79l-3.11-1.79-.84.5Z"/>
                <path class="cls-26" d="M218.1,299.16c-.88-.91-2.58-.69-3.7-.2-.31.14-.56.53-.44.9.42,1.35,2.2,6.05,1.84,7.31,3.56,0,5.57-.36,6.19-1.88-.94-1.52-1.63-3.8-3.89-6.12Z"/>
                <g>
                  <path class="cls-17" d="M214.78,297.92c.55.13.61.75.62,1.33l.78-.69-.62-1.79-.78,1.15Z"/>
                  <path class="cls-17" d="M214.23,297.71c.09.23.35.39.75.1l.39-.43c.13-.14.2-.32.21-.51l.03-.49c.01-.21-.06-.42-.19-.58l-.06-.07c-.22-.26-.58-.36-.9-.25h-.02c-.42.15-.59.58-.54,1.01.06.43.17.81.33,1.23Z"/>
                  <path class="cls-1" d="M217.63,295.88l.67-.28c.27-.11.72-.01.9.21.21.26.57.89-.05,1.82-.52.77-3.37,1.29-4.15-.97l1.34-1.11c.42.27.86.49,1.3.32Z"/>
                  <path class="cls-1" d="M213.21,294.73c.56,0,1.18.49,1.56.39l.28-.07c.57-.16,1.24.09,1.37.76.03.17.06.32.09.45l-1.52.4c-.06-.32-.34-.54-.65-.54h-.54c-1.3,0-1.49-1.39-.59-1.39Z"/>
                  <path class="cls-7" d="M214.23,297.48c-.03.12.04.21.16.2.12-.01.26-.12.32-.24l-.47.04Z"/>
                  <polygon class="cls-17" points="214.02 296.84 213.91 297.36 214.18 297.39 214.02 296.84"/>
                </g>
                <g>
                  <path class="cls-26" d="M211.42,306.64l2.83-2.21c.06-.05.11-.11.15-.17.18-.28,1.07-3.05,1.36-4.09.26-.92.73-1.55,1.45-1.39,1.49.34-.63,4.95-1.2,5.96-.03.05-.06.09-.1.13,0,0,0,0,0,.01,0,0-.01.01-.02.02-1.03,1.02-3.34,2.09-4.27,2.27l-.2-.53Z"/>
                  <path class="cls-17" d="M211.51,306.57l.11.6-.9-.03-.59.32-.13-.45c-.01-.18.9-.45.9-.45l.61.02Z"/>
                </g>
              </g>
            </g>
            <g>
              <path class="cls-18" d="M20.61,404.66s-5.85-4.3-5.49-18.35c.35-14.05-.65-23.48,14.2-27.98,5.44-6.99,4.22-13.97,11.84-19.6,7.62-5.63,21.08,5.13,21.26,17.64.18,12.51,5.48,13.66,6.28,20.35.8,6.69-.15,31.76-11.98,33.22-11.83,1.46-33.8.55-36.1-5.28Z"/>
              <path class="cls-2" d="M50.37,353.17c1.26-.18,2.3-.38,3.12-.57.21-.05.47-.07.78-.07s.65.07,1.02.22c.37.14.62.34.75.59s.2.48.2.69-.1.38-.29.49c-.19.12-.46.16-.81.12-1.18-.12-2.79-.17-4.82-.17.06,1.23.09,2.18.09,2.86s-.05,1.12-.15,1.31-.2.41-.3.66-.18.46-.23.63c-.05.17-.11.26-.2.26s-.23-.2-.44-.59-.35-.88-.43-1.45c-.08-.57-.13-1.72-.14-3.44-.66.14-1.29.34-1.89.6-.6.26-1.49.72-2.67,1.38-.31.17-.53.26-.66.26-.27,0-.6-.36-1-1.08-.4-.72-.6-1.11-.6-1.18s.02-.1.07-.1.14.03.3.08c.15.05.27.08.37.08s.28-.06.55-.17c.27-.12,2.1-.48,5.52-1.09.07-1.05.1-1.73.1-2.03,0-.52-.09-.78-.28-.78-.07,0-.16.05-.27.16-.11.11-.21.16-.3.16s-.14-.05-.14-.14.12-.33.36-.72c.24-.39.5-.58.76-.58s.61.08,1.02.25c.42.17.67.42.77.76.1.34.15.59.15.75,0,.07-.04.2-.12.4-.08.2-.14.39-.17.57-.03.19-.05.47-.03.87Z"/>
              <path class="cls-2" d="M45.74,365.74c0,.14-.03.25-.08.34-.05.09-.14.18-.26.27-.12.09-.23.21-.34.36-.11.16-.18.3-.22.43-.08.26-.29.51-.65.75s-.64.34-.84.29c-.17-.03-.31-.05-.42-.05s-.2,0-.24.03c-.05.02-.09.03-.13.03s-.05-.08-.05-.25c0-.59.16-.91.47-.94.14-.02.34-.28.59-.77.25-.49.38-.83.38-1.02,0-.02-.02-.06-.07-.13s-.07-.11-.07-.15.02-.06.05-.06.08,0,.13.02c.05.02.1.02.15.02s.09,0,.14-.03c.05-.02.11-.03.19-.03.27,0,.56.1.85.29.29.19.44.4.44.61ZM49.29,365.05s.11.03.18.08c.08.05.23.09.48.11,1.25.08,1.88.64,1.88,1.67,0,.21-.07.46-.21.75-.14.29-.29.43-.44.43-.07,0-.15-.02-.24-.07-.1-.05-.18-.12-.24-.22-.07-.1-.19-.23-.36-.37-.17-.14-.46-.36-.86-.65-.16-.12-.24-.21-.24-.27s.05-.09.16-.09l.26.03s.07-.03.07-.09-.06-.24-.19-.53c-.13-.29-.22-.5-.29-.61-.02-.03-.03-.07-.03-.11s.03-.07.09-.07Z"/>
              <path class="cls-2" d="M49.65,378.27c.08,0,.37-.02.87-.08.5-.06.76-.1.8-.12.36-.1.61-.15.75-.15.37,0,.68.12.93.36.25.24.37.45.37.64,0,.16-.26.25-.77.25s-.87-.04-1.07-.12-.41-.12-.62-.12c-.31,0-.86.08-1.66.23-.44,1.6-.92,2.59-1.43,2.97-.51.38-1.01.57-1.51.57-.25,0-.42-.04-.51-.11-.09-.07-.14-.14-.14-.19s.09-.08.27-.08.42-.14.71-.42c.29-.28.53-.55.72-.81.19-.26.41-.78.65-1.55-.38.11-.73.27-1.07.45s-.56.34-.67.47c-.11.12-.24.23-.37.31-.14.08-.24.13-.31.13-.36.05-.59.1-.69.16s-.17.09-.19.09c-.13,0-.26-.16-.4-.47-.13-.32-.2-.55-.2-.71s.09-.23.28-.23h.22c.16.01.39-.04.68-.15,1.29-.47,2.2-.77,2.74-.91-.1-.19-.15-.32-.15-.39s.03-.13.08-.19c.05-.06.15-.14.3-.23-.3-.57-.56-.91-.8-1.03-.37.28-.57.53-.6.76-.03.23-.1.4-.22.5-.11.1-.21.15-.3.15-.22,0-.4-.2-.54-.59-.14-.39-.21-.72-.21-1,0-.12.04-.21.13-.26.09-.05.16-.27.22-.66.02-.12.04-.21.08-.26.04-.05.12-.08.26-.08s.22.11.24.33c.02.22.07.36.15.42.27-.07.52-.17.76-.31.24-.14.64-.35,1.22-.62,0-.41-.03-.69-.07-.84-.04-.15-.11-.27-.23-.38-.12-.11-.21-.27-.28-.5-.07-.23-.11-.39-.11-.5s.02-.15.06-.15.1.02.18.07c.08.05.15.08.21.09.06.01.15.02.26.02s.24.03.37.1.29.19.49.37.33.32.4.43.11.22.11.33-.05.36-.15.72c-.02.05-.04.26-.06.63-.02.37-.03.61-.02.71.17-.11.39-.34.65-.68.26-.34.39-.6.39-.79,0-.07-.03-.15-.08-.22s-.08-.13-.08-.17.03-.07.09-.09c.06-.02.12-.03.17-.03.14,0,.33.09.57.26.24.18.4.37.49.6s.12.37.12.46-.04.15-.11.2c-.07.04-.23.1-.48.17s-.48.17-.71.29-.58.38-1.08.76c.02.32-.01.71-.11,1.17ZM48.66,377.09c-.02-.16-.02-.4-.02-.73s0-.59.01-.78c-.51.34-.85.69-1.03,1.07.2.17.37.29.52.37.15.07.33.1.52.07ZM50.15,380.25s.1.01.17.04c.06.02.16.04.31.04s.41.08.81.24c.39.16.7.4.93.72.22.32.34.68.34,1.08,0,.16-.03.28-.09.36-.06.09-.14.13-.25.13s-.38-.15-.81-.45-.79-.68-1.08-1.13-.44-.75-.44-.9c0-.08.04-.12.12-.12Z"/>
              <path class="cls-2" d="M49.71,393.37c.08-.58.11-1.02.11-1.32s-.03-.55-.09-.74c-.06-.19-.17-.34-.31-.46s-.22-.25-.22-.39.07-.25.22-.34c.14-.09.31-.13.49-.13.34,0,.63.16.87.48.24.32.37.66.37,1.02,0,.07,0,.13-.01.2-.14.87-.23,1.58-.24,2.13s-.17,1.12-.44,1.72c-.27.6-.49.9-.65.9-.11,0-.22-.12-.33-.37-.11-.25-.17-.6-.17-1.05,0-.14,0-.3.01-.47-.59-.17-1.13-.26-1.62-.26s-1.01.05-1.59.14c0,.23,0,.39-.01.49-.02.1-.07.14-.16.14s-.33-.14-.72-.43c-.73.18-1.27.36-1.61.53s-.76.47-1.25.88c-.37.32-.69.48-.95.48s-.49-.17-.68-.51c-.2-.34-.3-.57-.3-.68s.06-.22.17-.34c.26-.26.39-.6.39-1.02s-.09-.89-.27-1.4c-.08-.21-.11-.45-.11-.73s.08-.55.25-.83.33-.42.5-.42c.07,0,.12.02.15.06.03.04.03.1,0,.18-.04.08-.06.21-.06.38s.09.41.27.71c.43.76.65,1.51.65,2.26.79-.19,1.57-.41,2.36-.65.02-.62.03-1.41.04-2.37l.03-2.56c0-.35-.05-.76-.15-1.23-.1-.47-.19-.77-.26-.93-.07-.15-.11-.26-.11-.32s.06-.09.19-.09.39.07.79.21c.4.14.71.35.94.63.22.28.34.67.34,1.16,0,.19-.02.41-.06.66-.26,1.69-.37,3.2-.34,4.55.35-.09.8-.13,1.34-.13s1.08.04,1.63.11c-.04-.2-.06-.34-.06-.42s.01-.12.04-.12.09.11.18.33c.09.22.25.34.47.36Z"/>
            </g>
            <path class="cls-24" d="M199.81,479.61h-11.63v-30.92h11.63v30.92ZM189.73,478.06h8.53v-27.82h-8.53v27.82Z"/>
            <rect class="cls-24" x="189.19" y="456.24" width="9.85" height="1.55"/>
            <rect class="cls-24" x="189.19" y="463.33" width="9.85" height="1.55"/>
            <rect class="cls-24" x="189.19" y="470.42" width="9.85" height="1.55"/>
            <path class="cls-24" d="M102.92,479.61h-11.63v-30.92h11.63v30.92ZM92.83,478.06h8.53v-27.82h-8.53v27.82Z"/>
            <rect class="cls-24" x="92.29" y="456.24" width="9.85" height="1.55"/>
            <rect class="cls-24" x="92.29" y="463.33" width="9.85" height="1.55"/>
            <rect class="cls-24" x="92.29" y="470.42" width="9.85" height="1.55"/>
            <path class="cls-24" d="M248.62,479.61h-11.63v-30.92h11.63v30.92ZM238.54,478.06h8.53v-27.82h-8.53v27.82Z"/>
            <rect class="cls-24" x="238" y="456.24" width="9.85" height="1.55"/>
            <rect class="cls-24" x="238" y="463.33" width="9.85" height="1.55"/>
            <rect class="cls-24" x="238" y="470.42" width="9.85" height="1.55"/>
            <path class="cls-24" d="M53.88,479.61h-11.63v-30.92h11.63v30.92ZM43.8,478.06h8.53v-27.82h-8.53v27.82Z"/>
            <rect class="cls-24" x="43.26" y="456.24" width="9.85" height="1.55"/>
            <rect class="cls-24" x="43.26" y="463.33" width="9.85" height="1.55"/>
            <rect class="cls-24" x="43.26" y="470.42" width="9.85" height="1.55"/>
            <polygon class="cls-27" points="328.34 496.15 173.21 496.15 189.26 481.61 316.59 481.61 328.34 496.15"/>
            <polygon class="cls-27" points="-3.83 496.15 118.85 496.15 102.81 481.61 7.91 481.61 -3.83 496.15"/>
            <path class="cls-2" d="M405.17,528.95c-3.26-.14-9.38,1.81-18.9,5.08-1.38.48-2.83.98-4.36,1.51-5.83,2.03-12.72,4.43-20.78,7.08-1.42.47-2.87.95-4.36,1.43-6.21,2.01-13.06,4.14-20.58,6.34-1.43.42-2.88.84-4.36,1.26-6.39,1.83-13.25,3.7-20.58,5.6-1.43.37-2.88.74-4.36,1.11-2.45.62-4.95,1.23-7.5,1.85-4.39,1.06-8.75,1.91-13.08,2.58-1.46.23-2.91.43-4.36.62-6.98.89-13.85,1.31-20.58,1.36-1.46.02-2.91,0-4.36-.02-7.06-.11-13.94-.62-20.58-1.41l-4.36-.57c-7.18-1-14.07-2.31-20.58-3.79-1.47-.33-2.92-.67-4.36-1.02-24.11-5.84-42.63-13.53-51.58-14.84-18.31-2.67-46.84-15.6-46.84-15.6,0,0,21.67,2.71,43.45-.82,27.91-4.53,99.01-26.25,144.99-29.16,45.97-2.9,108,31.4,108,31.4Z"/>
            <path class="cls-27" d="M211.52,530.04v28.94c-1.47-.33-2.92-.67-4.36-1.02v-27.93c0-1.2.98-2.18,2.18-2.18.6,0,1.15.24,1.54.64.39.4.64.94.64,1.54Z"/>
            <path class="cls-27" d="M232.1,562.78v-27.69c0-1.2.98-2.18,2.18-2.18.6,0,1.15.25,1.54.64.4.4.64.95.64,1.54v28.25l-4.36-.57Z"/>
            <path class="cls-27" d="M261.39,538.45v26.32c-1.46.02-2.91,0-4.36-.02v-26.3c0-1.2.98-2.18,2.18-2.18.6,0,1.15.25,1.54.64.39.4.64.95.64,1.54Z"/>
            <path class="cls-27" d="M286.33,530.04v32.76c-1.46.23-2.91.43-4.36.62v-33.38c0-1.2.98-2.18,2.18-2.18.6,0,1.15.24,1.54.64.4.4.64.94.64,1.54Z"/>
            <path class="cls-27" d="M311.26,523.05v34.21c-1.43.37-2.88.74-4.36,1.11v-35.31c0-1.2.98-2.18,2.18-2.18.6,0,1.15.24,1.54.64.39.4.64.94.64,1.54Z"/>
            <path class="cls-27" d="M336.2,526.55v23.85c-1.43.42-2.88.84-4.36,1.26v-25.11c0-1.2.98-2.18,2.18-2.18.6,0,1.15.25,1.54.64.4.4.64.95.64,1.54Z"/>
            <path class="cls-27" d="M361.14,530.04v12.59c-1.42.47-2.87.95-4.36,1.43v-14.01c0-1.2.98-2.18,2.18-2.18.6,0,1.15.24,1.54.64.39.4.64.94.64,1.54Z"/>
            <path class="cls-27" d="M34.61,491.86v11.17c-1.53-.24-3.09-.66-4.36-.88v-10.29c0-.44.98-.79,2.18-.79.6,0,1.15.09,1.54.23.39.14.64.34.64.56Z"/>
            <path class="cls-27" d="M88.09,492.86v26.21c-1.36-.51-3.1-1.26-4.36-1.63v-24.58c0-.99.98-1.79,2.18-1.79.6,0,1.15.2,1.54.52.39.33.64.77.64,1.27Z"/>
            <path class="cls-3" d="M-214.79,533.11s61.75,4.75,143.08-26.12c81.34-30.87,182.4,22.58,191.77,25.22,0,0-27.31-8-51.65,5.65-24.34,13.66-93.21,35.63-161.49,26.13-68.28-9.5-121.71-30.88-121.71-30.88Z"/>
            <path class="cls-20" d="M-2.05,517.85c.44.02.88.05,1.32.1.19.02.38.04.57.06.13.01.25.03.38.05-.2-.03-.19-.02.05,0,.81.13,1.62.27,2.42.46s1.59.41,2.38.66c.42.14.84.28,1.25.44.18.07.35.14.53.21.12.05.23.09.35.14-.17-.07-.15-.06.06.03.93.4,2.12.31,2.65-.7.44-.84.3-2.22-.7-2.65-3.59-1.55-7.35-2.47-11.27-2.68-1.01-.05-1.98.93-1.94,1.94.05,1.1.85,1.88,1.94,1.94h0Z"/>
            <path class="cls-20" d="M-2.3,530.94c5.33.57,10.6,1.53,15.8,2.83,2.42.61,3.45-3.13,1.03-3.74-5.53-1.39-11.16-2.36-16.83-2.97-1.04-.11-1.94.97-1.94,1.94,0,1.14.89,1.83,1.94,1.94h0Z"/>
            <path class="cls-20" d="M19.08,513.83c1.77.27,3.51.68,5.21,1.24.41.14.82.28,1.22.43.23.09.46.18.69.27.07.03.55.23.22.09.85.37,1.68.77,2.5,1.21.89.48,2.15.25,2.65-.7s.26-2.14-.7-2.65c-3.35-1.8-7-3.06-10.76-3.63-1-.15-2.13.25-2.38,1.35-.21.92.28,2.22,1.35,2.38h0Z"/>
            <g>
              <path class="cls-20" d="M48.95,545.13l-.14.05c.25-.09.48-.08.69.03.11.05.12.06.02,0-.07-.04-.14-.08-.2-.12-.09-.06-.17-.12-.25-.18.21.15.11.09-.04-.03-.36-.29-.71-.61-1.04-.94-.35-.35-.68-.71-1-1.1-.03-.04-.3-.38-.14-.17.14.19-.06-.08-.08-.12-.15-.21-.3-.42-.44-.64-.25-.39-.49-.8-.71-1.21-.11-.21-.21-.42-.31-.63,0,0-.2-.45-.09-.2s-.06-.15-.08-.2c-.17-.44-.31-.88-.44-1.33-.07-.25-.13-.5-.19-.76-.01-.06-.02-.26-.06-.31.12.13-.01.66-.09.77l-.7.7-.6.17-.98-.26c.17.08.13.04,0-.04.13.07.13.16,0,0,.15.2.29.4.43.61.25.37.48.74.7,1.12.47.82.9,1.66,1.32,2.5.83,1.66,1.65,3.33,2.79,4.81l2.19-2.85c-.08-.02-.16-.04-.24-.06-.98-.24-2.15.31-2.38,1.35s.3,2.13,1.35,2.38c.08.02.16.04.24.06.77.19,1.55-.07,2.04-.69.43-.55.62-1.55.15-2.15-1.15-1.5-1.98-3.2-2.82-4.88-.41-.82-.82-1.64-1.28-2.43-.51-.88-1.08-1.85-1.8-2.56-1.34-1.33-3.63-.84-4.07,1.07-.24,1.03.17,2.25.5,3.23.64,1.92,1.61,3.64,2.86,5.23.6.76,1.26,1.45,2,2.08,1.06.9,2.45,2.03,3.93,1.44.94-.37,1.7-1.31,1.35-2.38-.3-.91-1.37-1.75-2.38-1.35h0Z"/>
              <path class="cls-20" d="M52.28,546.95c-.22-3.72.27-7.48,1.04-11.11.67-3.17,1.7-6.38,3.83-8.88h-2.74c-.24-.64-.32-.69-.26-.15,0,.24,0,.48,0,.73-.01.36-.03.72-.06,1.09-.06.79-.18,1.58-.33,2.36-.32,1.68-.76,3.32-1.23,4.96-.97,3.37-2.08,6.69-3.32,9.97l3.54-.46c-.14-.08-.19-.19-.17-.32-.58-2.42-4.32-1.4-3.74,1.03.11.45.28.87.56,1.25,1.02,1.39,2.93,1.16,3.54-.46,1.41-3.73,2.67-7.53,3.72-11.38.52-1.93.95-3.87,1.19-5.86.21-1.77.6-4.06-.7-5.48-.67-.73-2.08-.77-2.74,0-2.51,2.95-3.93,6.53-4.76,10.28-.89,4.04-1.49,8.31-1.24,12.46.15,2.48,4.03,2.5,3.88,0h0Z"/>
              <path class="cls-20" d="M54.09,548.25c.04-.14.08-.28.12-.41.05-.15.15-.34.03-.09.13-.26.26-.51.41-.75s.32-.48.49-.72c-.16.22-.01.02.07-.09.09-.11.18-.23.28-.34.75-.9,1.51-1.79,2.31-2.64s1.58-1.64,2.47-2.36c.11-.09.3-.24.08-.07.11-.09.23-.17.35-.26.23-.17.47-.33.72-.49.51-.33,1.05-.61,1.6-.87l-2.92-1.67c0-.08.19-.44.08-.28-.08.12-.14.24-.22.35-.16.24-.33.47-.5.7-.03.04-.3.41-.16.22s-.14.18-.17.21c-.18.22-.36.45-.55.66-.75.87-1.55,1.7-2.4,2.47-.43.39-.86.76-1.31,1.12-.09.07-.18.14-.27.21.32-.25-.13.09-.16.11-.21.15-.42.3-.63.45-.97.67-1.98,1.28-3.02,1.83.78.1,1.57.2,2.35.3.12.13.2.3.23.48.02.11-.07.51.05.21.38-.94-.41-2.17-1.35-2.38-1.12-.25-1.98.34-2.38,1.35-.43,1.07-.03,2.27.72,3.08.6.65,1.6.69,2.35.3,2.33-1.22,4.5-2.77,6.43-4.57.92-.86,1.79-1.79,2.58-2.77.93-1.15,2.22-2.5,2.21-4.08,0-.68-.37-1.33-.96-1.67-.64-.38-1.31-.3-1.96,0-2.37,1.09-4.37,2.87-6.12,4.78-.83.9-1.64,1.83-2.41,2.78-.94,1.16-1.79,2.37-2.17,3.84-.26.98.33,2.15,1.35,2.38s2.11-.3,2.38-1.35h0Z"/>
            </g>
            <g>
              <path class="cls-27" d="M194.9,63.47s-12.83,28.8-12.51,28.8l32.48,13.14,8.09-28.38-28.07-13.56Z"/>
              <polygon class="cls-3" points="182.39 92.27 222.97 77.03 214.87 105.41 182.39 92.27"/>
              <path class="cls-3" d="M182.39,92.27s-5.57,7.92,0,14.02c5.56,6.1,0,16.71,0,16.71l2.47.63s3.83-13.53-.69-18.23c-4.52-4.69-1.77-13.14-1.77-13.14Z"/>
              <path class="cls-3" d="M222.52,77.03s9.38,2.4,9.12,10.65,10.86,12.7,10.86,12.7l-1.47,2.09s-11.7-7.8-11.32-14.3c.39-6.5-7.19-11.14-7.19-11.14Z"/>
              <path class="cls-2" d="M269.04,172.9c-.32,0-.63-.16-.8-.46-12.48-21.27-17.06-23.56-32.21-31.14-3.83-1.92-8.18-4.09-13.51-6.99-5.87-3.19-9.44-7.32-10.61-12.26-1.81-7.63,2.78-14.34,2.98-14.63.29-.42.87-.52,1.29-.23.42.29.52.87.23,1.29-.04.06-4.31,6.34-2.69,13.16,1.05,4.4,4.31,8.12,9.69,11.05,5.3,2.88,9.63,5.05,13.45,6.96,15.12,7.57,20.22,10.11,32.98,31.86.26.44.11,1.01-.33,1.27-.15.09-.31.13-.47.13Z"/>
              <polygon class="cls-2" points="214.87 105.41 203.82 84.22 222.97 77.03 214.87 105.41"/>
            </g>
            <g>
              <path class="cls-27" d="M117.08,185.1s-6.41,14.4-6.25,14.4l16.24,6.57,4.05-14.19-14.03-6.78Z"/>
              <polygon class="cls-3" points="110.83 199.5 131.12 191.88 127.07 206.07 110.83 199.5"/>
              <path class="cls-3" d="M110.83,199.5s-2.78,3.96,0,7.01c2.78,3.05,0,8.36,0,8.36l1.24.32s1.91-6.77-.35-9.11-.89-6.57-.89-6.57Z"/>
              <path class="cls-3" d="M130.89,191.88s4.69,1.2,4.56,5.33,5.43,6.35,5.43,6.35l-.73,1.04s-5.85-3.9-5.66-7.15c.19-3.25-3.6-5.57-3.6-5.57Z"/>
              <path class="cls-2" d="M154.16,239.82c-.16,0-.31-.08-.4-.23-6.24-10.64-8.53-11.78-16.1-15.57-1.92-.96-4.09-2.05-6.76-3.5-2.94-1.6-4.72-3.66-5.3-6.13-.9-3.82,1.39-7.17,1.49-7.31.15-.21.43-.26.64-.12.21.15.26.43.12.64-.02.03-2.16,3.17-1.35,6.58.52,2.2,2.15,4.06,4.84,5.52,2.65,1.44,4.82,2.53,6.73,3.48,7.56,3.78,10.11,5.06,16.49,15.93.13.22.06.5-.17.63-.07.04-.15.06-.23.06Z"/>
              <polygon class="cls-2" points="127.07 206.07 121.55 195.48 131.12 191.88 127.07 206.07"/>
            </g>
            <path class="cls-25" d="M27.8,299.56c-1.65-.24-3.28-.87-4.45-2.06-1.02-1.03-1.61-2.43-1.89-3.85-.29-1.47-.17-3.19.96-4.18,1.1-.96,2.84-.86,4.12-.15,1.28.71,2.21,1.9,3.11,3.06-.6-2.37-.37-4.94.63-7.16.42-.93,1.02-1.85,1.92-2.33,1.25-.67,2.89-.34,3.98.57s1.69,2.3,1.92,3.71.12,2.84.02,4.25c.08-.98.52-1.93,1.22-2.62.44-.43,1.01-.77,1.63-.76,1.06.02,1.84,1.11,1.92,2.17s-.38,2.07-.81,3.04c.49-.98,1.94-1.32,2.82-.66.88.67.94,2.15.12,2.89.63-.78,1.99-.67,2.62.11.63.78.56,1.97,0,2.8s-1.51,1.33-2.49,1.54c-.98.21-1.99.18-2.99.14-2.63-.1-5.26-.19-7.9-.3-2.13-.09-4.35.08-6.45-.22Z"/>
            <g>
              <path class="cls-20" d="M34.86,325.39c.65,1.12,1.3,2.23,1.94,3.35.27.47.95.67,1.42.37s.66-.92.37-1.42l-1.94-3.35c-.27-.47-.95-.67-1.42-.37s-.66.92-.37,1.42h0Z"/>
              <path class="cls-20" d="M41.26,323.28c-.04,1.59,0,3.18.09,4.76.03.54.45,1.06,1.04,1.04.53-.02,1.07-.46,1.04-1.04-.1-1.59-.13-3.17-.09-4.76.01-.54-.49-1.06-1.04-1.04s-1.02.46-1.04,1.04h0Z"/>
              <path class="cls-20" d="M46.63,325.48c0,.22-.02.45-.05.67l.04-.28c-.08.56-.23,1.11-.44,1.64l.1-.25c-.09.21-.18.41-.29.6-.26.48-.13,1.15.37,1.42s1.14.14,1.42-.37c.58-1.06.89-2.23.93-3.43.02-.54-.49-1.06-1.04-1.04-.58.03-1.02.46-1.04,1.04h0Z"/>
            </g>
            <g>
              <path class="cls-20" d="M136.68,267.7c.65,1.12,1.3,2.23,1.94,3.35.27.47.95.67,1.42.37s.66-.92.37-1.42l-1.94-3.35c-.27-.47-.95-.67-1.42-.37s-.66.92-.37,1.42h0Z"/>
              <path class="cls-20" d="M143.08,265.58c-.04,1.59,0,3.18.09,4.76.03.54.45,1.06,1.04,1.04.53-.02,1.07-.46,1.04-1.04-.1-1.59-.13-3.17-.09-4.76.01-.54-.49-1.06-1.04-1.04s-1.02.46-1.04,1.04h0Z"/>
              <path class="cls-20" d="M148.45,267.78c0,.22-.02.45-.05.67l.04-.28c-.08.56-.23,1.11-.44,1.64l.1-.25c-.09.21-.18.41-.29.6-.26.48-.13,1.15.37,1.42s1.14.14,1.42-.37c.58-1.06.89-2.23.93-3.43.02-.54-.49-1.06-1.04-1.04-.58.03-1.02.46-1.04,1.04h0Z"/>
            </g>
            <g>
              <path class="cls-20" d="M164.25,294.3c.65,1.12,1.3,2.23,1.94,3.35.27.47.95.67,1.42.37s.66-.92.37-1.42l-1.94-3.35c-.27-.47-.95-.67-1.42-.37s-.66.92-.37,1.42h0Z"/>
              <path class="cls-20" d="M170.66,292.18c-.04,1.59,0,3.18.09,4.76.03.54.45,1.06,1.04,1.04.53-.02,1.07-.46,1.04-1.04-.1-1.59-.13-3.17-.09-4.76.01-.54-.49-1.06-1.04-1.04s-1.02.46-1.04,1.04h0Z"/>
              <path class="cls-20" d="M176.02,294.39c0,.22-.02.45-.05.67l.04-.28c-.08.56-.23,1.11-.44,1.64l.1-.25c-.09.21-.18.41-.29.6-.26.48-.13,1.15.37,1.42s1.14.14,1.42-.37c.58-1.06.89-2.23.93-3.43.02-.54-.49-1.06-1.04-1.04-.58.03-1.02.46-1.04,1.04h0Z"/>
            </g>
            <g>
              <path class="cls-20" d="M14.08,323.65l-.09.04c.17-.06.32-.06.46.02.07.04.08.04.01,0-.05-.02-.09-.05-.14-.08-.06-.04-.11-.08-.17-.12.14.1.07.06-.03-.02-.24-.2-.48-.41-.7-.63-.23-.23-.46-.48-.67-.73-.02-.03-.2-.26-.09-.11.1.13-.04-.05-.06-.08-.1-.14-.2-.28-.3-.43-.17-.26-.33-.53-.47-.81-.07-.14-.14-.28-.21-.42,0,0-.13-.3-.06-.13s-.04-.1-.05-.14c-.11-.29-.21-.59-.29-.89-.05-.17-.09-.34-.12-.51,0-.04-.01-.17-.04-.2.08.08,0,.44-.06.52l-.46.46-.4.12-.65-.18c.12.05.09.03,0-.03.08.05.09.11,0,0,.1.13.2.27.29.41.17.24.32.5.47.75.32.55.6,1.11.88,1.67.55,1.11,1.1,2.23,1.86,3.21.49-.63.98-1.27,1.46-1.9-.05-.01-.11-.03-.16-.04-.66-.16-1.43.21-1.59.9s.2,1.42.9,1.59c.05.01.11.03.16.04.51.12,1.04-.05,1.36-.46.29-.37.41-1.03.1-1.44-.77-1-1.33-2.14-1.89-3.26-.27-.55-.55-1.09-.86-1.62-.34-.59-.72-1.24-1.2-1.71-.9-.89-2.42-.56-2.72.71-.16.69.12,1.51.34,2.16.43,1.28,1.08,2.44,1.91,3.49.4.51.84.97,1.33,1.39.71.6,1.63,1.35,2.63.96.63-.25,1.14-.88.9-1.59-.2-.61-.92-1.17-1.59-.9h0Z"/>
              <path class="cls-20" d="M16.3,324.86c-.15-2.48.18-5,.69-7.43.45-2.12,1.14-4.26,2.56-5.94h-1.83c-.16-.43-.22-.46-.17-.1,0,.16,0,.32,0,.49,0,.24-.02.48-.04.73-.04.53-.12,1.05-.22,1.58-.21,1.12-.51,2.22-.83,3.32-.65,2.25-1.39,4.47-2.22,6.66l2.37-.31c-.09-.06-.13-.13-.11-.22-.39-1.62-2.89-.93-2.5.69.07.3.19.58.37.83.68.93,1.96.78,2.37-.31.94-2.5,1.79-5.03,2.49-7.61.35-1.29.64-2.59.8-3.91.14-1.18.4-2.71-.47-3.66-.44-.49-1.39-.52-1.83,0-1.68,1.97-2.63,4.36-3.18,6.87-.6,2.7-1,5.56-.83,8.33.1,1.66,2.69,1.67,2.59,0h0Z"/>
              <path class="cls-20" d="M17.51,325.73c.02-.09.05-.18.08-.28.03-.1.1-.23.02-.06.08-.17.17-.34.27-.5s.21-.32.33-.48c-.11.15,0,.01.05-.06.06-.08.12-.15.18-.23.5-.6,1.01-1.19,1.54-1.77s1.06-1.09,1.65-1.58c.07-.06.2-.16.06-.05.08-.06.15-.12.23-.17.16-.11.32-.22.48-.32.34-.22.7-.41,1.07-.58l-1.95-1.12c0-.05.13-.29.06-.19-.05.08-.1.16-.15.24-.11.16-.22.31-.33.47-.02.02-.2.27-.11.14s-.09.12-.11.14c-.12.15-.24.3-.37.44-.5.58-1.03,1.14-1.6,1.65-.28.26-.58.51-.88.75-.06.05-.12.1-.18.14.21-.17-.09.06-.1.08-.14.1-.28.2-.42.3-.65.45-1.32.86-2.02,1.22l1.57.2c.08.09.14.2.15.32.01.08-.05.34.03.14.25-.63-.27-1.45-.9-1.59-.75-.17-1.32.23-1.59.9-.28.71-.02,1.52.48,2.06.4.43,1.07.46,1.57.2,1.56-.81,3.01-1.85,4.3-3.05.62-.58,1.2-1.2,1.73-1.85.62-.77,1.48-1.67,1.48-2.73,0-.46-.25-.89-.64-1.12-.43-.25-.87-.2-1.31,0-1.59.73-2.92,1.92-4.09,3.19-.55.6-1.09,1.22-1.61,1.86-.63.78-1.19,1.59-1.45,2.57-.17.65.22,1.44.9,1.59s1.41-.2,1.59-.9h0Z"/>
            </g>
          </g>
        </g>
      </g>
    </g>
  </g>
</svg>