<svg width="371" height="240" viewBox="0 0 371 240" fill="none" xmlns="http://www.w3.org/2000/svg">
<path d="M344.602 2.35892L3.91537 53.3403C2.84772 53.5 2.09954 54.4783 2.22489 55.5505L22.6224 230.017C22.8765 232.191 25.9356 232.436 26.5329 230.331L35.8467 197.505C36.0819 196.676 36.8215 196.091 37.6822 196.053L337.387 182.775C338.423 182.729 339.252 181.899 339.297 180.863L346.896 4.42295C346.95 3.16676 345.845 2.17284 344.602 2.35892Z" fill="#FEC601" stroke="black" stroke-width="4"/>
<path d="M111.065 88.5625C111.471 87.5625 112.128 87.0625 113.034 87.0625H117.299C118.237 87.0625 118.518 87.4531 118.143 88.2344C117.768 89.1094 117.987 89.5469 118.799 89.5469H132.909C133.846 89.5469 134.315 90.0156 134.315 90.9531V105.906C134.128 107.906 133.065 109.094 131.128 109.469L127.003 109.516C126.221 109.516 125.831 109.906 125.831 110.688V128.031C125.331 130.219 124.096 131.531 122.128 131.969H118.753C117.815 131.969 117.268 131.5 117.112 130.562L116.737 128.219C116.612 127.281 116.753 126.812 117.159 126.812C118.503 126.375 119.034 125.562 118.753 124.375V110.688C118.753 109.906 118.362 109.516 117.581 109.516H111.253C110.315 109.516 109.846 109.047 109.846 108.109V99.25C109.846 98.4688 109.596 98.0781 109.096 98.0781C108.628 98.0781 108.299 97.6094 108.112 96.6719L107.69 94.2812C107.503 93.3438 107.628 92.875 108.065 92.875C109.003 92.875 109.628 92.25 109.94 91L111.065 88.5625ZM96.9088 88.5156C97.5963 87.6719 98.3931 87.25 99.2994 87.25H104.737C105.674 87.25 105.753 87.7188 104.971 88.6562L100.565 93.8125C99.69 94.8438 99.69 95.3594 100.565 95.3594H105.44C106.378 95.3594 106.846 95.8281 106.846 96.7656V99.1094C106.846 100.047 106.456 100.984 105.674 101.922C103.956 103.953 102.284 105.984 100.659 108.016C99.8775 108.953 99.8775 109.422 100.659 109.422C101.628 109.453 102.643 109.422 103.706 109.328C104.581 108.953 104.909 108.328 104.69 107.453C104.69 106.859 105.174 106.562 106.143 106.562C107.112 106.562 107.596 107.031 107.596 107.969C107.784 110.219 107.612 111.969 107.081 113.219C106.424 114.281 105.534 114.844 104.409 114.906C103.659 114.969 103.284 115.344 103.284 116.031V130.609C103.284 131.547 102.815 132.016 101.878 132.016H97.6588C96.7213 132.016 96.2525 131.547 96.2525 130.609V116.125C96.2525 115.344 95.8619 114.953 95.0806 114.953H92.3619C91.4244 114.953 90.9556 114.484 90.9556 113.547V111.109C90.9556 110.172 91.3463 109.234 92.1275 108.297C93.7525 106.266 95.4244 104.234 97.1431 102.203C97.8306 101.328 97.7838 100.891 97.0025 100.891H92.5963C91.6588 100.891 91.19 100.422 91.19 99.4844V96.4844C91.19 95.5469 91.6119 94.6094 92.4556 93.6719C93.8931 91.9531 95.3775 90.2344 96.9088 88.5156ZM127.471 95.875C127.471 94.8438 127.096 94.3281 126.346 94.3281H117.909C117.128 94.3281 116.737 94.8281 116.737 95.8281C116.737 96.8281 117.128 97.3281 117.909 97.3281H126.299C127.081 97.3281 127.471 96.8438 127.471 95.875ZM127.471 102.625C127.409 101.906 127.003 101.547 126.253 101.547H117.909C117.128 101.547 116.737 102.062 116.737 103.094C116.737 104.156 117.128 104.688 117.909 104.688H125.315C126.721 105.062 127.44 104.375 127.471 102.625ZM127.565 113.688C127.565 112.719 128.018 112.234 128.924 112.234H133.612C134.549 112.234 135.018 112.703 135.018 113.641V115.234C135.018 116.172 134.784 116.641 134.315 116.641C133.784 116.641 133.534 117.125 133.565 118.094L134.128 124.797C134.346 125.234 134.628 125.5 134.971 125.594C135.346 125.719 135.534 126.172 135.534 126.953V129.484C135.534 130.422 135.065 130.891 134.128 130.891C132.94 130.953 132.018 130.891 131.362 130.703C129.643 129.953 128.753 128.906 128.69 127.562C128.378 125.062 128.112 122.562 127.893 120.062C127.581 118 127.471 115.875 127.565 113.688ZM109.518 113.875C109.518 112.906 109.971 112.422 110.878 112.422H115.565C116.503 112.422 116.971 112.891 116.971 113.828C117.034 115.703 116.971 116.953 116.784 117.578L114.768 127.891C114.768 128.859 114.096 129.656 112.753 130.281C112.221 130.531 111.581 130.672 110.831 130.703C109.768 130.703 109.159 130.234 109.003 129.297C108.815 128.516 108.674 127.734 108.581 126.953C108.424 126.016 108.549 125.516 108.956 125.453C109.799 125.203 110.221 124.766 110.221 124.141C110.44 122.141 110.721 120.125 111.065 118.094C111.19 117.25 110.971 116.828 110.409 116.828C109.815 116.828 109.518 116.359 109.518 115.422V113.875ZM91.7525 119.266C91.7525 118.266 92.1588 117.766 92.9713 117.766C93.8775 117.766 94.3306 118.234 94.3306 119.172V127.422C94.4556 129.766 93.5338 131.047 91.565 131.266C91.1275 131.266 90.8306 130.797 90.6744 129.859L90.2994 127.516C90.1744 126.578 90.2994 126.062 90.6744 125.969C91.1119 125.938 91.44 125.672 91.6588 125.172C91.7525 123.203 91.7838 121.234 91.7525 119.266ZM105.253 119.266C105.253 118.266 105.596 117.766 106.284 117.766C107.034 117.766 107.409 118.234 107.409 119.172V129.484C107.409 130.422 107.049 130.891 106.331 130.891C105.612 130.891 105.253 130.422 105.253 129.484V119.266ZM156.558 88.0938C156.558 87.25 156.996 86.8281 157.871 86.8281H162.183C163.121 86.8281 163.589 87.2188 163.589 88C163.589 88.8438 163.98 89.2656 164.761 89.2656H180.418C181.355 89.2656 181.824 89.7344 181.824 90.6719V92.8281C181.824 93.7656 181.355 94.2344 180.418 94.2344H164.761C163.98 94.2344 163.589 94.625 163.589 95.4062V96.4375C163.589 97.2188 163.98 97.6094 164.761 97.6094H180.933C181.871 97.6094 182.339 98.0781 182.339 99.0156V103.984C182.339 104.922 181.871 105.391 180.933 105.391H176.714C175.777 105.391 175.308 104.969 175.308 104.125C175.308 103.219 174.918 102.766 174.136 102.766H145.824C145.043 102.766 144.652 103.203 144.652 104.078C144.652 104.953 144.183 105.391 143.246 105.391H139.027C138.089 105.391 137.621 104.922 137.621 103.984V99.0156C137.621 98.0781 138.089 97.6094 139.027 97.6094H155.386C156.168 97.6094 156.558 97.2188 156.558 96.4375V95.4062C156.558 94.625 156.168 94.2344 155.386 94.2344H139.73C138.793 94.2344 138.324 93.7656 138.324 92.8281V90.6719C138.324 89.7344 138.793 89.2656 139.73 89.2656H155.386C156.168 89.2656 156.558 88.875 156.558 88.0938ZM145.918 106.094C146.449 105.75 147.136 105.578 147.98 105.578H155.293C156.23 105.578 156.23 105.969 155.293 106.75C154.511 107.344 153.73 107.984 152.949 108.672C152.136 109.391 152.121 109.75 152.902 109.75H158.246C159.058 110.031 160.058 109.516 161.246 108.203C162.308 107.328 163.308 106.891 164.246 106.891H172.168C173.105 106.891 173.105 107.281 172.168 108.062L162.324 116.125C161.261 117.031 161.136 117.484 161.949 117.484H170.152C171.714 117.297 172.168 116.547 171.511 115.234C171.136 114.703 171.402 114.438 172.308 114.438H177.605C178.543 114.438 179.261 114.906 179.761 115.844C180.511 117.25 181.199 118.344 181.824 119.125C182.449 120.969 181.652 122.016 179.433 122.266H164.761C163.98 122.266 163.589 122.656 163.589 123.438V130.609C163.589 131.547 163.121 132.016 162.183 132.016H157.964C157.027 132.016 156.558 131.547 156.558 130.609V123.438C156.558 122.656 156.168 122.266 155.386 122.266H139.543C138.605 122.266 138.136 121.797 138.136 120.859V118.891C138.136 117.953 138.605 117.484 139.543 117.484H148.824C149.636 117.797 150.886 117.062 152.574 115.281C153.293 114.562 153.261 114.203 152.48 114.203H143.574C142.636 114.203 142.168 113.734 142.168 112.797V110.219C142.168 109.281 142.636 108.469 143.574 107.781L145.918 106.094ZM141.464 126.391C142.058 125.547 142.808 125.125 143.714 125.125H148.918C149.855 125.125 150.011 125.594 149.386 126.531L147.183 129.812C146.277 131.094 144.996 131.828 143.339 132.016H139.918C138.98 132.016 138.402 131.547 138.183 130.609C138.027 130.141 137.918 129.672 137.855 129.203C137.636 128.141 137.996 127.609 138.933 127.609C139.902 127.766 140.746 127.359 141.464 126.391ZM170.105 126.719C169.386 125.656 169.464 125.125 170.339 125.125H176.105C177.043 125.125 177.793 125.594 178.355 126.531C179.199 127.5 180.105 127.859 181.074 127.609C181.918 127.609 182.339 128.078 182.339 129.016V130.609C182.339 131.547 181.871 132.016 180.933 132.016C178.058 132.172 175.996 132.031 174.746 131.594C172.808 130.656 171.261 129.031 170.105 126.719ZM190.192 88.3281C190.192 87.3594 190.645 86.875 191.551 86.875H195.817C196.754 86.875 197.223 87.3438 197.223 88.2812V90.25C197.223 91.0312 197.614 91.4219 198.395 91.4219H199.754C200.692 91.4219 201.161 91.8906 201.161 92.8281V95.5469C201.161 96.4844 200.692 96.9531 199.754 96.9531H198.395C197.614 96.9531 197.223 97.3438 197.223 98.125V104.594C197.223 105.344 197.645 105.562 198.489 105.25L199.661 104.828C200.661 104.516 201.161 104.781 201.161 105.625V109.516C201.161 110.453 200.692 111.094 199.754 111.438L198.442 111.906C197.629 112.219 197.223 112.734 197.223 113.453V127.984C197.098 130.016 195.801 131.359 193.333 132.016H188.504C187.567 132.016 187.02 131.547 186.864 130.609L186.489 128.266C186.301 127.078 186.583 126.484 187.333 126.484C189.145 126.859 190.098 126 190.192 123.906V115.938C190.192 115.156 189.692 114.922 188.692 115.234L185.973 116.172C185.004 116.484 184.52 116.188 184.52 115.281V111.484C184.52 110.547 184.989 109.922 185.926 109.609C186.958 109.203 187.989 108.844 189.02 108.531C189.801 108.25 190.192 107.734 190.192 106.984V98.125C190.192 97.3438 189.801 96.9531 189.02 96.9531H186.114C185.176 96.9531 184.708 96.4844 184.708 95.5469V92.8281C184.708 91.8906 185.176 91.4219 186.114 91.4219H189.02C189.801 91.4219 190.192 91.0312 190.192 90.25V88.3281ZM204.067 88.3281C204.067 87.3594 204.52 86.875 205.426 86.875H209.692C210.629 86.875 211.098 87.1562 211.098 87.7188C211.098 88.3125 211.489 88.6094 212.27 88.6094H227.504C228.442 88.6094 228.911 89.0781 228.911 90.0156V92.3594C228.911 93.2969 228.442 93.7656 227.504 93.7656H212.27C211.489 93.7656 211.098 94.1562 211.098 94.9375C211.067 95.9375 211.098 96.9844 211.192 98.0781C211.661 98.7656 212.395 99.0312 213.395 98.875H227.879C228.817 98.875 229.286 99.3438 229.286 100.281V102.672C229.286 103.609 228.817 104.078 227.879 104.078H207.77C205.583 103.953 204.348 102.766 204.067 100.516V88.3281ZM204.254 109C204.254 108.031 204.708 107.547 205.614 107.547H227.551C228.489 107.547 228.958 108.016 228.958 108.953V128.312C228.864 130.531 227.661 131.766 225.348 132.016H205.661C204.723 132.016 204.254 131.547 204.254 130.609V109ZM221.879 113.922C221.879 113.109 221.504 112.703 220.754 112.703H212.458C211.676 112.703 211.286 113.094 211.286 113.875V115.938C211.286 116.719 211.676 117.109 212.458 117.109H220.708C221.489 117.109 221.879 116.719 221.879 115.938V113.922ZM221.879 123.438C221.879 122.656 221.489 122.266 220.708 122.266H212.458C211.676 122.266 211.286 122.656 211.286 123.438V125.641C211.286 126.422 211.676 126.812 212.458 126.812H219.723C221.442 126.938 222.161 126.188 221.879 124.562V123.438ZM268.169 88.3281C268.169 87.3281 268.607 86.8281 269.482 86.8281H273.794C274.732 86.8281 275.201 87.2969 275.201 88.2344V130.609C275.201 131.547 274.732 132.016 273.794 132.016H269.576C268.638 132.016 268.169 131.547 268.169 130.609V88.3281ZM232.122 89.0781C232.122 88.1094 232.576 87.625 233.482 87.625H258.466C259.404 87.625 259.872 88.0938 259.872 89.0312V101.922C259.841 104.016 258.638 105.234 256.263 105.578H240.747C239.966 105.578 239.576 105.969 239.576 106.75V111.578C239.576 112.359 239.966 112.75 240.747 112.75H258.232C259.169 112.75 259.638 113.219 259.638 114.156V128.453C259.638 130.453 258.451 131.641 256.076 132.016H235.497C234.56 132.016 234.013 131.547 233.857 130.609L233.482 128.266C233.294 127.078 233.669 126.484 234.607 126.484H250.451C252.169 126.641 252.888 125.875 252.607 124.188V119.5C252.607 118.719 252.216 118.328 251.435 118.328H233.951C233.013 118.328 232.544 117.859 232.544 116.922V101.453C232.544 100.516 233.013 100.047 233.951 100.047H250.638C252.357 100.203 253.076 99.4375 252.794 97.75V94.375C252.794 93.5938 252.404 93.2031 251.622 93.2031H233.529C232.591 93.2031 232.122 92.7344 232.122 91.7969V89.0781Z" fill="#002B2D"/>
<rect x="210.5" y="169.5" width="159" height="55" fill="white" stroke="black" stroke-width="3"/>
<path d="M238.064 198.896H257.232V201.616H238.064V198.896ZM238.192 184.624H256.752V190.608H253.808V187.216H241.008V190.736H238.192V184.624ZM245.616 195.536H248.592V212.688H245.616V195.536ZM249.52 200.176C250.096 201.243 250.832 202.299 251.728 203.344C252.624 204.389 253.605 205.339 254.672 206.192C255.76 207.045 256.859 207.739 257.968 208.272C257.755 208.464 257.509 208.699 257.232 208.976C256.976 209.232 256.731 209.509 256.496 209.808C256.261 210.107 256.069 210.384 255.92 210.64C254.789 209.979 253.669 209.147 252.56 208.144C251.472 207.12 250.459 206 249.52 204.784C248.603 203.568 247.824 202.32 247.184 201.04L249.52 200.176ZM244.848 199.92L247.216 200.688C246.619 202.117 245.851 203.483 244.912 204.784C243.995 206.064 242.96 207.227 241.808 208.272C240.677 209.296 239.483 210.149 238.224 210.832C238.011 210.469 237.712 210.064 237.328 209.616C236.944 209.147 236.592 208.784 236.272 208.528C237.467 207.973 238.619 207.259 239.728 206.384C240.837 205.488 241.829 204.485 242.704 203.376C243.6 202.267 244.315 201.115 244.848 199.92ZM228.24 199.728C229.371 199.365 230.715 198.917 232.272 198.384C233.829 197.851 235.419 197.285 237.04 196.688L237.552 199.408C236.08 199.984 234.597 200.549 233.104 201.104C231.632 201.659 230.267 202.16 229.008 202.608L228.24 199.728ZM228.592 189.264H237.168V192.08H228.592V189.264ZM231.92 182.992H234.704V209.104C234.704 209.829 234.619 210.405 234.448 210.832C234.299 211.259 234.011 211.6 233.584 211.856C233.157 212.091 232.613 212.24 231.952 212.304C231.312 212.389 230.501 212.432 229.52 212.432C229.477 212.048 229.381 211.579 229.232 211.024C229.083 210.469 228.912 209.989 228.72 209.584C229.317 209.605 229.861 209.627 230.352 209.648C230.864 209.648 231.216 209.637 231.408 209.616C231.6 209.616 231.728 209.584 231.792 209.52C231.877 209.456 231.92 209.317 231.92 209.104V182.992ZM243.536 188.112H246.32C246.235 189.243 246.075 190.256 245.84 191.152C245.605 192.048 245.221 192.848 244.688 193.552C244.176 194.235 243.461 194.821 242.544 195.312C241.648 195.803 240.475 196.208 239.024 196.528C238.939 196.293 238.811 196.037 238.64 195.76C238.491 195.461 238.309 195.173 238.096 194.896C237.904 194.597 237.712 194.363 237.52 194.192C238.757 193.957 239.749 193.68 240.496 193.36C241.264 193.019 241.851 192.613 242.256 192.144C242.683 191.653 242.981 191.077 243.152 190.416C243.344 189.755 243.472 188.987 243.536 188.112ZM248.528 188.08H251.216V192.08C251.216 192.464 251.259 192.731 251.344 192.88C251.429 193.029 251.611 193.104 251.888 193.104C252.016 193.104 252.229 193.104 252.528 193.104C252.827 193.104 253.147 193.104 253.488 193.104C253.851 193.104 254.181 193.104 254.48 193.104C254.779 193.104 254.992 193.104 255.12 193.104C255.397 193.104 255.717 193.093 256.08 193.072C256.464 193.051 256.784 192.997 257.04 192.912C257.061 193.275 257.093 193.712 257.136 194.224C257.179 194.736 257.221 195.152 257.264 195.472C257.029 195.557 256.72 195.611 256.336 195.632C255.973 195.653 255.589 195.664 255.184 195.664C255.035 195.664 254.811 195.664 254.512 195.664C254.213 195.664 253.883 195.664 253.52 195.664C253.179 195.664 252.859 195.664 252.56 195.664C252.261 195.664 252.059 195.664 251.952 195.664C251.013 195.664 250.299 195.557 249.808 195.344C249.317 195.109 248.976 194.725 248.784 194.192C248.613 193.659 248.528 192.944 248.528 192.048V188.08ZM272.752 182.96H275.92V192.048H272.752V182.96ZM279.44 199.696L281.552 198.352C282.32 198.971 283.109 199.653 283.92 200.4C284.752 201.147 285.531 201.893 286.256 202.64C287.003 203.387 287.611 204.059 288.08 204.656L285.776 206.224C285.349 205.627 284.784 204.944 284.08 204.176C283.376 203.408 282.619 202.629 281.808 201.84C280.997 201.051 280.208 200.336 279.44 199.696ZM278.384 206.928L280.688 205.456C281.541 205.883 282.459 206.395 283.44 206.992C284.443 207.568 285.392 208.155 286.288 208.752C287.205 209.328 287.963 209.861 288.56 210.352L286.096 212.08C285.563 211.589 284.859 211.035 283.984 210.416C283.109 209.819 282.181 209.211 281.2 208.592C280.219 207.973 279.28 207.419 278.384 206.928ZM267.248 205.616L270.032 206.736C269.328 207.419 268.539 208.101 267.664 208.784C266.789 209.445 265.883 210.064 264.944 210.64C264.027 211.237 263.152 211.749 262.32 212.176C262.149 211.984 261.925 211.76 261.648 211.504C261.371 211.248 261.083 210.992 260.784 210.736C260.507 210.48 260.251 210.277 260.016 210.128C261.317 209.573 262.629 208.891 263.952 208.08C265.275 207.269 266.373 206.448 267.248 205.616ZM260.72 185.648H287.92V188.304H260.72V185.648ZM260.24 190.832H288.496V197.104H285.488V193.392H263.088V197.104H260.24V190.832ZM262.256 205.456C262.235 205.285 262.171 205.051 262.064 204.752C261.979 204.432 261.883 204.112 261.776 203.792C261.691 203.451 261.595 203.163 261.488 202.928C262.064 202.843 262.693 202.693 263.376 202.48C264.08 202.267 264.901 201.979 265.84 201.616C266.352 201.424 267.131 201.104 268.176 200.656C269.221 200.208 270.416 199.664 271.76 199.024C273.104 198.384 274.469 197.691 275.856 196.944C277.264 196.176 278.576 195.397 279.792 194.608L281.904 196.4C279.067 198.107 276.112 199.621 273.04 200.944C269.968 202.267 266.939 203.387 263.952 204.304V204.4C263.952 204.4 263.867 204.432 263.696 204.496C263.525 204.56 263.323 204.645 263.088 204.752C262.875 204.859 262.683 204.976 262.512 205.104C262.341 205.232 262.256 205.349 262.256 205.456ZM262.256 205.456L262.224 203.632L263.92 202.704L283.536 201.648C283.579 201.968 283.632 202.341 283.696 202.768C283.781 203.173 283.867 203.493 283.952 203.728C280.859 203.92 278.192 204.091 275.952 204.24C273.733 204.389 271.856 204.517 270.32 204.624C268.805 204.731 267.557 204.827 266.576 204.912C265.616 204.976 264.848 205.04 264.272 205.104C263.717 205.147 263.291 205.2 262.992 205.264C262.693 205.328 262.448 205.392 262.256 205.456ZM264.56 200.08C264.539 199.909 264.475 199.675 264.368 199.376C264.283 199.056 264.187 198.736 264.08 198.416C263.995 198.075 263.899 197.797 263.792 197.584C264.133 197.541 264.496 197.445 264.88 197.296C265.264 197.125 265.691 196.923 266.16 196.688C266.416 196.56 266.789 196.368 267.28 196.112C267.792 195.835 268.368 195.504 269.008 195.12C269.669 194.736 270.331 194.309 270.992 193.84C271.675 193.371 272.304 192.891 272.88 192.4L274.96 194.032C273.595 195.013 272.133 195.92 270.576 196.752C269.019 197.563 267.451 198.267 265.872 198.864V198.96C265.872 198.96 265.765 199.024 265.552 199.152C265.339 199.259 265.115 199.408 264.88 199.6C264.667 199.771 264.56 199.931 264.56 200.08ZM264.56 200.08L264.528 198.448L265.872 197.744L276.912 197.232C276.827 197.509 276.741 197.84 276.656 198.224C276.571 198.587 276.517 198.875 276.496 199.088C274.491 199.216 272.805 199.323 271.44 199.408C270.096 199.493 269.008 199.568 268.176 199.632C267.344 199.696 266.683 199.76 266.192 199.824C265.723 199.867 265.371 199.909 265.136 199.952C264.901 199.995 264.709 200.037 264.56 200.08ZM273.392 203.088H276.336V209.424C276.336 210.149 276.229 210.715 276.016 211.12C275.824 211.547 275.429 211.877 274.832 212.112C274.256 212.325 273.541 212.453 272.688 212.496C271.835 212.539 270.821 212.56 269.648 212.56C269.563 212.133 269.413 211.653 269.2 211.12C269.008 210.608 268.795 210.16 268.56 209.776C269.179 209.797 269.776 209.819 270.352 209.84C270.928 209.84 271.429 209.84 271.856 209.84C272.283 209.84 272.581 209.829 272.752 209.808C273.008 209.808 273.179 209.776 273.264 209.712C273.349 209.627 273.392 209.499 273.392 209.328V203.088ZM295.792 184.528H315.12V187.344H295.792V184.528ZM294.352 184.528H297.232V195.216C297.232 196.539 297.179 197.979 297.072 199.536C296.987 201.072 296.795 202.629 296.496 204.208C296.219 205.765 295.803 207.28 295.248 208.752C294.715 210.224 294 211.568 293.104 212.784C292.933 212.613 292.699 212.411 292.4 212.176C292.101 211.963 291.792 211.749 291.472 211.536C291.152 211.344 290.875 211.205 290.64 211.12C291.493 209.989 292.165 208.763 292.656 207.44C293.147 206.117 293.509 204.752 293.744 203.344C294 201.915 294.16 200.517 294.224 199.152C294.309 197.765 294.352 196.453 294.352 195.216V184.528ZM313.904 184.528H316.88C316.859 186.576 316.837 188.613 316.816 190.64C316.816 192.645 316.827 194.576 316.848 196.432C316.891 198.288 316.944 200.005 317.008 201.584C317.072 203.163 317.168 204.539 317.296 205.712C317.424 206.885 317.584 207.803 317.776 208.464C317.968 209.125 318.203 209.456 318.48 209.456C318.651 209.456 318.789 208.997 318.896 208.08C319.003 207.141 319.067 206 319.088 204.656C319.323 205.061 319.6 205.488 319.92 205.936C320.261 206.363 320.56 206.715 320.816 206.992C320.731 208.315 320.592 209.392 320.4 210.224C320.229 211.077 319.963 211.696 319.6 212.08C319.237 212.485 318.757 212.699 318.16 212.72C317.264 212.72 316.539 212.229 315.984 211.248C315.451 210.267 315.035 208.901 314.736 207.152C314.459 205.403 314.267 203.344 314.16 200.976C314.053 198.608 313.989 196.037 313.968 193.264C313.947 190.469 313.925 187.557 313.904 184.528ZM304.048 191.184H306.704V208.496H304.048V191.184ZM301.104 196.656V200.976H309.712V196.656H301.104ZM298.736 194.288H312.176V203.312H298.736V194.288ZM297.008 207.728C298.245 207.664 299.675 207.589 301.296 207.504C302.939 207.397 304.677 207.28 306.512 207.152C308.368 207.024 310.224 206.907 312.08 206.8L312.048 209.328C310.277 209.456 308.496 209.595 306.704 209.744C304.933 209.872 303.227 209.989 301.584 210.096C299.963 210.224 298.501 210.341 297.2 210.448L297.008 207.728ZM308.688 204.528L310.992 203.792C311.504 204.496 311.984 205.275 312.432 206.128C312.901 206.981 313.317 207.824 313.68 208.656C314.043 209.467 314.299 210.203 314.448 210.864L311.984 211.728C311.835 211.088 311.589 210.352 311.248 209.52C310.907 208.667 310.512 207.813 310.064 206.96C309.637 206.085 309.179 205.275 308.688 204.528ZM298.416 189.168H312.528V191.6H298.416V189.168ZM322.64 190.736H331.408V193.52H322.64V190.736ZM325.744 183.376H328.56V204.848H325.744V183.376ZM322.192 205.552C323.344 205.189 324.741 204.709 326.384 204.112C328.027 203.515 329.701 202.917 331.408 202.32L331.952 205.008C330.437 205.648 328.912 206.277 327.376 206.896C325.84 207.493 324.432 208.048 323.152 208.56L322.192 205.552ZM333.744 187.696H351.632V190.448H333.744V187.696ZM334.224 194.416H339.856V196.912H334.224V194.416ZM332.56 187.696H335.344V197.968C335.344 199.12 335.291 200.357 335.184 201.68C335.099 202.981 334.917 204.304 334.64 205.648C334.363 206.971 333.947 208.251 333.392 209.488C332.859 210.704 332.165 211.803 331.312 212.784C331.163 212.592 330.949 212.368 330.672 212.112C330.416 211.877 330.139 211.643 329.84 211.408C329.541 211.195 329.285 211.035 329.072 210.928C330.139 209.712 330.917 208.368 331.408 206.896C331.899 205.403 332.208 203.888 332.336 202.352C332.485 200.795 332.56 199.333 332.56 197.968V187.696ZM338.768 194.416H341.296C341.296 194.416 341.296 194.555 341.296 194.832C341.296 195.088 341.285 195.312 341.264 195.504C341.243 197.915 341.2 199.867 341.136 201.36C341.093 202.853 341.019 203.995 340.912 204.784C340.805 205.552 340.645 206.075 340.432 206.352C340.197 206.672 339.952 206.907 339.696 207.056C339.44 207.184 339.12 207.28 338.736 207.344C338.416 207.387 338 207.419 337.488 207.44C336.976 207.44 336.443 207.429 335.888 207.408C335.867 207.003 335.792 206.565 335.664 206.096C335.557 205.605 335.408 205.2 335.216 204.88C335.707 204.923 336.144 204.955 336.528 204.976C336.933 204.976 337.232 204.976 337.424 204.976C337.787 204.976 338.053 204.859 338.224 204.624C338.331 204.453 338.416 204.048 338.48 203.408C338.565 202.747 338.629 201.733 338.672 200.368C338.715 199.003 338.747 197.168 338.768 194.864V194.416ZM342.192 182.96H345.072C345.029 185.307 345.04 187.6 345.104 189.84C345.189 192.059 345.317 194.16 345.488 196.144C345.659 198.107 345.861 199.909 346.096 201.552C346.352 203.173 346.629 204.581 346.928 205.776C347.248 206.971 347.589 207.899 347.952 208.56C348.336 209.2 348.72 209.52 349.104 209.52C349.403 209.52 349.627 209.115 349.776 208.304C349.925 207.493 350.021 206.203 350.064 204.432C350.341 204.752 350.683 205.061 351.088 205.36C351.515 205.659 351.899 205.883 352.24 206.032C352.133 207.653 351.941 208.923 351.664 209.84C351.408 210.757 351.045 211.397 350.576 211.76C350.107 212.144 349.499 212.336 348.752 212.336C347.899 212.336 347.141 211.963 346.48 211.216C345.819 210.469 345.243 209.424 344.752 208.08C344.283 206.715 343.888 205.115 343.568 203.28C343.248 201.445 342.981 199.429 342.768 197.232C342.576 195.035 342.437 192.731 342.352 190.32C342.267 187.909 342.213 185.456 342.192 182.96ZM345.424 184.304L347.504 183.024C348.144 183.557 348.805 184.176 349.488 184.88C350.171 185.563 350.683 186.171 351.024 186.704L348.816 188.112C348.517 187.557 348.037 186.928 347.376 186.224C346.715 185.499 346.064 184.859 345.424 184.304ZM348.528 193.872L351.28 194.352C350.256 198.491 348.795 202.096 346.896 205.168C345.019 208.219 342.651 210.715 339.792 212.656C339.643 212.464 339.44 212.24 339.184 211.984C338.928 211.728 338.661 211.461 338.384 211.184C338.128 210.928 337.883 210.725 337.648 210.576C340.485 208.891 342.789 206.629 344.56 203.792C346.331 200.933 347.653 197.627 348.528 193.872Z" fill="#002B2D"/>
</svg>
