<svg width="371" height="240" viewBox="0 0 371 240" fill="none" xmlns="http://www.w3.org/2000/svg">
<path d="M344.602 2.35892L3.91537 53.3403C2.84772 53.5 2.09954 54.4783 2.22489 55.5505L22.6224 230.017C22.8765 232.191 25.9356 232.436 26.5329 230.331L35.8467 197.505C36.0819 196.676 36.8215 196.091 37.6822 196.053L337.387 182.775C338.423 182.729 339.252 181.899 339.297 180.863L346.896 4.42295C346.95 3.16676 345.845 2.17284 344.602 2.35892Z" fill="#FEC601" stroke="black" stroke-width="4"/>
<path d="M109.659 87.2344C109.659 86.2969 110.096 85.8281 110.971 85.8281H115.284C116.221 85.8281 116.69 86.2656 116.69 87.1406C116.69 88.0781 117.081 88.5469 117.862 88.5469H133.846C134.784 88.5469 135.253 89.0156 135.253 89.9531V95.6719C135.253 96.6094 134.784 97.0781 133.846 97.0781H129.628C128.69 97.0781 128.221 96.5938 128.221 95.625C128.221 94.5938 127.831 94.0781 127.049 94.0781H99.1588C98.3775 94.0781 97.9869 94.5781 97.9869 95.5781C97.9869 96.5781 97.5181 97.0781 96.5806 97.0781H92.315C91.3775 97.0781 90.9088 96.6094 90.9088 95.6719V89.9531C90.9088 89.0156 91.3775 88.5469 92.315 88.5469H108.487C109.268 88.5469 109.659 88.1094 109.659 87.2344ZM92.7369 101.859C92.7369 100.859 93.1744 100.359 94.0494 100.359H131.971C132.909 100.359 133.378 100.828 133.378 101.766V104.109C133.378 105.047 132.909 105.516 131.971 105.516H94.1431C93.2056 105.516 92.7369 105.047 92.7369 104.109V101.859ZM90.8619 111.938C90.8619 110.969 91.315 110.484 92.2213 110.484H133.846C134.784 110.484 135.253 110.953 135.253 111.891V114.609C135.253 115.547 134.784 116.016 133.846 116.016H125.737C124.956 116.016 124.565 116.406 124.565 117.188V123.656C124.44 125.375 125.206 126.094 126.862 125.812H134.034C134.971 125.812 135.44 126.281 135.44 127.219V129.609C135.44 130.547 134.971 131.016 134.034 131.016H121.143C119.174 130.922 117.971 129.766 117.534 127.547V117.188C117.534 116.406 117.143 116.016 116.362 116.016H108.534C107.784 116.016 107.206 116.516 106.799 117.516L102.393 128.203C101.549 129.828 100.143 130.766 98.1744 131.016H92.8306C91.8931 131.016 91.3306 130.547 91.1431 129.609L90.7213 127.219C90.5338 126.281 90.9088 125.812 91.8463 125.812C93.7525 126 95.1119 125.812 95.9244 125.25C96.3931 124.875 96.7525 124.328 97.0025 123.609C97.7838 121.484 98.6119 119.344 99.4869 117.188C99.7681 116.406 99.5025 116.016 98.69 116.016H92.2681C91.3306 116.016 90.8619 115.547 90.8619 114.609V111.938ZM160.777 87.6094C160.496 86.4531 160.824 85.875 161.761 85.875H166.589C167.527 85.875 168.105 86.3438 168.324 87.2812L168.511 88.2188C168.699 89.0625 169.152 89.4844 169.871 89.4844H172.261C173.043 89.4844 173.324 89.0625 173.105 88.2188L173.011 87.6094C172.761 86.5781 173.105 86.0625 174.043 86.0625H178.214C179.152 86.0625 179.73 86.5312 179.949 87.4688C179.98 87.7188 180.058 88.0156 180.183 88.3594C180.402 89.1094 180.793 89.4844 181.355 89.4844C181.949 89.4844 182.246 89.9531 182.246 90.8906V93.6094C182.246 94.5469 181.777 95.0156 180.839 95.0156H171.183C170.402 95.0156 170.136 95.5156 170.386 96.5156L172.168 104.016C172.386 104.891 172.746 104.766 173.246 103.641L174.464 101.109C175.027 99.9531 175.777 99.375 176.714 99.375H181.027C181.964 99.375 182.199 99.8438 181.73 100.781C179.636 105.156 177.48 109.578 175.261 114.047C174.918 114.766 174.871 115.609 175.121 116.578C175.652 118.922 176.23 121.312 176.855 123.75C177.136 124.75 177.746 125.328 178.683 125.484H181.168C182.105 125.484 182.574 125.953 182.574 126.891V129.609C182.574 130.547 182.105 131.016 181.168 131.016H173.855C171.918 130.797 170.668 129.719 170.105 127.781C169.793 126.656 169.527 125.516 169.308 124.359C169.152 123.641 168.558 123.359 167.527 123.516H164.339C163.402 123.516 162.855 123.047 162.699 122.109C162.511 121.328 162.371 120.547 162.277 119.766C162.089 118.578 162.464 117.984 163.402 117.984C164.558 118.078 165.464 117.984 166.121 117.703C167.308 116.891 167.636 115.906 167.105 114.75L162.746 96.1406C162.527 95.3906 162.043 95.0156 161.293 95.0156H147.23C146.449 95.0156 146.058 95.4062 146.058 96.1875V99.9375C146.058 100.719 146.449 101.109 147.23 101.109H158.105C159.043 101.109 159.511 101.578 159.511 102.516V127.453C159.324 129.484 158.261 130.656 156.324 130.969L151.496 131.016C150.558 131.016 150.011 130.547 149.855 129.609L149.48 127.266C149.293 126.078 149.574 125.484 150.324 125.484C152.043 125.641 152.761 124.875 152.48 123.188V107.812C152.48 107.031 152.089 106.641 151.308 106.641H147.23C146.449 106.641 146.058 107.031 146.058 107.812V127.359C145.933 129.359 144.886 130.547 142.918 130.922C141.855 131.016 140.777 131.047 139.683 131.016C138.746 131.016 138.199 130.547 138.043 129.609L137.668 127.266C137.449 126.078 137.433 125.484 137.621 125.484C138.808 125.266 139.261 124.5 138.98 123.188V90.8906C138.98 89.9531 139.449 89.4844 140.386 89.4844H160.027C160.808 89.4844 161.105 89.0625 160.918 88.2188C160.918 88.0625 160.871 87.8594 160.777 87.6094ZM190.145 87.3281C190.489 86.3281 191.098 85.8281 191.973 85.8281H196.192C197.129 85.8281 197.442 86.2969 197.129 87.2344L193.145 100.5C192.864 101.344 192.973 101.766 193.473 101.766C193.942 101.766 194.176 102.234 194.176 103.172V129.609C194.176 130.547 193.708 131.016 192.77 131.016H188.551C187.614 131.016 187.145 130.547 187.145 129.609V105.375C187.145 104.594 186.848 104.203 186.254 104.203C185.692 104.203 185.317 103.734 185.129 102.797L184.614 100.031C184.458 99.0938 184.567 98.625 184.942 98.625C186.286 98.6562 187.083 97.875 187.333 96.2812C188.208 93.3125 189.145 90.3281 190.145 87.3281ZM200.036 89.0156C200.036 88.0781 200.504 87.6094 201.442 87.6094H226.708C227.645 87.6094 228.114 88.0781 228.114 89.0156V91.7344C228.114 92.6719 227.645 93.1406 226.708 93.1406H219.348C218.567 93.1406 218.176 93.5312 218.176 94.3125V104.812C218.176 105.594 218.567 105.984 219.348 105.984H228.02C228.958 105.984 229.426 106.453 229.426 107.391V110.109C229.426 111.047 228.958 111.516 228.02 111.516H219.348C218.567 111.516 218.176 111.906 218.176 112.688V124.312C218.176 125.094 218.567 125.484 219.348 125.484H227.458C228.395 125.484 228.864 125.953 228.864 126.891V129.609C228.864 130.547 228.395 131.016 227.458 131.016H201.442C200.504 131.016 200.036 130.547 200.036 129.609V126.891C200.036 125.953 200.504 125.484 201.442 125.484H209.973C210.754 125.484 211.145 125.094 211.145 124.312V112.688C211.145 111.906 210.754 111.516 209.973 111.516H200.504C199.567 111.516 199.098 111.047 199.098 110.109V107.391C199.098 106.453 199.567 105.984 200.504 105.984H209.973C210.754 105.984 211.145 105.594 211.145 104.812V94.3125C211.145 93.5312 210.754 93.1406 209.973 93.1406H201.442C200.504 93.1406 200.036 92.6719 200.036 91.7344V89.0156ZM254.997 87.3281C255.31 86.3281 255.904 85.8281 256.779 85.8281H260.622C261.56 85.8281 261.935 86.0938 261.747 86.625C261.529 87.2812 261.81 87.6094 262.591 87.6094H275.247C276.185 87.6094 276.654 88.0781 276.654 89.0156V90.9844C276.654 91.9219 276.404 92.3906 275.904 92.3906C275.372 92.3906 274.701 92.8594 273.888 93.7969L269.763 98.8125C269.138 99.5938 269.279 100.422 270.185 101.297C271.435 102.422 273.122 102.859 275.247 102.609C276.185 102.609 276.654 103.078 276.654 104.016V105.984C276.654 106.922 276.185 107.391 275.247 107.391H271.263C269.638 107.297 268.076 106.656 266.576 105.469C265.732 104.719 264.872 104.844 263.997 105.844C262.841 106.844 261.622 107.359 260.341 107.391H255.232C254.294 107.391 253.716 106.922 253.497 105.984L253.122 104.062C252.935 103.094 253.294 102.609 254.201 102.609C256.232 102.859 257.763 102.625 258.794 101.906C259.138 101.562 259.419 101.219 259.638 100.875C260.294 100.125 260.247 99.375 259.497 98.625L257.669 96.7969C256.919 96.0469 256.076 95.7031 255.138 95.7656H254.482C253.544 95.7656 252.966 95.2969 252.747 94.3594L252.419 92.9531C252.201 91.8906 252.232 91.3438 252.513 91.3125C252.732 91.25 252.997 91.125 253.31 90.9375C253.747 90.5312 254.107 89.9219 254.388 89.1094C254.544 88.5156 254.747 87.9219 254.997 87.3281ZM231.888 88.0781C231.888 87.1094 232.341 86.625 233.247 86.625H248.857C249.794 86.625 250.263 87.0938 250.263 88.0312V90.7031C250.263 91.6406 250.154 92.4219 249.935 93.0469C249.122 95.2344 248.357 97.4219 247.638 99.6094C247.294 100.609 247.482 101.109 248.201 101.109H249.372C250.31 101.109 250.779 101.578 250.779 102.516V123.234C250.779 124.172 250.294 124.641 249.326 124.641C248.357 124.641 247.872 124.172 247.872 123.234V107.812C247.872 107.031 247.435 106.641 246.56 106.641C245.654 106.641 245.201 107.031 245.201 107.812V127.406C244.982 128.781 244.263 129.844 243.044 130.594C242.138 131.031 240.935 131.172 239.435 131.016C238.497 131.016 237.951 130.547 237.794 129.609L237.419 127.266C237.294 126.328 237.372 125.828 237.654 125.766C238.685 125.203 239.091 124.344 238.872 123.188V107.812C238.872 107.031 238.482 106.641 237.701 106.641H233.107C232.169 106.641 231.701 106.172 231.701 105.234V102.516C231.701 101.578 232.185 101.109 233.154 101.109C234.154 101.109 234.513 100.609 234.232 99.6094L233.388 96.4219C233.138 95.3594 233.482 94.8281 234.419 94.8281H236.388C237.326 94.8281 237.904 95.2969 238.122 96.2344L238.966 99.5156C239.247 100.578 239.654 101.109 240.185 101.109C240.716 101.109 241.122 100.688 241.404 99.8438C242.122 97.5938 242.888 95.3438 243.701 93.0938C243.982 92.25 243.732 91.8281 242.951 91.8281H233.294C232.357 91.8281 231.888 91.3594 231.888 90.4219V88.0781ZM266.294 93.6094C266.982 92.7969 266.904 92.3906 266.06 92.3906H260.857C260.107 92.3906 259.529 92.8594 259.122 93.7969C259.091 93.9219 258.997 94.0625 258.841 94.2188C258.185 95.0312 258.279 95.4375 259.122 95.4375H262.357C263.294 95.4375 263.81 95.5 263.904 95.625C264.029 95.7812 264.466 95.4844 265.216 94.7344C265.529 94.3594 265.888 93.9844 266.294 93.6094ZM258.466 110.344C258.622 109.781 259.122 109.5 259.966 109.5H264.279C265.216 109.5 265.638 109.703 265.544 110.109C265.451 110.734 265.716 111.047 266.341 111.047H274.732C275.669 111.047 276.138 111.516 276.138 112.453V127.312C275.982 129.375 274.951 130.578 273.044 130.922C271.388 131.016 269.732 131.047 268.076 131.016C267.138 131.016 266.576 130.547 266.388 129.609C266.232 128.984 266.122 128.344 266.06 127.688C265.872 126.719 266.138 126.234 266.857 126.234C268.638 126.391 269.372 125.625 269.06 123.938V117.375C269.06 116.594 268.669 116.203 267.888 116.203H265.357C264.607 116.203 264.107 116.672 263.857 117.609C263.294 119.953 262.779 122.297 262.31 124.641C262.06 125.891 261.747 127.141 261.372 128.391C260.747 130.078 259.576 130.953 257.857 131.016H255.044C254.107 131.016 253.544 130.547 253.357 129.609L252.982 127.688C252.794 126.719 252.951 126.234 253.451 126.234C254.544 126.484 255.201 125.938 255.419 124.594L257.154 116.391C257.091 116.266 256.685 116.203 255.935 116.203H254.857C253.919 116.203 253.451 115.734 253.451 114.797V112.453C253.451 111.516 253.919 111.047 254.857 111.047H257.107C257.857 111.047 258.31 110.812 258.466 110.344ZM233.201 111.703C233.232 110.734 233.701 110.25 234.607 110.25H235.497C236.435 110.25 236.872 110.719 236.81 111.656C236.529 116.5 236.185 121.344 235.779 126.188C235.622 127.844 234.779 128.703 233.247 128.766C232.654 128.766 232.279 128.297 232.122 127.359C231.935 126.578 231.794 125.797 231.701 125.016C231.544 124.078 231.607 123.594 231.888 123.562C232.732 123.188 233.076 122.328 232.919 120.984L233.201 111.703Z" fill="#002B2D"/>
<rect x="210.5" y="169.5" width="159" height="55" fill="white" stroke="black" stroke-width="3"/>
<path d="M235.248 195.216H256.112V197.776H235.248V195.216ZM234.448 200.624H257.456V203.216H234.448V200.624ZM239.728 192.432H242.512V201.968H239.728V192.432ZM248.208 192.432H251.056V201.904H248.208V192.432ZM231.312 184.464H234.352V193.904C234.352 195.269 234.309 196.773 234.224 198.416C234.139 200.037 233.968 201.701 233.712 203.408C233.456 205.115 233.072 206.768 232.56 208.368C232.048 209.968 231.365 211.429 230.512 212.752C230.32 212.581 230.053 212.389 229.712 212.176C229.392 211.984 229.061 211.792 228.72 211.6C228.379 211.429 228.08 211.291 227.824 211.184C228.635 209.947 229.264 208.592 229.712 207.12C230.181 205.648 230.523 204.144 230.736 202.608C230.971 201.051 231.12 199.536 231.184 198.064C231.269 196.571 231.312 195.184 231.312 193.904V184.464ZM233.136 184.464H255.632V192.4H233.136V189.808H252.592V187.056H233.136V184.464ZM246.416 201.616C247.312 203.835 248.72 205.68 250.64 207.152C252.581 208.603 254.981 209.616 257.84 210.192C257.52 210.491 257.189 210.885 256.848 211.376C256.507 211.867 256.229 212.304 256.016 212.688C252.987 211.941 250.469 210.683 248.464 208.912C246.48 207.141 244.965 204.901 243.92 202.192L246.416 201.616ZM253.744 203.12L256.016 204.72C255.141 205.36 254.181 205.989 253.136 206.608C252.091 207.205 251.141 207.717 250.288 208.144L248.336 206.672C248.912 206.373 249.531 206.021 250.192 205.616C250.853 205.211 251.493 204.795 252.112 204.368C252.731 203.92 253.275 203.504 253.744 203.12ZM237.136 212.784L237.04 210.512L238.224 209.552L246.672 207.792C246.608 208.176 246.555 208.613 246.512 209.104C246.469 209.595 246.459 209.989 246.48 210.288C244.581 210.736 243.045 211.099 241.872 211.376C240.72 211.675 239.824 211.899 239.184 212.048C238.565 212.219 238.107 212.357 237.808 212.464C237.531 212.571 237.307 212.677 237.136 212.784ZM237.136 212.784C237.093 212.549 236.997 212.272 236.848 211.952C236.72 211.653 236.581 211.344 236.432 211.024C236.283 210.725 236.133 210.491 235.984 210.32C236.304 210.128 236.645 209.819 237.008 209.392C237.392 208.944 237.584 208.347 237.584 207.6V201.808L240.4 201.904V209.68C240.4 209.68 240.293 209.755 240.08 209.904C239.867 210.032 239.589 210.213 239.248 210.448C238.928 210.683 238.608 210.939 238.288 211.216C237.968 211.493 237.691 211.771 237.456 212.048C237.243 212.325 237.136 212.571 237.136 212.784ZM259.792 184.656H270.896V187.44H259.792V184.656ZM260.112 193.744H270.576V196.528H260.112V193.744ZM259.12 205.008C260.123 204.773 261.275 204.485 262.576 204.144C263.877 203.803 265.253 203.429 266.704 203.024C268.176 202.619 269.627 202.213 271.056 201.808L271.472 204.496C269.467 205.093 267.44 205.691 265.392 206.288C263.344 206.885 261.509 207.429 259.888 207.92L259.12 205.008ZM275.12 191.856V194.544H284.688V191.856H275.12ZM275.12 196.88V199.6H284.688V196.88H275.12ZM275.12 186.8V189.488H284.688V186.8H275.12ZM272.272 184.304H287.632V202.128H272.272V184.304ZM280.528 200.944H283.44V208.912C283.44 209.339 283.483 209.605 283.568 209.712C283.675 209.819 283.899 209.872 284.24 209.872C284.325 209.872 284.496 209.872 284.752 209.872C285.029 209.872 285.307 209.872 285.584 209.872C285.883 209.872 286.096 209.872 286.224 209.872C286.437 209.872 286.597 209.787 286.704 209.616C286.832 209.445 286.917 209.093 286.96 208.56C287.024 208.027 287.067 207.216 287.088 206.128C287.301 206.277 287.557 206.427 287.856 206.576C288.155 206.725 288.464 206.864 288.784 206.992C289.104 207.099 289.392 207.184 289.648 207.248C289.563 208.635 289.413 209.701 289.2 210.448C288.987 211.216 288.667 211.749 288.24 212.048C287.813 212.347 287.248 212.496 286.544 212.496C286.416 212.496 286.224 212.496 285.968 212.496C285.712 212.496 285.435 212.496 285.136 212.496C284.837 212.496 284.56 212.496 284.304 212.496C284.048 212.496 283.856 212.496 283.728 212.496C282.853 212.496 282.181 212.389 281.712 212.176C281.264 211.963 280.955 211.589 280.784 211.056C280.613 210.544 280.528 209.829 280.528 208.912V200.944ZM274.992 201.616H277.968C277.819 202.981 277.584 204.24 277.264 205.392C276.965 206.544 276.496 207.589 275.856 208.528C275.237 209.467 274.384 210.299 273.296 211.024C272.208 211.749 270.821 212.379 269.136 212.912C269.029 212.656 268.88 212.368 268.688 212.048C268.517 211.749 268.315 211.451 268.08 211.152C267.867 210.853 267.653 210.608 267.44 210.416C268.933 210.011 270.149 209.531 271.088 208.976C272.027 208.421 272.752 207.781 273.264 207.056C273.797 206.309 274.192 205.488 274.448 204.592C274.704 203.675 274.885 202.683 274.992 201.616ZM263.984 185.776H266.896V204.592L263.984 205.072V185.776ZM310.256 186.416H313.104V204.24H310.256V186.416ZM316.208 183.12H319.12V208.88C319.12 209.755 319.013 210.427 318.8 210.896C318.587 211.365 318.224 211.728 317.712 211.984C317.2 212.24 316.507 212.4 315.632 212.464C314.779 212.549 313.691 212.592 312.368 212.592C312.304 212.187 312.176 211.685 311.984 211.088C311.813 210.512 311.621 210 311.408 209.552C312.347 209.573 313.189 209.595 313.936 209.616C314.704 209.616 315.216 209.605 315.472 209.584C315.749 209.584 315.941 209.531 316.048 209.424C316.155 209.317 316.208 209.125 316.208 208.848V183.12ZM295.184 196.848H305.904V198.736H295.184V196.848ZM296.816 209.008H306.352V211.312H296.816V209.008ZM293.424 192.976H296.272V197.04C296.272 198.064 296.229 199.195 296.144 200.432C296.059 201.669 295.909 202.939 295.696 204.24C295.483 205.52 295.173 206.779 294.768 208.016C294.363 209.253 293.84 210.395 293.2 211.44C293.029 211.291 292.784 211.131 292.464 210.96C292.144 210.811 291.813 210.661 291.472 210.512C291.152 210.384 290.864 210.277 290.608 210.192C291.248 209.189 291.749 208.123 292.112 206.992C292.496 205.84 292.784 204.677 292.976 203.504C293.168 202.331 293.285 201.189 293.328 200.08C293.392 198.971 293.424 197.947 293.424 197.008V192.976ZM295.12 192.976H307.088V202.704H295.056V200.56H304.336V195.12H295.12V192.976ZM295.664 203.984H307.856V212.432H305.2V206.128H298.224V212.496H295.664V203.984ZM299.92 183.088L302.704 184.144C301.915 185.424 300.955 186.64 299.824 187.792C298.715 188.944 297.509 190 296.208 190.96C294.907 191.92 293.595 192.741 292.272 193.424C292.187 193.211 292.048 192.923 291.856 192.56C291.664 192.197 291.461 191.835 291.248 191.472C291.035 191.109 290.832 190.811 290.64 190.576C291.877 190.021 293.072 189.371 294.224 188.624C295.397 187.856 296.475 187.003 297.456 186.064C298.437 185.125 299.259 184.133 299.92 183.088ZM299.024 186.224L300.56 184.048C301.221 184.432 301.936 184.859 302.704 185.328C303.493 185.797 304.283 186.267 305.072 186.736C305.861 187.205 306.597 187.664 307.28 188.112C307.963 188.56 308.539 188.965 309.008 189.328L307.408 191.856C306.789 191.344 305.989 190.757 305.008 190.096C304.048 189.435 303.035 188.763 301.968 188.08C300.923 187.397 299.941 186.779 299.024 186.224ZM297.232 189.712H303.92V191.6H297.232V189.712ZM330.416 205.2H333.328V208.976C333.328 209.381 333.445 209.637 333.68 209.744C333.915 209.851 334.427 209.904 335.216 209.904C335.387 209.904 335.696 209.904 336.144 209.904C336.592 209.904 337.093 209.904 337.648 209.904C338.203 209.904 338.725 209.904 339.216 209.904C339.707 209.904 340.069 209.904 340.304 209.904C340.752 209.904 341.083 209.84 341.296 209.712C341.509 209.584 341.659 209.307 341.744 208.88C341.829 208.453 341.893 207.803 341.936 206.928C342.256 207.141 342.672 207.344 343.184 207.536C343.696 207.707 344.155 207.835 344.56 207.92C344.453 209.136 344.261 210.064 343.984 210.704C343.728 211.344 343.333 211.781 342.8 212.016C342.267 212.272 341.531 212.4 340.592 212.4C340.443 212.4 340.176 212.4 339.792 212.4C339.408 212.4 338.971 212.4 338.48 212.4C337.989 212.4 337.499 212.4 337.008 212.4C336.517 212.4 336.08 212.4 335.696 212.4C335.312 212.4 335.056 212.4 334.928 212.4C333.712 212.4 332.773 212.293 332.112 212.08C331.472 211.888 331.024 211.547 330.768 211.056C330.533 210.565 330.416 209.883 330.416 209.008V205.2ZM333.904 204.816L335.664 203.12C336.24 203.397 336.848 203.728 337.488 204.112C338.149 204.475 338.768 204.859 339.344 205.264C339.92 205.648 340.4 206 340.784 206.32L338.928 208.208C338.587 207.867 338.128 207.493 337.552 207.088C336.997 206.661 336.4 206.256 335.76 205.872C335.12 205.467 334.501 205.115 333.904 204.816ZM344.56 205.648L346.992 204.56C347.525 205.115 348.059 205.723 348.592 206.384C349.125 207.045 349.605 207.707 350.032 208.368C350.48 209.029 350.832 209.627 351.088 210.16L348.496 211.376C348.261 210.843 347.941 210.245 347.536 209.584C347.131 208.923 346.661 208.251 346.128 207.568C345.616 206.864 345.093 206.224 344.56 205.648ZM326.576 204.88L329.104 205.968C328.635 206.971 328.069 208.016 327.408 209.104C326.768 210.192 326.032 211.12 325.2 211.888L322.704 210.384C323.515 209.701 324.261 208.848 324.944 207.824C325.627 206.8 326.171 205.819 326.576 204.88ZM324.784 185.104H349.264V187.504H324.784V185.104ZM323.28 190.288H350.928V192.688H323.28V190.288ZM329.488 187.952L332.24 187.376C332.517 187.845 332.773 188.379 333.008 188.976C333.264 189.552 333.435 190.053 333.52 190.48L330.64 191.152C330.576 190.725 330.427 190.213 330.192 189.616C329.979 188.997 329.744 188.443 329.488 187.952ZM341.808 187.312L344.944 187.92C344.581 188.603 344.24 189.243 343.92 189.84C343.6 190.416 343.28 190.939 342.96 191.408L340.304 190.768C340.56 190.256 340.827 189.68 341.104 189.04C341.403 188.379 341.637 187.803 341.808 187.312ZM329.84 199.792V201.648H344.336V199.792H329.84ZM329.84 196.08V197.904H344.336V196.08H329.84ZM326.992 194.096H347.344V203.632H326.992V194.096ZM334.96 183.248L337.872 182.672C338.213 183.184 338.523 183.771 338.8 184.432C339.099 185.072 339.312 185.637 339.44 186.128L336.368 186.8C336.261 186.331 336.069 185.765 335.792 185.104C335.536 184.421 335.259 183.803 334.96 183.248Z" fill="#002B2D"/>
</svg>
