<svg width="371" height="240" viewBox="0 0 371 240" fill="none" xmlns="http://www.w3.org/2000/svg">
<path d="M344.602 2.35892L3.91537 53.3403C2.84772 53.5 2.09954 54.4783 2.22489 55.5505L22.6224 230.017C22.8765 232.191 25.9356 232.436 26.5329 230.331L35.8467 197.505C36.0819 196.676 36.8215 196.091 37.6822 196.053L337.387 182.775C338.423 182.729 339.252 181.899 339.297 180.863L346.896 4.42295C346.95 3.16676 345.845 2.17284 344.602 2.35892Z" fill="#FEC601" stroke="black" stroke-width="4"/>
<path d="M121.623 88.5625C121.623 87.5625 122.061 87.0625 122.936 87.0625H127.248C128.186 87.0625 128.654 87.5312 128.654 88.4688V90.4375C128.654 91.2188 129.045 91.6094 129.826 91.6094H133.623C134.561 91.6094 135.029 92.0781 135.029 93.0156V95.7344C135.029 96.6719 134.561 97.1406 133.623 97.1406H129.826C129.045 97.1406 128.654 97.5312 128.654 98.3125V125.312C128.654 126.094 129.045 126.484 129.826 126.484H134.561C135.498 126.484 135.967 126.953 135.967 127.891V130.609C135.967 131.547 135.498 132.016 134.561 132.016H115.107C114.17 132.016 113.701 131.547 113.701 130.609V127.891C113.701 126.953 114.17 126.484 115.107 126.484H120.451C121.232 126.484 121.623 126.094 121.623 125.312V98.3125C121.623 97.5312 121.232 97.1406 120.451 97.1406H116.232C115.295 97.1406 114.826 96.6719 114.826 95.7344V93.0156C114.826 92.0781 115.295 91.6094 116.232 91.6094H120.451C121.232 91.6094 121.623 91.2188 121.623 90.4375V88.5625ZM92.5137 89.0781C92.5137 88.1094 92.9669 87.625 93.8731 87.625H108.686C109.623 87.625 110.092 88.0938 110.092 89.0312V91.4219C110.092 92.3594 109.623 92.8281 108.686 92.8281H93.92C92.9825 92.8281 92.5137 92.3594 92.5137 91.4219V89.0781ZM91.0137 97.75C91.0137 96.7812 91.4669 96.2969 92.3731 96.2969H110.186C111.123 96.2969 111.592 96.7656 111.592 97.7031V100.422C111.592 101.359 111.123 101.828 110.186 101.828H106.201C105.42 101.828 105.029 102.219 105.029 103V130.609C105.029 131.547 104.561 132.016 103.623 132.016H99.4044C98.4669 132.016 97.9981 131.547 97.9981 130.609V103C97.9981 102.219 97.6075 101.828 96.8262 101.828H92.42C91.4825 101.828 91.0137 101.359 91.0137 100.422V97.75ZM92.1856 106.562C92.1856 105.562 92.6544 105.062 93.5919 105.062C94.5919 105.062 95.0919 105.531 95.0919 106.469V125.828C94.6231 127.453 93.7325 128.328 92.42 128.453C91.9512 128.453 91.6387 127.984 91.4825 127.047C91.295 126.141 91.1544 125.219 91.0606 124.281C90.9044 123.344 90.9044 122.859 91.0606 122.828C91.4981 122.766 91.8731 122.391 92.1856 121.703V106.562ZM107.936 106.562C107.936 105.562 108.404 105.062 109.342 105.062C110.342 105.062 110.842 105.531 110.842 106.469V126.297C110.842 127.234 110.357 127.703 109.389 127.703C108.42 127.703 107.936 127.234 107.936 126.297V106.562ZM163.976 88.9375C163.694 87.7812 164.022 87.2031 164.96 87.2031H168.429C169.366 87.2031 169.944 87.6719 170.163 88.6094C170.413 89.8594 170.726 91.1562 171.101 92.5C171.319 93.25 171.851 93.625 172.694 93.625C173.569 93.625 174.147 93.1562 174.429 92.2188L175.179 88.9375C175.46 87.7812 176.069 87.2031 177.007 87.2031H180.429C181.366 87.2031 181.71 87.6719 181.46 88.6094L180.429 93.4375C180.491 93.5625 180.882 93.625 181.601 93.625C182.319 93.625 182.679 94.0938 182.679 95.0312V97.7969C182.679 98.7344 182.21 99.2031 181.272 99.2031H177.851C177.069 99.2031 176.679 99.5938 176.679 100.375V106.703C176.679 107.484 177.069 107.875 177.851 107.875H180.897C181.835 107.875 182.304 108.344 182.304 109.281V112.047C182.304 112.984 181.835 113.453 180.897 113.453H177.851C177.069 113.453 176.679 113.844 176.679 114.625V120.812C176.679 121.594 177.069 121.984 177.851 121.984H181.647C182.585 121.984 183.054 122.453 183.054 123.391V126.109C183.054 127.047 182.585 127.516 181.647 127.516H177.851C177.069 127.516 176.679 127.906 176.679 128.688V130.609C176.679 131.547 176.21 132.016 175.272 132.016H171.054C170.116 132.016 169.647 131.547 169.647 130.609V128.688C169.647 127.906 169.257 127.516 168.476 127.516H164.632C163.694 127.516 163.226 127.047 163.226 126.109V123.391C163.226 122.453 163.694 121.984 164.632 121.984H168.476C169.257 121.984 169.647 121.594 169.647 120.812V114.625C169.647 113.844 169.257 113.453 168.476 113.453H165.194C164.257 113.453 163.788 112.984 163.788 112.047V109.281C163.788 108.344 164.257 107.875 165.194 107.875H168.476C169.257 107.875 169.647 107.484 169.647 106.703V100.375C169.647 99.5938 169.257 99.2031 168.476 99.2031H164.632C163.694 99.2031 163.226 98.7344 163.226 97.7969V95.0312C163.226 94.0938 163.522 93.625 164.116 93.625C164.741 93.625 164.944 93.2031 164.726 92.3594C164.538 91.2344 164.288 90.0938 163.976 88.9375ZM138.851 89.0781C138.851 88.1094 139.304 87.625 140.21 87.625H158.585C159.522 87.625 159.991 88.0938 159.991 89.0312V94.9375C159.991 95.7188 160.272 96.1094 160.835 96.1094C161.397 96.1094 161.679 96.5781 161.679 97.5156V99.8594C161.679 100.797 161.413 101.266 160.882 101.266C160.288 101.266 159.991 101.656 159.991 102.438V106.234C159.991 108.078 158.804 109.234 156.429 109.703H147.991C147.241 109.703 146.788 110.203 146.632 111.203L146.538 112C146.507 112.781 146.882 113.172 147.663 113.172H159.007C159.944 113.172 160.413 113.641 160.413 114.578V128.359C160.382 130.453 159.179 131.672 156.804 132.016H141.616C140.679 132.016 140.21 131.547 140.21 130.609V123.625C140.21 122.844 139.913 122.453 139.319 122.453C138.757 122.453 138.397 121.984 138.241 121.047L137.726 118.281C137.569 117.344 137.663 116.875 138.007 116.875C138.944 117.031 139.522 116.516 139.741 115.328L140.163 110.969C140.288 110.125 140.069 109.703 139.507 109.703C138.944 109.703 138.663 109.234 138.663 108.297V106.281C138.663 105.344 139.007 104.875 139.694 104.875C140.444 104.875 140.851 104.391 140.913 103.422L141.007 102.531C141.132 101.688 140.819 101.266 140.069 101.266H139.319C138.382 101.266 137.913 100.797 137.913 99.8594V97.5156C137.913 96.5781 138.382 96.1094 139.319 96.1094H140.491C141.304 96.1094 141.741 95.625 141.804 94.6562L141.897 93.7188C142.022 92.875 141.71 92.4531 140.96 92.4531H140.257C139.319 92.4531 138.851 91.9844 138.851 91.0469V89.0781ZM154.085 93.6719C154.085 92.8594 153.71 92.4531 152.96 92.4531H149.866C149.054 92.4531 148.616 92.9375 148.554 93.9062L148.46 94.9375C148.429 95.7188 148.804 96.1094 149.585 96.1094H152.913C153.694 96.1094 154.085 95.7188 154.085 94.9375V93.6719ZM154.085 102.578C154.085 101.703 153.726 101.266 153.007 101.266H148.929C148.116 101.266 147.663 101.75 147.569 102.719L147.522 103.609C147.397 104.453 147.71 104.875 148.46 104.875C150.054 104.906 151.647 104.875 153.241 104.781C154.022 104.281 154.304 103.547 154.085 102.578ZM153.335 119.922C153.335 119.109 152.96 118.703 152.21 118.703H148.46C147.679 118.703 147.288 119.094 147.288 119.875V125.312C147.288 126.094 147.679 126.484 148.46 126.484C149.772 126.516 151.132 126.484 152.538 126.391C153.226 125.953 153.491 125.219 153.335 124.188V119.922ZM192.922 88.3281C192.922 87.3594 193.375 86.875 194.281 86.875H198.547C199.484 86.875 199.953 87.3438 199.953 88.2812V90.25C199.953 91.0312 200.344 91.4219 201.125 91.4219H204.359C205.297 91.4219 205.766 91.8906 205.766 92.8281V95.5469C205.766 96.4844 205.297 96.9531 204.359 96.9531H201.125C200.344 96.9531 199.953 97.3438 199.953 98.125V105.016C199.953 105.797 200.453 106.047 201.453 105.766L203.703 105.062C204.859 104.688 205.438 104.969 205.438 105.906V110.125C205.438 111.062 204.969 111.656 204.031 111.906L201.219 112.797C200.375 113.078 199.953 113.578 199.953 114.297V127.984C199.828 130.016 198.531 131.359 196.062 132.016H189.547C188.609 132.016 188.062 131.547 187.906 130.609L187.531 128.266C187.344 127.078 187.719 126.484 188.656 126.484C190.312 126.703 191.547 126.5 192.359 125.875C192.859 125.344 193.047 124.688 192.922 123.906V116.547C192.922 115.766 192.422 115.516 191.422 115.797L186.359 117.297C185.328 117.641 184.812 117.344 184.812 116.406V112.234C184.812 111.297 185.281 110.688 186.219 110.406L191.375 108.812C192.406 108.5 192.922 107.969 192.922 107.219V98.125C192.922 97.3438 192.531 96.9531 191.75 96.9531H186.969C186.031 96.9531 185.562 96.4844 185.562 95.5469V92.8281C185.562 91.8906 186.031 91.4219 186.969 91.4219H191.75C192.531 91.4219 192.922 91.0312 192.922 90.25V88.3281ZM208.25 89.0781C208.25 88.1094 208.703 87.625 209.609 87.625H228.547C229.484 87.625 229.953 88.0938 229.953 89.0312V91.7969C229.953 92.7344 229.484 93.2031 228.547 93.2031H227.609C226.828 93.2031 226.438 93.5938 226.438 94.375V128.031C226.25 130.031 224.938 131.359 222.5 132.016H212.422C211.484 132.016 210.938 131.547 210.781 130.609L210.406 128.266C210.219 127.078 210.594 126.484 211.531 126.484H216.547C218.422 126.734 219.359 125.875 219.359 123.906V94.375C219.359 93.5938 218.969 93.2031 218.188 93.2031H209.656C208.719 93.2031 208.25 92.7344 208.25 91.7969V89.0781ZM247.837 88.3281C247.837 87.3594 248.29 86.875 249.196 86.875H253.462C254.399 86.875 254.868 87.3438 254.868 88.2812V90.4375C254.868 91.2188 255.259 91.6094 256.04 91.6094H274.274C275.212 91.6094 275.681 92.0781 275.681 93.0156V95.7344C275.681 96.6719 275.212 97.1406 274.274 97.1406H256.04C255.259 97.1406 254.868 97.5312 254.868 98.3125V103.516C254.868 104.297 255.259 104.688 256.04 104.688H275.587C276.524 104.688 276.993 105.156 276.993 106.094V108.859C276.993 109.797 276.524 110.266 275.587 110.266H256.04C255.259 110.266 254.868 110.656 254.868 111.438V130.609C254.868 131.547 254.399 132.016 253.462 132.016H249.243C248.306 132.016 247.837 131.547 247.837 130.609V111.438C247.837 110.656 247.446 110.266 246.665 110.266H233.446C232.509 110.266 232.04 109.797 232.04 108.859V106.094C232.04 105.156 232.509 104.688 233.446 104.688H246.665C247.446 104.688 247.837 104.297 247.837 103.516V88.3281ZM261.009 115.562C260.727 114.562 261.04 114.062 261.946 114.062H266.399C267.337 114.062 267.931 114.531 268.181 115.469L270.056 122.5C270.149 123.625 270.743 124.375 271.837 124.75H275.212C276.149 124.75 276.618 125.219 276.618 126.156V128.922C276.618 129.859 276.149 130.328 275.212 130.328H267.477C265.196 129.766 263.915 128.281 263.634 125.875L261.009 115.562Z" fill="#002B2D"/>
<rect x="210.5" y="169.5" width="159" height="55" fill="white" stroke="black" stroke-width="3"/>
<path d="M233.072 194.928H250.928V197.872H233.072V194.928ZM249.936 194.928H253.104C253.104 194.928 253.093 195.024 253.072 195.216C253.072 195.387 253.072 195.579 253.072 195.792C253.072 196.005 253.061 196.176 253.04 196.304C252.933 198.757 252.816 200.859 252.688 202.608C252.581 204.357 252.453 205.808 252.304 206.96C252.176 208.112 252.005 209.029 251.792 209.712C251.6 210.373 251.365 210.853 251.088 211.152C250.725 211.621 250.331 211.941 249.904 212.112C249.499 212.304 248.997 212.421 248.4 212.464C247.867 212.528 247.141 212.56 246.224 212.56C245.328 212.56 244.389 212.539 243.408 212.496C243.387 212.027 243.28 211.504 243.088 210.928C242.917 210.373 242.693 209.872 242.416 209.424C243.397 209.509 244.304 209.573 245.136 209.616C245.989 209.637 246.608 209.648 246.992 209.648C247.312 209.648 247.568 209.616 247.76 209.552C247.973 209.488 248.165 209.371 248.336 209.2C248.613 208.923 248.848 208.304 249.04 207.344C249.232 206.363 249.392 204.912 249.52 202.992C249.669 201.072 249.808 198.576 249.936 195.504V194.928ZM239.344 195.792H242.64C242.469 197.563 242.203 199.291 241.84 200.976C241.477 202.64 240.901 204.219 240.112 205.712C239.323 207.205 238.213 208.56 236.784 209.776C235.376 210.992 233.52 212.027 231.216 212.88C231.088 212.603 230.917 212.293 230.704 211.952C230.491 211.611 230.256 211.28 230 210.96C229.744 210.64 229.488 210.373 229.232 210.16C231.365 209.456 233.061 208.592 234.32 207.568C235.6 206.544 236.571 205.403 237.232 204.144C237.915 202.864 238.395 201.52 238.672 200.112C238.971 198.704 239.195 197.264 239.344 195.792ZM236.016 184.048L239.184 184.816C238.587 186.651 237.829 188.4 236.912 190.064C236.016 191.707 235.013 193.221 233.904 194.608C232.816 195.973 231.653 197.157 230.416 198.16C230.245 197.947 230 197.701 229.68 197.424C229.36 197.147 229.029 196.869 228.688 196.592C228.368 196.293 228.091 196.069 227.856 195.92C229.733 194.597 231.365 192.912 232.752 190.864C234.16 188.795 235.248 186.523 236.016 184.048ZM241.328 183.504H248.464V186.352H241.328V183.504ZM245.584 183.504H248.976C249.488 185.125 250.192 186.693 251.088 188.208C251.984 189.723 253.029 191.099 254.224 192.336C255.44 193.552 256.763 194.544 258.192 195.312C257.979 195.525 257.733 195.803 257.456 196.144C257.179 196.464 256.912 196.795 256.656 197.136C256.4 197.477 256.187 197.797 256.016 198.096C254.523 197.136 253.147 195.973 251.888 194.608C250.651 193.243 249.552 191.749 248.592 190.128C247.653 188.485 246.885 186.821 246.288 185.136H245.584V183.504ZM259.984 204.08H288.72V206.672H259.984V204.08ZM263.024 198.352H282.768V200.752H263.024V198.352ZM272.656 202.384H275.856V209.776C275.856 210.565 275.717 211.152 275.44 211.536C275.184 211.92 274.736 212.208 274.096 212.4C273.456 212.571 272.635 212.667 271.632 212.688C270.629 212.709 269.424 212.72 268.016 212.72C267.909 212.336 267.76 211.909 267.568 211.44C267.376 210.992 267.173 210.587 266.96 210.224C267.643 210.245 268.325 210.256 269.008 210.256C269.691 210.277 270.288 210.288 270.8 210.288C271.333 210.288 271.696 210.288 271.888 210.288C272.187 210.267 272.389 210.213 272.496 210.128C272.603 210.043 272.656 209.883 272.656 209.648V202.384ZM282.128 198.352H282.96L283.632 198.224L285.584 199.92C284.539 200.496 283.387 201.051 282.128 201.584C280.869 202.096 279.557 202.565 278.192 202.992C276.848 203.397 275.493 203.76 274.128 204.08C273.957 203.824 273.723 203.525 273.424 203.184C273.125 202.843 272.869 202.576 272.656 202.384C273.808 202.128 274.981 201.808 276.176 201.424C277.392 201.04 278.523 200.635 279.568 200.208C280.613 199.76 281.467 199.333 282.128 198.928V198.352ZM267.248 192.144V194.544H281.392V192.144H267.248ZM264.24 189.968H284.592V196.688H264.24V189.968ZM260.336 185.616H288.24V188.176H260.336V185.616ZM271.856 183.312L274.928 182.736C275.269 183.355 275.579 184.037 275.856 184.784C276.155 185.509 276.357 186.149 276.464 186.704L273.232 187.344C273.125 186.811 272.944 186.171 272.688 185.424C272.432 184.656 272.155 183.952 271.856 183.312ZM291.28 200.848H320.08V203.376H291.28V200.848ZM304.208 199.056H307.248V212.624H304.208V199.056ZM303.984 193.168V196.016H307.344V193.168H303.984ZM303.984 188.208V190.992H307.344V188.208H303.984ZM301.392 185.936H310.064V198.288H301.392V185.936ZM304.592 182.8L307.376 183.28C307.099 183.984 306.821 184.688 306.544 185.392C306.288 186.096 306.053 186.693 305.84 187.184L303.792 186.672C303.963 186.117 304.123 185.477 304.272 184.752C304.421 184.005 304.528 183.355 304.592 182.8ZM316.816 194.224L318.768 193.712C319.067 194.523 319.344 195.419 319.6 196.4C319.877 197.381 320.08 198.224 320.208 198.928L318.096 199.536C318.011 198.811 317.84 197.957 317.584 196.976C317.328 195.973 317.072 195.056 316.816 194.224ZM297.808 193.68L299.792 193.232C300.048 194.085 300.283 195.035 300.496 196.08C300.731 197.104 300.891 197.989 300.976 198.736L298.896 199.248C298.811 198.501 298.661 197.605 298.448 196.56C298.235 195.515 298.021 194.555 297.808 193.68ZM292.336 192.656C292.293 192.507 292.219 192.293 292.112 192.016C292.027 191.717 291.931 191.429 291.824 191.152C291.717 190.853 291.621 190.608 291.536 190.416C291.749 190.352 291.963 190.213 292.176 190C292.411 189.765 292.635 189.467 292.848 189.104C292.997 188.869 293.232 188.453 293.552 187.856C293.893 187.259 294.245 186.555 294.608 185.744C294.992 184.912 295.301 184.08 295.536 183.248L297.936 184.112C297.403 185.435 296.763 186.747 296.016 188.048C295.269 189.349 294.533 190.448 293.808 191.344V191.408C293.808 191.408 293.733 191.451 293.584 191.536C293.456 191.621 293.285 191.728 293.072 191.856C292.859 191.984 292.677 192.123 292.528 192.272C292.4 192.4 292.336 192.528 292.336 192.656ZM292.336 192.656L292.272 190.896L293.392 190.192L297.936 189.776C297.893 190.075 297.851 190.416 297.808 190.8C297.787 191.184 297.765 191.493 297.744 191.728C296.379 191.899 295.333 192.037 294.608 192.144C293.883 192.251 293.36 192.347 293.04 192.432C292.72 192.496 292.485 192.571 292.336 192.656ZM292.272 198.96C292.229 198.789 292.155 198.565 292.048 198.288C291.963 198.011 291.867 197.723 291.76 197.424C291.675 197.125 291.579 196.869 291.472 196.656C291.792 196.592 292.101 196.411 292.4 196.112C292.72 195.813 293.083 195.419 293.488 194.928C293.68 194.715 293.979 194.341 294.384 193.808C294.789 193.275 295.237 192.635 295.728 191.888C296.24 191.141 296.741 190.341 297.232 189.488C297.723 188.635 298.181 187.781 298.608 186.928L300.784 188.112C299.781 189.883 298.651 191.611 297.392 193.296C296.133 194.981 294.875 196.453 293.616 197.712V197.776C293.616 197.776 293.499 197.84 293.264 197.968C293.051 198.096 292.827 198.256 292.592 198.448C292.379 198.64 292.272 198.811 292.272 198.96ZM292.272 198.96L292.176 197.2L293.328 196.432L299.952 195.664C299.888 195.963 299.845 196.304 299.824 196.688C299.803 197.072 299.803 197.392 299.824 197.648C298.309 197.84 297.083 198.011 296.144 198.16C295.205 198.309 294.48 198.427 293.968 198.512C293.477 198.597 293.104 198.683 292.848 198.768C292.592 198.832 292.4 198.896 292.272 198.96ZM311.12 192.944C311.056 192.752 310.981 192.517 310.896 192.24C310.811 191.963 310.715 191.675 310.608 191.376C310.501 191.056 310.395 190.8 310.288 190.608C310.523 190.565 310.747 190.427 310.96 190.192C311.173 189.957 311.387 189.648 311.6 189.264C311.771 189.029 312.016 188.603 312.336 187.984C312.677 187.365 313.029 186.64 313.392 185.808C313.776 184.955 314.096 184.101 314.352 183.248L316.848 183.984C316.293 185.371 315.632 186.747 314.864 188.112C314.096 189.477 313.349 190.64 312.624 191.6V191.632C312.624 191.632 312.549 191.675 312.4 191.76C312.251 191.845 312.069 191.963 311.856 192.112C311.664 192.24 311.493 192.379 311.344 192.528C311.195 192.656 311.12 192.795 311.12 192.944ZM311.12 192.944L311.024 191.088L312.176 190.352L317.392 189.84C317.328 190.139 317.275 190.491 317.232 190.896C317.211 191.301 317.2 191.632 317.2 191.888C315.621 192.08 314.427 192.24 313.616 192.368C312.805 192.496 312.229 192.603 311.888 192.688C311.547 192.773 311.291 192.859 311.12 192.944ZM311.376 199.248C311.355 199.077 311.291 198.853 311.184 198.576C311.099 198.277 311.003 197.979 310.896 197.68C310.811 197.36 310.715 197.093 310.608 196.88C310.907 196.816 311.216 196.635 311.536 196.336C311.877 196.037 312.24 195.653 312.624 195.184C312.837 194.949 313.147 194.565 313.552 194.032C313.957 193.499 314.416 192.869 314.928 192.144C315.44 191.397 315.941 190.608 316.432 189.776C316.944 188.923 317.403 188.059 317.808 187.184L320.048 188.432C319.024 190.181 317.883 191.899 316.624 193.584C315.365 195.248 314.096 196.699 312.816 197.936V198.032C312.816 198.032 312.688 198.096 312.432 198.224C312.197 198.352 311.963 198.512 311.728 198.704C311.493 198.896 311.376 199.077 311.376 199.248ZM311.376 199.248L311.344 197.456L312.528 196.72L319.248 196.08C319.184 196.379 319.131 196.731 319.088 197.136C319.045 197.52 319.035 197.829 319.056 198.064C317.541 198.256 316.304 198.416 315.344 198.544C314.405 198.651 313.669 198.747 313.136 198.832C312.624 198.896 312.24 198.971 311.984 199.056C311.728 199.12 311.525 199.184 311.376 199.248ZM300.24 204.368L302.736 205.36C301.968 206.277 301.029 207.152 299.92 207.984C298.811 208.795 297.616 209.52 296.336 210.16C295.077 210.8 293.808 211.312 292.528 211.696C292.4 211.419 292.219 211.12 291.984 210.8C291.749 210.501 291.504 210.213 291.248 209.936C290.992 209.637 290.747 209.392 290.512 209.2C291.749 208.901 292.976 208.517 294.192 208.048C295.429 207.557 296.571 207.003 297.616 206.384C298.683 205.744 299.557 205.072 300.24 204.368ZM309.104 206L310.928 204.08C311.931 204.592 313.008 205.179 314.16 205.84C315.333 206.501 316.443 207.173 317.488 207.856C318.533 208.539 319.397 209.147 320.08 209.68L318.16 211.888C317.52 211.312 316.688 210.683 315.664 210C314.64 209.296 313.552 208.592 312.4 207.888C311.248 207.184 310.149 206.555 309.104 206ZM333.744 184.208H344.496V186.8H333.744V184.208ZM343.792 186.736H349.424V189.168H343.792V186.736ZM336.208 190.096H341.584V192.432H336.208V190.096ZM336.208 195.856H341.584V198.224H336.208V195.856ZM340.528 185.328H342.96V208.208H340.528V185.328ZM335.312 185.136H337.712V203.312L335.312 203.728V185.136ZM333.648 203.024C334.779 202.789 336.112 202.491 337.648 202.128C339.205 201.765 340.795 201.381 342.416 200.976L342.736 203.248C341.243 203.653 339.76 204.059 338.288 204.464C336.816 204.848 335.461 205.211 334.224 205.552L333.648 203.024ZM348.72 186.736H349.2L349.68 186.64L351.248 187.152C350.949 190.203 350.48 193.029 349.84 195.632C349.221 198.235 348.453 200.549 347.536 202.576C346.64 204.603 345.627 206.277 344.496 207.6C344.368 207.387 344.187 207.152 343.952 206.896C343.739 206.64 343.504 206.384 343.248 206.128C343.013 205.872 342.8 205.68 342.608 205.552C343.675 204.336 344.613 202.821 345.424 201.008C346.256 199.173 346.949 197.093 347.504 194.768C348.059 192.443 348.464 189.968 348.72 187.344V186.736ZM323.312 186.544H333.488V189.2H323.312V186.544ZM322.512 192.464H334.064V195.152H322.512V192.464ZM329.232 198.928H333.968V201.584H329.232V198.928ZM327.472 182.992H330.192V194.16H327.472V182.992ZM328.24 194.288H330.928V208.624H328.24V194.288ZM326.224 201.04C326.693 202.725 327.291 204.091 328.016 205.136C328.741 206.181 329.616 206.981 330.64 207.536C331.664 208.069 332.859 208.443 334.224 208.656C335.611 208.848 337.2 208.944 338.992 208.944C339.312 208.944 339.792 208.944 340.432 208.944C341.093 208.944 341.84 208.944 342.672 208.944C343.525 208.944 344.421 208.944 345.36 208.944C346.299 208.944 347.205 208.944 348.08 208.944C348.955 208.923 349.744 208.912 350.448 208.912C351.152 208.891 351.696 208.88 352.08 208.88C351.909 209.093 351.739 209.381 351.568 209.744C351.419 210.085 351.28 210.448 351.152 210.832C351.024 211.216 350.928 211.557 350.864 211.856H348.592H338.992C336.859 211.856 334.981 211.717 333.36 211.44C331.76 211.184 330.363 210.704 329.168 210C327.973 209.275 326.96 208.251 326.128 206.928C325.296 205.584 324.603 203.856 324.048 201.744L326.224 201.04ZM323.888 197.552L326.416 197.68C326.437 199.323 326.395 201.029 326.288 202.8C326.203 204.571 325.947 206.309 325.52 208.016C325.115 209.701 324.485 211.259 323.632 212.688C323.483 212.475 323.291 212.24 323.056 211.984C322.821 211.749 322.576 211.525 322.32 211.312C322.064 211.099 321.84 210.949 321.648 210.864C322.373 209.605 322.896 208.219 323.216 206.704C323.536 205.168 323.739 203.621 323.824 202.064C323.909 200.485 323.931 198.981 323.888 197.552ZM343.184 191.856L345.328 191.12C345.989 192.272 346.651 193.499 347.312 194.8C347.973 196.08 348.603 197.381 349.2 198.704C349.797 200.005 350.331 201.253 350.8 202.448C351.291 203.621 351.675 204.677 351.952 205.616L349.552 206.544C349.296 205.605 348.944 204.539 348.496 203.344C348.048 202.128 347.536 200.869 346.96 199.568C346.384 198.245 345.776 196.923 345.136 195.6C344.496 194.277 343.845 193.029 343.184 191.856Z" fill="#002B2D"/>
</svg>
