<svg width="371" height="240" viewBox="0 0 371 240" fill="none" xmlns="http://www.w3.org/2000/svg">
<path d="M344.602 2.35892L3.91537 53.3403C2.84772 53.5 2.09954 54.4783 2.22489 55.5505L22.6224 230.017C22.8765 232.191 25.9356 232.436 26.5329 230.331L35.8467 197.505C36.0819 196.676 36.8215 196.091 37.6822 196.053L337.387 182.775C338.423 182.729 339.252 181.899 339.297 180.863L346.896 4.42295C346.95 3.16676 345.845 2.17284 344.602 2.35892Z" fill="#FEC601" stroke="black" stroke-width="4"/>
<path d="M61.625 88.0781C61.625 87.1094 62.0781 86.625 62.9844 86.625H82.8594C83.7969 86.625 84.2656 87.0938 84.2656 88.0312V90.4219C84.2656 91.3594 83.7969 91.8281 82.8594 91.8281H78.875C78.125 91.8281 77.5 92.2969 77 93.2344C76.5625 94.2031 76.75 94.6875 77.5625 94.6875H82.1094C83.0469 94.6875 83.5156 95.1562 83.5156 96.0938V118.875C83.4531 120.438 82.5938 121.562 80.9375 122.25C80.8438 122.375 80.9062 122.906 81.125 123.844C81.4375 125.375 82.25 126.031 83.5625 125.812C84.1562 125.812 84.4531 126.281 84.4531 127.219V129.609C84.4531 130.547 83.9844 131.016 83.0469 131.016H78.875C76.9375 130.609 75.75 129.453 75.3125 127.547L74.2812 123.516C74.0312 122.766 73.5625 122.391 72.875 122.391C72.125 122.391 71.5938 122.891 71.2812 123.891C70.6562 126.391 70.1094 128.078 69.6406 128.953C68.8906 130.266 67.7812 130.953 66.3125 131.016H63.2188C62.2812 131.016 61.7188 130.547 61.5312 129.609L61.1094 127.219C60.9219 126.281 61.2969 125.812 62.2344 125.812C63.7031 125.875 64.5469 125.141 64.7656 123.609C65.0469 122.797 64.7188 122.391 63.7812 122.391C62.875 122.391 62.4219 121.922 62.4219 120.984V96.0938C62.4219 95.1562 62.8906 94.6875 63.8281 94.6875H67.7656C68.5156 94.6875 69.1406 94.2188 69.6406 93.2812C70.1719 92.3125 70.0156 91.8281 69.1719 91.8281H63.0312C62.0938 91.8281 61.625 91.3594 61.625 90.4219V88.0781ZM42.2188 88.5469C42.5312 87.3906 43.1406 86.8125 44.0469 86.8125H55.5312C56.4688 86.8125 57.0312 87.2812 57.2188 88.2188C57.5312 89.9375 57.8906 91.6562 58.2969 93.375C58.3906 94.3125 58.625 94.9375 59 95.25C59.25 95.4375 59.4688 95.5469 59.6562 95.5781C59.9375 95.6406 60.0781 96.0938 60.0781 96.9375V99.4219C60.0781 100.359 59.6094 100.828 58.6719 100.828C56.7969 100.891 55.5469 100.828 54.9219 100.641C53.4844 100.234 52.6875 99.2031 52.5312 97.5469L51.6875 93.5156C51.5 92.7656 51.0312 92.3906 50.2812 92.3906H48.9688C48.2188 92.3906 47.7188 92.8906 47.4688 93.8906C46.875 96.3906 46.3594 98.0781 45.9219 98.9531C44.9219 100.578 43.1875 101.203 40.7188 100.828C39.7812 100.828 39.3125 100.359 39.3125 99.4219V97.0312C39.3125 96.0938 39.4062 95.5938 39.5938 95.5312C40.3438 95.1875 40.7188 94.7344 40.7188 94.1719L42.2188 88.5469ZM76.4844 100.359C76.4844 99.5469 76.1094 99.1406 75.3594 99.1406H70.625C69.8438 99.1406 69.4531 99.5312 69.4531 100.312V101.438C69.4531 102.219 69.8438 102.609 70.625 102.609H75.3125C76.0938 102.609 76.4844 102.219 76.4844 101.438V100.359ZM45.9219 101.906C45.9219 100.969 46.3906 100.5 47.3281 100.5H51.5469C52.4844 100.5 52.9531 100.969 52.9531 101.906V104.25C52.9531 105.031 53.3438 105.422 54.125 105.422H57.7812C58.7188 105.422 59.1875 105.891 59.1875 106.828V123.797C59.1562 125.766 58 126.984 55.7188 127.453H52.8125C51.875 127.453 51.3281 126.984 51.1719 126.047L50.7969 123.703C50.6094 122.516 50.7031 121.922 51.0781 121.922C52.5469 121.922 53.1406 121.172 52.8594 119.672V112.125C52.8594 111.344 52.4688 110.953 51.6875 110.953H49.8594C49.0781 110.953 48.6875 111.344 48.6875 112.125V129.609C48.6875 130.547 48.2188 131.016 47.2812 131.016H43.0156C42.0781 131.016 41.6094 130.547 41.6094 129.609V112.125C41.6094 111.344 41.3125 110.953 40.7188 110.953C40.1562 110.953 39.875 110.484 39.875 109.547V106.828C39.875 105.891 40.3438 105.422 41.2812 105.422H44.75C45.5312 105.422 45.9219 105.031 45.9219 104.25V101.906ZM76.4844 108.234C76.4844 107.422 76.1094 107.016 75.3594 107.016H70.625C69.8438 107.016 69.4531 107.406 69.4531 108.188V109.125C69.4531 109.906 69.8438 110.297 70.625 110.297H75.3125C76.0938 110.297 76.4844 109.906 76.4844 109.125V108.234ZM76.4844 115.781C76.4844 115.062 76.0938 114.703 75.3125 114.703H70.625C69.8438 114.703 69.4531 115.094 69.4531 115.875V116.812C69.4531 117.594 69.8438 117.984 70.625 117.984C72.3125 118.016 74 117.984 75.6875 117.891C76.375 117.422 76.6406 116.719 76.4844 115.781ZM86.54 88.0781C86.54 87.1094 86.9931 86.625 87.8994 86.625H109.087C110.024 86.625 110.493 87.0938 110.493 88.0312V90.7969C110.493 91.7344 110.274 92.2031 109.837 92.2031C109.337 92.2031 109.087 92.5938 109.087 93.375V129.609C109.087 130.547 108.618 131.016 107.681 131.016H103.649C102.712 131.016 102.243 130.547 102.243 129.609V128.812C102.243 128.031 101.853 127.641 101.071 127.641H87.7588C86.8213 127.641 86.3525 127.172 86.3525 126.234V123.516C86.3525 122.578 86.7275 122.109 87.4775 122.109C88.2588 122.109 88.6494 121.719 88.6494 120.938V93.375C88.6494 92.5938 88.29 92.2031 87.5713 92.2031C86.8838 92.2031 86.54 91.7344 86.54 90.7969V88.0781ZM112.978 88.0781C112.978 87.1094 113.431 86.625 114.337 86.625H129.431C130.368 86.625 130.837 87.0938 130.837 88.0312V91.875C130.837 92.8125 130.728 93.5938 130.509 94.2188L125.634 110.156C125.353 111.062 125.228 111.688 125.259 112.031C126.446 115.781 127.681 119.531 128.962 123.281C129.181 124.375 129.853 125.094 130.978 125.438C131.321 125.469 131.493 125.953 131.493 126.891V129.609C131.493 130.547 131.024 131.016 130.087 131.016C128.087 131.203 126.462 131.016 125.212 130.453C124.056 129.766 123.399 128.906 123.243 127.875L122.118 124.5C121.868 123.75 121.556 123.906 121.181 124.969C120.868 126.375 120.446 127.531 119.915 128.438C118.478 130.594 116.415 131.453 113.728 131.016C112.79 131.016 112.243 130.547 112.087 129.609L111.712 127.266C111.524 126.078 111.962 125.484 113.024 125.484C113.681 125.391 114.212 124.922 114.618 124.078L117.899 112.828C118.118 112.109 118.134 111.484 117.946 110.953L113.634 96.9844C113.321 96.0469 113.634 95.5781 114.571 95.5781H118.415C119.353 95.5781 119.962 96.0469 120.243 96.9844L120.993 99.1406C121.337 100.078 121.681 99.9844 122.024 98.8594C122.524 97.0469 123.071 95.2188 123.665 93.375C123.79 92.5938 123.462 92.2031 122.681 92.2031H114.384C113.446 92.2031 112.978 91.7344 112.978 90.7969V88.0781ZM102.243 93.375C102.243 92.5938 101.853 92.2031 101.071 92.2031H96.5244C95.7431 92.2031 95.3525 92.5938 95.3525 93.375V97.4531C95.3525 98.2344 95.7431 98.625 96.5244 98.625H101.071C101.853 98.625 102.243 98.2344 102.243 97.4531V93.375ZM102.243 105.047C102.243 104.234 101.868 103.828 101.118 103.828H96.5244C95.7431 103.828 95.3525 104.219 95.3525 105V109.312C95.3525 110.094 95.7431 110.484 96.5244 110.484H101.071C101.853 110.484 102.243 110.094 102.243 109.312V105.047ZM102.243 116.812C102.243 116.031 101.853 115.641 101.071 115.641H96.5244C95.7431 115.641 95.3525 116.031 95.3525 116.812V120.938C95.3525 121.719 95.7431 122.109 96.5244 122.109H101.071C101.853 122.109 102.243 121.719 102.243 120.938V116.812ZM134.705 88.0781C134.705 87.1094 135.158 86.625 136.064 86.625H175.252C176.189 86.625 176.658 87.0938 176.658 88.0312V91.4531C176.658 92.2344 176.939 92.625 177.502 92.625C178.064 92.625 178.346 93.0938 178.346 94.0312V94.9219C178.346 95.8594 178.08 96.3281 177.549 96.3281C176.955 96.3281 176.658 96.7188 176.658 97.5C177.096 100.344 175.908 102.016 173.096 102.516H135.924C134.986 102.516 134.518 102.047 134.518 101.109V100.641C134.518 99.7031 134.986 99.2344 135.924 99.2344H167.471C168.939 99.5469 169.658 98.875 169.627 97.2188C169.627 96.625 169.236 96.3281 168.455 96.3281H134.986C134.049 96.3281 133.58 95.8594 133.58 94.9219V94.0312C133.58 93.0938 134.049 92.625 134.986 92.625H168.455C169.236 92.625 169.627 92.1875 169.627 91.3125C169.627 90.4062 169.236 89.9531 168.455 89.9531H136.111C135.174 89.9531 134.705 89.4844 134.705 88.5469V88.0781ZM134.33 106.359C134.33 105.391 134.783 104.906 135.689 104.906H151.627C152.564 104.906 153.033 105.375 153.033 106.312V107.766C153.033 108.703 152.564 109.172 151.627 109.172H148.674C147.893 109.172 147.502 109.562 147.502 110.344V111.281C147.502 112.062 147.893 112.453 148.674 112.453H152.189C153.127 112.453 153.596 112.922 153.596 113.859V115.266C153.596 116.203 153.127 116.672 152.189 116.672H135.361C134.424 116.672 133.955 116.203 133.955 115.266V113.859C133.955 112.922 134.424 112.453 135.361 112.453H139.111C139.893 112.453 140.283 112.062 140.283 111.281V110.344C140.283 109.562 139.893 109.172 139.111 109.172H135.736C134.799 109.172 134.33 108.703 134.33 107.766V106.359ZM156.314 106.547C156.314 105.547 156.752 105.047 157.627 105.047H175.814C176.752 105.047 177.221 105.516 177.221 106.453V113.203C177.127 114.672 176.408 115.703 175.064 116.297C174.627 116.484 174.408 117 174.408 117.844C174.408 118.75 174.799 119.203 175.58 119.203H177.127C178.064 119.203 178.533 119.672 178.533 120.609V122.016C178.533 122.953 178.064 123.422 177.127 123.422H175.58C174.799 123.422 174.408 123.812 174.408 124.594C174.658 126.594 174.408 128.219 173.658 129.469C173.158 130.281 172.299 130.797 171.08 131.016H161.846C160.908 131.016 160.361 130.547 160.205 129.609L160.111 129.141C159.955 127.953 160.346 127.359 161.283 127.359H164.471C166.502 127.453 167.346 126.562 167.002 124.688C167.002 123.844 166.611 123.422 165.83 123.422H134.986C134.049 123.422 133.58 122.953 133.58 122.016V120.609C133.58 119.672 134.049 119.203 134.986 119.203H165.83C166.611 119.203 167.002 118.766 167.002 117.891C167.002 117.016 166.611 116.578 165.83 116.578H157.721C156.783 116.578 156.314 116.109 156.314 115.172V106.547ZM170.189 110.25C170.189 109.469 169.799 109.078 169.018 109.078H164.518C163.736 109.078 163.346 109.469 163.346 110.25V111.375C163.346 112.156 163.736 112.547 164.518 112.547C166.143 112.578 167.768 112.547 169.393 112.453C170.08 112.016 170.346 111.281 170.189 110.25ZM139.018 127.547C138.455 126.516 138.596 126 139.439 126H146.002C146.939 126 147.549 126.219 147.83 126.656C148.518 127.625 149.533 128.031 150.877 127.875C151.814 127.875 152.283 128.359 152.283 129.328C152.283 130.328 151.814 130.828 150.877 130.828H143.377C141.346 130.797 139.893 129.703 139.018 127.547ZM199.792 86.7656C199.792 86.1406 200.229 85.8281 201.104 85.8281H205.417C206.354 85.8281 206.823 86.1094 206.823 86.6719C206.823 87.2969 207.214 87.6094 207.995 87.6094H224.167C225.104 87.6094 225.573 88.0781 225.573 89.0156V91.9219C225.573 92.8594 225.104 93.3281 224.167 93.3281H219.948C219.011 93.3281 218.542 93.0625 218.542 92.5312C218.542 91.9375 218.151 91.6406 217.37 91.6406H189.057C188.276 91.6406 187.886 91.8594 187.886 92.2969C187.886 92.7344 187.417 92.9531 186.479 92.9531H182.261C181.323 92.9531 180.854 92.4844 180.854 91.5469V89.0156C180.854 88.0781 181.323 87.6094 182.261 87.6094H198.62C199.401 87.6094 199.792 87.3281 199.792 86.7656ZM205.276 95.625C205.62 94.625 206.245 94.125 207.151 94.125H208.557C209.495 94.125 209.901 94.25 209.776 94.5C209.589 94.8438 209.901 95.0156 210.714 95.0156H223.417C224.354 95.0156 224.823 95.3438 224.823 96C224.823 96.6562 224.354 96.9844 223.417 96.9844H219.714C218.932 96.9844 218.542 97.4219 218.542 98.2969C218.542 99.1719 218.932 99.6094 219.714 99.6094H223.417C224.354 99.6094 224.823 99.9062 224.823 100.5C224.823 101.094 224.354 101.391 223.417 101.391H219.714C218.932 101.391 218.542 101.781 218.542 102.562V103.734C218.542 104.516 218.854 104.906 219.479 104.906C220.386 105.094 220.995 104.781 221.307 103.969C221.339 103.75 221.823 103.641 222.761 103.641H223.651C224.589 103.641 225.057 103.875 225.057 104.344C224.964 106.375 223.886 107.234 221.823 106.922H206.073C205.136 106.922 204.667 106.453 204.667 105.516V105.047C204.667 104.109 205.136 103.641 206.073 103.641H206.964C207.901 103.641 208.37 103.844 208.37 104.25C208.37 104.688 208.854 104.906 209.823 104.906C210.823 104.906 211.323 104.516 211.323 103.734V102.562C211.323 101.781 210.932 101.391 210.151 101.391H206.776C205.839 101.391 205.37 101.125 205.37 100.594C205.37 100.062 205.229 99.7656 204.948 99.7031C204.698 99.7031 204.417 99.1719 204.104 98.1094C203.854 97.2969 203.901 96.8281 204.245 96.7031C204.839 96.4531 205.182 96.0938 205.276 95.625ZM181.932 95.8594C181.932 94.9844 182.386 94.5469 183.292 94.5469H200.214C201.151 94.5469 201.62 94.9688 201.62 95.8125C201.62 96.6562 201.151 97.0781 200.214 97.0781H196.792C196.011 97.0781 195.62 97.4375 195.62 98.1562C195.62 98.875 196.011 99.2344 196.792 99.2344H200.026C200.964 99.2344 201.432 99.6562 201.432 100.5C201.432 101.344 200.964 101.766 200.026 101.766H196.792C196.011 101.766 195.62 102.156 195.62 102.938C195.62 103.719 196.011 104.109 196.792 104.109H200.214C201.151 104.109 201.62 104.594 201.62 105.562C201.62 106.531 201.151 107.016 200.214 107.016H183.339C182.401 107.016 181.932 106.531 181.932 105.562C181.932 104.594 182.401 104.109 183.339 104.109H186.995C187.776 104.109 188.167 103.719 188.167 102.938C188.167 102.156 187.776 101.766 186.995 101.766H183.526C182.589 101.766 182.12 101.344 182.12 100.5C182.12 99.6562 182.589 99.2344 183.526 99.2344H186.995C187.776 99.2344 188.167 98.875 188.167 98.1562C188.167 97.4375 187.776 97.0781 186.995 97.0781H183.339C182.401 97.0781 181.932 96.6719 181.932 95.8594ZM211.323 98.3438C211.292 97.4375 210.886 96.9844 210.104 96.9844C209.261 96.9844 208.761 97.25 208.604 97.7812C208.323 98.25 208.042 98.6562 207.761 99C207.354 99.4062 207.589 99.6094 208.464 99.6094H210.151C210.932 99.6094 211.323 99.1875 211.323 98.3438ZM182.542 110.812C182.542 109.844 182.995 109.359 183.901 109.359H222.292C223.229 109.359 223.698 109.828 223.698 110.766V122.344C223.511 124.344 222.448 125.531 220.511 125.906L215.964 125.953C215.151 125.953 215.057 126.469 215.682 127.5C216.307 128.281 217.323 128.641 218.729 128.578H224.354C225.292 128.578 225.761 128.969 225.761 129.75C225.761 130.531 225.292 130.922 224.354 130.922H210.995C209.432 130.859 208.245 130.188 207.432 128.906L206.401 127.172C205.901 126.359 205.292 125.953 204.573 125.953H201.948C201.198 125.953 200.495 126.422 199.839 127.359C198.526 129.578 196.729 130.797 194.448 131.016H182.917C181.979 131.016 181.37 130.594 181.089 129.75C180.807 128.906 181.136 128.484 182.073 128.484H188.167C189.729 128.703 190.87 128.125 191.589 126.75C191.839 126.219 191.557 125.953 190.745 125.953H183.948C183.011 125.953 182.542 125.484 182.542 124.547V110.812ZM216.667 113.859C216.667 113.047 216.292 112.641 215.542 112.641H190.745C189.964 112.641 189.573 113.031 189.573 113.812C189.573 114.594 189.964 114.984 190.745 114.984H215.495C216.276 114.984 216.667 114.609 216.667 113.859ZM216.667 117.562C216.573 116.781 216.151 116.391 215.401 116.391H190.745C189.964 116.391 189.573 116.766 189.573 117.516C189.573 118.297 189.964 118.688 190.745 118.688H215.495C216.276 118.688 216.667 118.312 216.667 117.562ZM216.667 120.844C216.667 120.375 216.292 120.141 215.542 120.141H190.745C189.964 120.141 189.573 120.547 189.573 121.359C189.573 122.203 189.964 122.625 190.745 122.625H214.464C215.87 122.969 216.604 122.375 216.667 120.844ZM230.332 87.5625C230.332 86.5625 230.769 86.0625 231.644 86.0625H235.957C236.894 86.0625 237.363 86.5312 237.363 87.4688V89.8125C237.363 90.5938 237.785 90.9844 238.629 90.9844C239.441 90.9844 239.848 91.4531 239.848 92.3906V95.1094C239.848 96.0469 239.441 96.5156 238.629 96.5156C237.785 96.5156 237.363 96.9062 237.363 97.6875V124.312C237.363 125.094 237.754 125.484 238.535 125.484H239.144C240.082 125.484 240.551 125.953 240.551 126.891V129.609C240.551 130.547 240.082 131.016 239.144 131.016H228.879C227.941 131.016 227.473 130.547 227.473 129.609V126.891C227.473 125.953 227.941 125.484 228.879 125.484C229.848 125.484 230.332 125.094 230.332 124.312V97.6875C230.332 96.9062 229.879 96.5156 228.973 96.5156C228.098 96.5156 227.66 96.0469 227.66 95.1094V92.3906C227.66 91.4531 228.098 90.9844 228.973 90.9844C229.879 90.9844 230.332 90.5938 230.332 89.8125V87.5625ZM254.426 87.5625C254.426 86.5625 254.863 86.0625 255.738 86.0625H259.863C260.801 86.0625 261.269 86.5312 261.269 87.4688V92.3438C261.269 93.1562 261.769 93.4219 262.769 93.1406L269.707 91.4531C270.769 91.2031 271.301 91.5469 271.301 92.4844V117.328C271.113 119.359 270.051 120.531 268.113 120.844L265.723 120.891C264.785 120.891 264.238 120.422 264.082 119.484C263.894 118.703 263.754 117.922 263.66 117.141C263.504 116.203 263.582 115.734 263.894 115.734C265.144 115.578 265.644 114.812 265.394 113.438V99.9375C265.394 99.1562 264.973 98.875 264.129 99.0938C263.566 99.1875 262.988 99.3281 262.394 99.5156C261.644 99.7656 261.269 100.266 261.269 101.016V120.422C261.269 121.359 260.801 121.828 259.863 121.828H255.832C254.894 121.828 254.426 121.359 254.426 120.422V102.656C254.426 101.875 254.004 101.594 253.16 101.812L251.473 102.188C250.598 102.438 250.16 102.891 250.16 103.547V123.281C250.035 125.062 250.785 125.797 252.41 125.484H271.207C272.144 125.484 272.613 125.953 272.613 126.891V129.609C272.613 130.547 272.144 131.016 271.207 131.016H247.066C245.098 131.016 243.894 129.828 243.457 127.453V105.281C243.457 104.5 243.051 104.203 242.238 104.391C241.519 104.578 241.16 104.203 241.16 103.266V99.7969C241.16 98.8594 241.535 98.3125 242.285 98.1562C243.066 97.9375 243.457 97.4531 243.457 96.7031V89.7188C243.457 88.7812 243.926 88.3125 244.863 88.3125H248.754C249.691 88.3125 250.16 88.7812 250.16 89.7188V95.1094C250.16 95.8906 250.66 96.1406 251.66 95.8594L253.301 95.4375C254.051 95.2188 254.426 94.7344 254.426 93.9844V87.5625ZM275.778 88.0781C275.778 87.1094 276.231 86.625 277.137 86.625H317.028C317.966 86.625 318.434 87.0938 318.434 88.0312V127.406C318.309 129.531 317.122 130.734 314.872 131.016H277.184C276.247 131.016 275.778 130.547 275.778 129.609V88.0781ZM311.591 92.6719C311.591 91.8594 311.216 91.4531 310.466 91.4531H283.794C283.012 91.4531 282.622 91.8438 282.622 92.625V125.062C282.622 125.844 283.012 126.234 283.794 126.234H309.434C311.153 126.391 311.872 125.625 311.591 123.938V92.6719ZM285.247 95.1094C285.247 94.1406 285.7 93.6562 286.606 93.6562H307.231C308.169 93.6562 308.637 94.125 308.637 95.0625C308.95 98.0938 307.887 99.8906 305.45 100.453C304.262 100.547 303.075 100.578 301.887 100.547C301.106 100.547 300.716 100.906 300.716 101.625C300.716 102.375 301.106 102.75 301.887 102.75H307.794C308.731 102.75 309.2 103.234 309.2 104.203C309.2 105.203 308.731 105.703 307.794 105.703H286.231C285.294 105.703 284.825 105.219 284.825 104.25C284.825 103.25 285.294 102.75 286.231 102.75H292.512C293.294 102.75 293.684 102.391 293.684 101.672C293.684 100.922 293.294 100.547 292.512 100.547H286.653C285.716 100.547 285.247 100.078 285.247 99.1406V95.1094ZM301.934 96.6094C301.934 95.9844 301.559 95.6719 300.809 95.6719H293.122C292.341 95.6719 291.95 96.1562 291.95 97.125C291.95 98.0938 292.341 98.5781 293.122 98.5781H299.731C301.2 98.9219 301.934 98.2656 301.934 96.6094ZM284.872 109.312C284.872 108.312 285.309 107.812 286.184 107.812H307.747C308.684 107.812 309.153 108.281 309.153 109.219V120.469C309.122 122.531 307.919 123.734 305.544 124.078H286.278C285.341 124.078 284.872 123.609 284.872 122.672V109.312ZM303.247 111.609C303.247 110.797 302.872 110.391 302.122 110.391H291.95C291.169 110.391 290.778 110.781 290.778 111.562V120.375C290.778 121.156 291.169 121.547 291.95 121.547H301.044C302.762 121.766 303.497 121 303.247 119.25V111.609ZM292.747 114.047C292.747 113.078 293.2 112.594 294.106 112.594H300.059C300.997 112.594 301.466 113.062 301.466 114C301.528 115.25 301.466 116.188 301.278 116.812C300.778 118.5 299.653 119.391 297.903 119.484H294.153C293.216 119.484 292.747 119.016 292.747 118.078V114.047ZM298.559 115.547C298.559 114.922 298.091 114.609 297.153 114.609C296.153 114.609 295.653 115.094 295.653 116.062C295.653 117.031 295.966 117.516 296.591 117.516C297.934 117.734 298.591 117.078 298.559 115.547Z" fill="#002B2D"/>
<rect x="210.5" y="169.5" width="159" height="55" fill="white" stroke="black" stroke-width="3"/>
<path d="M235.088 197.2H250.8V199.632H235.088V197.2ZM234.544 202.64H251.408V205.168H234.544V202.64ZM244.72 197.936H247.44V212.112H244.72V197.936ZM238.32 198.064H240.912V204.048C240.912 204.539 240.848 205.147 240.72 205.872C240.613 206.597 240.4 207.376 240.08 208.208C239.76 209.019 239.323 209.808 238.768 210.576C238.213 211.344 237.488 212.027 236.592 212.624C236.379 212.347 236.08 212.027 235.696 211.664C235.312 211.323 234.96 211.045 234.64 210.832C235.643 210.213 236.4 209.488 236.912 208.656C237.445 207.803 237.808 206.96 238 206.128C238.213 205.296 238.32 204.592 238.32 204.016V198.064ZM231.184 188.688H239.76V190.768H231.184V188.688ZM246 188.688H254.608V190.768H246V188.688ZM253.424 184.304H256.432V209.008C256.432 209.819 256.325 210.459 256.112 210.928C255.92 211.419 255.568 211.792 255.056 212.048C254.523 212.304 253.84 212.464 253.008 212.528C252.176 212.592 251.141 212.624 249.904 212.624C249.883 212.347 249.819 212.027 249.712 211.664C249.627 211.301 249.52 210.928 249.392 210.544C249.285 210.181 249.157 209.872 249.008 209.616C249.819 209.637 250.587 209.648 251.312 209.648C252.037 209.648 252.528 209.648 252.784 209.648C253.019 209.627 253.179 209.573 253.264 209.488C253.371 209.381 253.424 209.211 253.424 208.976V184.304ZM231.472 184.304H241.648V195.344H231.472V193.104H238.8V186.512H231.472V184.304ZM254.96 184.304V186.512H247.056V193.168H254.96V195.376H244.176V184.304H254.96ZM229.648 184.304H232.624V212.72H229.648V184.304ZM274.832 208.656H285.968V211.312H274.832V208.656ZM272.912 199.472H287.472V212.624H284.56V202.192H275.696V212.688H272.912V199.472ZM281.776 188.752L284.176 187.568C284.901 188.507 285.616 189.52 286.32 190.608C287.024 191.675 287.664 192.731 288.24 193.776C288.816 194.821 289.253 195.76 289.552 196.592L286.96 197.968C286.683 197.136 286.267 196.187 285.712 195.12C285.157 194.032 284.539 192.933 283.856 191.824C283.173 190.715 282.48 189.691 281.776 188.752ZM272.336 197.264C272.293 197.051 272.208 196.773 272.08 196.432C271.973 196.069 271.845 195.707 271.696 195.344C271.568 194.96 271.451 194.64 271.344 194.384C271.664 194.299 271.984 194.085 272.304 193.744C272.645 193.381 273.008 192.912 273.392 192.336C273.584 192.059 273.872 191.611 274.256 190.992C274.64 190.352 275.056 189.605 275.504 188.752C275.973 187.899 276.443 186.981 276.912 186C277.381 184.997 277.808 183.984 278.192 182.96L281.328 183.824C280.688 185.275 279.984 186.715 279.216 188.144C278.448 189.552 277.659 190.896 276.848 192.176C276.037 193.435 275.237 194.576 274.448 195.6V195.664C274.448 195.664 274.341 195.717 274.128 195.824C273.915 195.931 273.669 196.069 273.392 196.24C273.115 196.389 272.869 196.56 272.656 196.752C272.443 196.923 272.336 197.093 272.336 197.264ZM272.336 197.264L272.272 194.832L274 193.808L287.28 192.944C287.344 193.371 287.44 193.84 287.568 194.352C287.696 194.864 287.803 195.28 287.888 195.6C285.328 195.835 283.173 196.027 281.424 196.176C279.675 196.304 278.245 196.421 277.136 196.528C276.048 196.635 275.195 196.731 274.576 196.816C273.957 196.88 273.477 196.955 273.136 197.04C272.816 197.104 272.549 197.179 272.336 197.264ZM260.144 200.496L261.872 198.48C262.704 199.141 263.6 199.856 264.56 200.624C265.541 201.392 266.501 202.181 267.44 202.992C268.379 203.781 269.253 204.56 270.064 205.328C270.875 206.075 271.547 206.757 272.08 207.376L270.224 209.776C269.691 209.136 269.029 208.421 268.24 207.632C267.451 206.843 266.597 206.032 265.68 205.2C264.763 204.368 263.824 203.547 262.864 202.736C261.925 201.925 261.019 201.179 260.144 200.496ZM260.144 200.496C260.507 199.408 260.859 198.16 261.2 196.752C261.563 195.323 261.904 193.829 262.224 192.272C262.565 190.715 262.864 189.147 263.12 187.568C263.376 185.989 263.568 184.507 263.696 183.12L266.512 183.312C266.32 184.763 266.085 186.299 265.808 187.92C265.531 189.541 265.221 191.163 264.88 192.784C264.539 194.384 264.176 195.92 263.792 197.392C263.429 198.843 263.077 200.144 262.736 201.296L260.144 200.496ZM267.856 187.504H270.608V191.44C270.608 192.656 270.555 193.968 270.448 195.376C270.341 196.784 270.117 198.245 269.776 199.76C269.435 201.253 268.923 202.757 268.24 204.272C267.557 205.765 266.651 207.227 265.52 208.656C264.389 210.064 262.971 211.397 261.264 212.656C261.115 212.443 260.923 212.208 260.688 211.952C260.453 211.696 260.197 211.451 259.92 211.216C259.664 210.981 259.419 210.789 259.184 210.64C261.189 209.211 262.768 207.675 263.92 206.032C265.093 204.368 265.957 202.683 266.512 200.976C267.088 199.248 267.451 197.573 267.6 195.952C267.771 194.309 267.856 192.795 267.856 191.408V187.504ZM259.344 190.192C260.432 190.149 261.659 190.096 263.024 190.032C264.411 189.947 265.872 189.872 267.408 189.808C268.965 189.723 270.523 189.637 272.08 189.552L272.048 192.112C269.851 192.261 267.653 192.411 265.456 192.56C263.259 192.688 261.317 192.805 259.632 192.912L259.344 190.192ZM295.408 184.528H315.888V193.936H295.248V191.888H312.912V186.576H295.408V184.528ZM309.008 197.36V200.112H315.504V197.36H309.008ZM306.192 195.344H318.48V202.128H306.192V195.344ZM291.376 188.24H314.384V190.224H291.376V188.24ZM314.288 188.016H320.144V190.384H314.288V188.016ZM292.304 195.344H304.24V197.52H292.304V195.344ZM291.12 203.856H320.272V206.352H291.12V203.856ZM310.8 201.776H313.776V209.808C313.776 210.533 313.669 211.088 313.456 211.472C313.243 211.856 312.848 212.144 312.272 212.336C311.696 212.528 310.96 212.635 310.064 212.656C309.189 212.699 308.101 212.72 306.8 212.72C306.715 212.357 306.576 211.941 306.384 211.472C306.192 211.003 306 210.597 305.808 210.256C306.448 210.277 307.056 210.288 307.632 210.288C308.229 210.309 308.741 210.309 309.168 210.288C309.616 210.288 309.925 210.288 310.096 210.288C310.373 210.267 310.555 210.213 310.64 210.128C310.747 210.064 310.8 209.925 310.8 209.712V201.776ZM296.752 196.144H299.6V200.72H296.752V196.144ZM291.728 200.464C292.837 200.4 294.096 200.336 295.504 200.272C296.912 200.187 298.416 200.091 300.016 199.984C301.616 199.877 303.216 199.781 304.816 199.696L304.784 201.872C302.48 202.064 300.187 202.235 297.904 202.384C295.621 202.533 293.627 202.672 291.92 202.8L291.728 200.464ZM296.464 207.472L298.512 205.744C299.109 206.085 299.717 206.48 300.336 206.928C300.955 207.355 301.531 207.792 302.064 208.24C302.597 208.688 303.035 209.115 303.376 209.52L301.2 211.408C300.901 211.003 300.485 210.565 299.952 210.096C299.44 209.627 298.875 209.168 298.256 208.72C297.659 208.251 297.061 207.835 296.464 207.472ZM323.312 184.976H350.768V189.648H347.92V187.408H326.064V189.648H323.312V184.976ZM325.296 188.816H335.824V190.64H325.296V188.816ZM325.68 191.92H335.44V193.552H325.68V191.92ZM336.432 191.824H350.064V193.488H336.432V191.824ZM323.856 195.184C325.371 195.12 327.205 195.035 329.36 194.928C331.536 194.8 333.755 194.672 336.016 194.544L335.984 196.528C333.851 196.677 331.728 196.816 329.616 196.944C327.504 197.072 325.648 197.189 324.048 197.296L323.856 195.184ZM329.328 189.552H331.888V195.6L329.328 195.792V189.552ZM338.96 187.536L341.136 187.888C340.752 188.699 340.304 189.467 339.792 190.192C339.301 190.896 338.693 191.579 337.968 192.24C337.776 192.005 337.509 191.771 337.168 191.536C336.827 191.301 336.517 191.131 336.24 191.024C336.859 190.491 337.403 189.925 337.872 189.328C338.341 188.709 338.704 188.112 338.96 187.536ZM339.536 189.008H348.272V190.64H338.544L339.536 189.008ZM341.872 189.712H344.432V196.048H341.872V189.712ZM337.392 193.872H339.568V195.344H346.832V193.872H349.104V197.008H337.392V193.872ZM329.808 202.544V203.856H344.656V202.544H329.808ZM329.808 205.456V206.768H344.656V205.456H329.808ZM329.808 199.696V200.944H344.656V199.696H329.808ZM326.896 198H347.728V208.464H326.896V198ZM338.832 209.584L340.848 207.92C342.064 208.219 343.301 208.549 344.56 208.912C345.84 209.253 347.045 209.605 348.176 209.968C349.328 210.331 350.309 210.661 351.12 210.96L348.496 212.752C347.771 212.432 346.896 212.091 345.872 211.728C344.848 211.365 343.728 210.992 342.512 210.608C341.317 210.245 340.091 209.904 338.832 209.584ZM332.624 207.888L335.056 209.52C334.16 209.968 333.115 210.395 331.92 210.8C330.747 211.205 329.509 211.568 328.208 211.888C326.928 212.208 325.691 212.464 324.496 212.656C324.304 212.379 324.027 212.037 323.664 211.632C323.301 211.248 322.971 210.917 322.672 210.64C323.845 210.448 325.061 210.213 326.32 209.936C327.6 209.637 328.795 209.307 329.904 208.944C331.035 208.581 331.941 208.229 332.624 207.888ZM334.8 183.376L337.808 182.704C338.107 183.195 338.395 183.749 338.672 184.368C338.949 184.987 339.152 185.531 339.28 186L336.144 186.8C336.037 186.352 335.856 185.808 335.6 185.168C335.344 184.507 335.077 183.909 334.8 183.376Z" fill="#002B2D"/>
</svg>
