<svg width="371" height="240" viewBox="0 0 371 240" fill="none" xmlns="http://www.w3.org/2000/svg">
<path d="M344.602 2.35892L3.91537 53.3403C2.84772 53.5 2.09954 54.4783 2.22489 55.5505L22.6224 230.017C22.8765 232.191 25.9356 232.436 26.5329 230.331L35.8467 197.505C36.0819 196.676 36.8215 196.091 37.6822 196.053L337.387 182.775C338.423 182.729 339.252 181.899 339.297 180.863L346.896 4.42295C346.95 3.16676 345.845 2.17284 344.602 2.35892Z" fill="#FEC601" stroke="black" stroke-width="4"/>
<path d="M101.549 87.3281C101.549 86.3281 101.987 85.8281 102.862 85.8281H107.221C108.159 85.8281 108.628 86.2969 108.628 87.2344V129.609C108.628 130.547 108.159 131.016 107.221 131.016H102.956C102.018 131.016 101.549 130.547 101.549 129.609V126.75C101.549 125.969 101.159 125.578 100.378 125.578H93.1119C92.1744 125.578 91.7056 125.109 91.7056 124.172V88.7812C91.7056 87.8438 92.1744 87.375 93.1119 87.375H96.0181C96.9556 87.375 97.4244 87.8438 97.4244 88.7812V118.875C97.4244 119.656 97.815 120.047 98.5963 120.047H100.378C101.159 120.047 101.549 119.656 101.549 118.875V87.3281ZM115.237 87.7031C115.581 86.6094 116.143 86.0625 116.924 86.0625H121.284C122.221 86.0625 122.549 86.5312 122.268 87.4688L121.94 88.5469C121.721 89.3906 121.987 89.8125 122.737 89.8125H133.987C134.924 89.8125 135.393 90.2812 135.393 91.2188V93.9844C135.393 94.9219 135.112 95.3906 134.549 95.3906C133.956 95.3906 133.471 95.8906 133.096 96.8906L127.049 113.203C127.018 113.484 127.096 113.797 127.284 114.141C128.659 117.266 130.096 120.391 131.596 123.516C132.096 124.984 133.049 125.641 134.456 125.484C135.081 125.484 135.393 125.953 135.393 126.891V129.609C135.393 130.547 134.924 131.016 133.987 131.016C132.299 131.078 131.128 131.031 130.471 130.875C129.003 130.531 127.784 129.75 126.815 128.531C126.159 127.625 125.315 125.984 124.284 123.609C123.94 122.859 123.549 122.922 123.112 123.797C122.612 125.016 122.159 126.281 121.753 127.594C121.19 129.719 119.94 130.859 118.003 131.016H113.596C112.659 131.016 112.096 130.547 111.909 129.609L111.534 127.266C111.315 126.078 111.643 125.484 112.518 125.484C113.799 125.828 114.784 125.375 115.471 124.125L119.315 113.812C119.628 113.312 119.518 112.688 118.987 111.938L115.096 103.5C114.628 102.5 114.862 102 115.799 102H120.159C121.096 102 121.768 102.438 122.174 103.312C122.612 104.156 123.034 104.031 123.44 102.938L125.737 96.6562C126.018 95.8125 125.799 95.3906 125.081 95.3906H121.237C120.487 95.3906 119.909 95.8594 119.503 96.7969C118.94 97.9844 117.94 98.6719 116.503 98.8594C115.471 98.9531 114.44 98.9844 113.409 98.9531C112.471 98.9531 111.909 98.4844 111.721 97.5469L111.346 95.2031C111.128 94.0156 111.253 93.4219 111.721 93.4219C112.659 93.6406 113.424 93.1719 114.018 92.0156L115.237 87.7031ZM160.402 87.1406C160.402 86.2656 160.839 85.8281 161.714 85.8281H166.027C166.964 85.8281 167.433 86.2344 167.433 87.0469C167.433 87.9219 167.824 88.3594 168.605 88.3594H180.277C181.214 88.3594 181.683 88.8281 181.683 89.7656V90.9844C181.683 91.9219 181.214 92.3906 180.277 92.3906H168.605C167.824 92.3906 167.433 92.9062 167.433 93.9375C167.433 94.9688 167.824 95.4844 168.605 95.4844H179.714C180.652 95.4844 181.121 95.9531 181.121 96.8906V97.7344C181.121 98.6719 180.652 99.1406 179.714 99.1406H168.605C167.824 99.1406 167.433 99.6562 167.433 100.688C167.433 101.719 167.824 102.234 168.605 102.234H179.902C180.839 102.234 181.308 102.703 181.308 103.641V104.484C181.308 105.422 180.839 105.891 179.902 105.891H168.605C167.824 105.891 167.433 106.406 167.433 107.438C167.433 108.469 167.824 108.984 168.605 108.984H180.277C181.214 108.984 181.683 109.453 181.683 110.391V111.609C181.683 112.547 181.214 113.016 180.277 113.016H165.371C164.589 113.016 164.199 113.484 164.199 114.422C164.199 115.391 164.589 115.875 165.371 115.875H181.074C182.011 115.875 182.48 116.344 182.48 117.281V119.297C182.48 120.234 182.011 120.703 181.074 120.703H165.371C164.589 120.703 164.199 121.094 164.199 121.875V129.609C164.199 130.547 163.73 131.016 162.793 131.016H158.339C157.402 131.016 156.933 130.547 156.933 129.609V121.875C156.933 121.094 156.543 120.703 155.761 120.703H139.074C138.136 120.703 137.668 120.234 137.668 119.297V117.281C137.668 116.344 138.136 115.875 139.074 115.875H155.761C156.543 115.875 156.933 115.406 156.933 114.469C156.933 113.5 156.543 113.016 155.761 113.016H140.996C140.058 113.016 139.589 112.547 139.589 111.609V97.875C139.589 97.0938 139.355 96.7031 138.886 96.7031C138.449 96.7031 138.136 96.2344 137.949 95.2969L137.574 93.375C137.355 92.375 137.449 91.8594 137.855 91.8281C138.73 91.5781 139.23 91.0312 139.355 90.1875L140.199 87.75C140.543 86.75 141.152 86.25 142.027 86.25H146.058C146.996 86.25 147.355 86.5781 147.136 87.2344C146.886 87.9844 147.152 88.3594 147.933 88.3594H159.23C160.011 88.3594 160.402 87.9531 160.402 87.1406ZM160.402 93.9844C160.402 92.9219 160.027 92.3906 159.277 92.3906H147.793C147.011 92.3906 146.621 92.9062 146.621 93.9375C146.621 94.9688 147.011 95.4844 147.793 95.4844H159.23C160.011 95.4844 160.402 94.9844 160.402 93.9844ZM160.402 100.734C160.402 99.6719 160.027 99.1406 159.277 99.1406H147.793C147.011 99.1406 146.621 99.6562 146.621 100.688C146.621 101.719 147.011 102.234 147.793 102.234H159.23C160.011 102.234 160.402 101.734 160.402 100.734ZM160.402 107.484C160.402 106.422 160.043 105.891 159.324 105.891H147.793C147.011 105.891 146.621 106.406 146.621 107.438C146.621 108.469 147.011 108.984 147.793 108.984H159.23C160.011 108.984 160.402 108.484 160.402 107.484ZM141.886 124.734C142.23 123.703 142.855 123.188 143.761 123.188H148.121C149.058 123.188 149.355 123.656 149.011 124.594C148.574 125.688 148.183 126.781 147.839 127.875C147.652 128.938 147.027 129.828 145.964 130.547C144.839 131.016 142.918 131.172 140.199 131.016C139.261 131.016 138.683 130.547 138.464 129.609L138.089 127.688C137.902 126.719 138.23 126.234 139.074 126.234C140.449 126.547 141.386 126.047 141.886 124.734ZM171.089 124.969C170.808 123.781 171.074 123.188 171.886 123.188H176.199C177.136 123.188 177.761 123.656 178.074 124.594C178.574 126 179.574 126.547 181.074 126.234C181.98 126.234 182.433 126.703 182.433 127.641V129.609C182.433 130.547 181.964 131.016 181.027 131.016H175.496C173.558 130.797 172.324 129.719 171.793 127.781L171.089 124.969ZM198.067 86.4844C198.067 86.2031 198.504 86.0625 199.379 86.0625H203.364C204.301 86.0625 204.77 86.5312 204.77 87.4688C205.02 89.5625 204.598 91.2344 203.504 92.4844C202.973 92.9531 202.192 93.2344 201.161 93.3281H193.942C193.161 93.3281 192.77 93.7188 192.77 94.5V104.578C192.77 105.359 193.161 105.75 193.942 105.75H203.129C204.067 105.75 204.536 106.219 204.536 107.156V109.922C204.536 110.859 204.067 111.328 203.129 111.328H193.942C193.161 111.328 192.77 111.719 192.77 112.5V124.312C192.77 125.094 193.161 125.484 193.942 125.484H203.364C204.301 125.484 204.77 125.953 204.77 126.891V129.609C204.77 130.547 204.301 131.016 203.364 131.016H187.098C186.161 131.016 185.692 130.547 185.692 129.609V89.1562C185.692 88.2188 186.161 87.75 187.098 87.75H195.817C197.067 88 197.817 87.5781 198.067 86.4844ZM208.192 88.2656C208.192 87.2969 208.645 86.8125 209.551 86.8125H226.989C227.926 86.8125 228.395 87.2812 228.395 88.2188V123.562C228.333 124.875 227.77 125.938 226.708 126.75C225.458 127.281 223.333 127.453 220.333 127.266C219.395 127.266 218.848 126.797 218.692 125.859C218.504 124.953 218.364 124.031 218.27 123.094C218.114 122.156 218.473 121.688 219.348 121.688C220.223 121.688 220.723 121.656 220.848 121.594C221.629 121.062 221.911 120.344 221.692 119.438V93.5625C221.692 92.7812 221.301 92.3906 220.52 92.3906H216.395C215.614 92.3906 215.223 92.7812 215.223 93.5625V129.609C215.223 130.547 214.754 131.016 213.817 131.016H209.598C208.661 131.016 208.192 130.547 208.192 129.609V88.2656ZM250.544 86.9531C250.544 86.2031 250.982 85.8281 251.857 85.8281H256.169C257.107 85.8281 257.576 86.1719 257.576 86.8594C257.576 87.6094 257.966 87.9844 258.747 87.9844H274.169C275.107 87.9844 275.576 88.4531 275.576 89.3906V91.3594C275.576 92.2969 275.107 92.7656 274.169 92.7656H269.857C269.107 92.7656 268.497 93.2344 268.029 94.1719L267.56 95.2031C267.216 96.0156 267.451 96.4219 268.263 96.4219H274.919C275.857 96.4219 276.326 96.8906 276.326 97.8281V99.7969C276.326 100.734 275.857 101.203 274.919 101.203H232.966C232.029 101.203 231.56 100.734 231.56 99.7969V97.8281C231.56 96.8906 232.029 96.4219 232.966 96.4219H239.669C240.451 96.4219 240.685 95.9219 240.372 94.9219L239.669 92.9531C239.576 92.8281 239.154 92.7656 238.404 92.7656H233.904C232.966 92.7656 232.497 92.2969 232.497 91.3594V89.3906C232.497 88.4531 232.966 87.9844 233.904 87.9844H249.372C250.154 87.9844 250.544 87.6406 250.544 86.9531ZM260.388 93.9844C260.732 93.1719 260.513 92.7656 259.732 92.7656H248.576C247.794 92.7656 247.56 93.2656 247.872 94.2656C248.029 94.9219 248.247 95.5781 248.529 96.2344C248.622 96.3594 249.044 96.4219 249.794 96.4219H258.091C258.841 96.4219 259.451 95.9531 259.919 95.0156L260.388 93.9844ZM233.107 105.141C233.107 104.172 233.56 103.688 234.466 103.688H273.466C274.404 103.688 274.872 104.156 274.872 105.094V116.672C274.779 118.828 273.576 120.047 271.263 120.328H258.888C258.107 120.328 257.716 120.812 257.716 121.781C257.716 122.75 258.107 123.234 258.888 123.234H275.107C276.044 123.234 276.513 123.703 276.513 124.641V126.609C276.513 127.547 276.044 128.016 275.107 128.016H258.888C258.107 128.016 257.716 128.516 257.716 129.516C257.716 130.516 257.247 131.016 256.31 131.016H251.857C250.919 131.016 250.451 130.531 250.451 129.562C250.451 128.531 250.06 128.016 249.279 128.016H232.779C231.841 128.016 231.372 127.547 231.372 126.609V124.641C231.372 123.703 231.841 123.234 232.779 123.234H249.279C250.06 123.234 250.451 122.75 250.451 121.781C250.451 120.812 250.06 120.328 249.279 120.328H234.513C233.576 120.328 233.107 119.859 233.107 118.922V105.141ZM267.841 109.219C267.81 108.25 267.435 107.766 266.716 107.766H241.31C240.529 107.766 240.138 108.234 240.138 109.172C240.138 110.109 240.529 110.578 241.31 110.578H266.622C267.404 110.578 267.81 110.125 267.841 109.219ZM267.794 114.422C267.794 113.922 267.419 113.672 266.669 113.672H241.31C240.529 113.672 240.138 114.109 240.138 114.984C240.138 115.859 240.529 116.297 241.31 116.297H265.497C266.997 116.547 267.763 115.922 267.794 114.422Z" fill="#002B2D"/>
<rect x="210.5" y="169.5" width="159" height="55" fill="white" stroke="black" stroke-width="3"/>
<path d="M237.456 193.552V198.832H248.528V193.552H237.456ZM234.224 190.8H251.888V201.584H234.224V190.8ZM238.512 200.528H241.648C241.477 202.107 241.2 203.547 240.816 204.848C240.453 206.149 239.877 207.323 239.088 208.368C238.32 209.392 237.243 210.277 235.856 211.024C234.491 211.792 232.709 212.432 230.512 212.944C230.427 212.688 230.288 212.4 230.096 212.08C229.925 211.781 229.733 211.472 229.52 211.152C229.307 210.853 229.093 210.597 228.88 210.384C230.843 209.979 232.432 209.477 233.648 208.88C234.864 208.261 235.803 207.547 236.464 206.736C237.125 205.925 237.595 205.008 237.872 203.984C238.171 202.96 238.384 201.808 238.512 200.528ZM244.112 200.496H247.12V208.368C247.12 208.837 247.216 209.147 247.408 209.296C247.6 209.424 248.048 209.488 248.752 209.488C248.901 209.488 249.168 209.488 249.552 209.488C249.936 209.488 250.363 209.488 250.832 209.488C251.301 209.488 251.739 209.488 252.144 209.488C252.549 209.488 252.859 209.488 253.072 209.488C253.477 209.488 253.776 209.403 253.968 209.232C254.16 209.061 254.299 208.72 254.384 208.208C254.491 207.675 254.555 206.875 254.576 205.808C254.811 205.957 255.077 206.107 255.376 206.256C255.696 206.405 256.027 206.544 256.368 206.672C256.731 206.779 257.051 206.864 257.328 206.928C257.2 208.336 256.997 209.424 256.72 210.192C256.464 210.96 256.069 211.483 255.536 211.76C255.003 212.059 254.256 212.208 253.296 212.208C253.168 212.208 252.933 212.208 252.592 212.208C252.251 212.208 251.877 212.208 251.472 212.208C251.067 212.208 250.651 212.208 250.224 212.208C249.797 212.208 249.413 212.208 249.072 212.208C248.752 212.208 248.528 212.208 248.4 212.208C247.248 212.208 246.363 212.091 245.744 211.856C245.125 211.643 244.699 211.259 244.464 210.704C244.229 210.149 244.112 209.381 244.112 208.4V200.496ZM237.744 183.312L240.88 184.4C240.069 185.723 239.077 186.981 237.904 188.176C236.752 189.371 235.515 190.459 234.192 191.44C232.891 192.421 231.589 193.264 230.288 193.968C230.117 193.755 229.872 193.509 229.552 193.232C229.232 192.933 228.901 192.645 228.56 192.368C228.24 192.069 227.952 191.835 227.696 191.664C229.04 191.045 230.341 190.309 231.6 189.456C232.859 188.581 234.021 187.632 235.088 186.608C236.155 185.563 237.04 184.464 237.744 183.312ZM244.88 184.848L247.408 183.28C248.325 183.941 249.275 184.656 250.256 185.424C251.237 186.192 252.208 186.992 253.168 187.824C254.128 188.635 255.013 189.435 255.824 190.224C256.635 190.992 257.328 191.717 257.904 192.4L255.12 194.192C254.608 193.552 253.957 192.837 253.168 192.048C252.4 191.237 251.547 190.416 250.608 189.584C249.691 188.731 248.731 187.899 247.728 187.088C246.747 186.277 245.797 185.531 244.88 184.848ZM259.216 199.632C260.453 199.291 261.936 198.853 263.664 198.32C265.413 197.765 267.173 197.2 268.944 196.624L269.392 199.344C267.771 199.899 266.128 200.464 264.464 201.04C262.821 201.595 261.317 202.096 259.952 202.544L259.216 199.632ZM259.6 189.264H269.104V192.08H259.6V189.264ZM263.184 182.96H266.064V209.008C266.064 209.776 265.979 210.384 265.808 210.832C265.659 211.301 265.36 211.653 264.912 211.888C264.485 212.144 263.941 212.315 263.28 212.4C262.619 212.485 261.797 212.528 260.816 212.528C260.773 212.123 260.667 211.632 260.496 211.056C260.347 210.48 260.176 209.979 259.984 209.552C260.581 209.573 261.125 209.584 261.616 209.584C262.128 209.584 262.48 209.584 262.672 209.584C263.013 209.584 263.184 209.403 263.184 209.04V182.96ZM275.28 182.992L278.096 183.44C277.605 184.635 277.019 185.84 276.336 187.056C275.675 188.251 274.885 189.424 273.968 190.576C273.072 191.728 272.027 192.816 270.832 193.84C270.725 193.627 270.565 193.392 270.352 193.136C270.139 192.88 269.915 192.635 269.68 192.4C269.445 192.165 269.232 191.973 269.04 191.824C270.085 190.971 271.003 190.043 271.792 189.04C272.603 188.037 273.296 187.013 273.872 185.968C274.469 184.923 274.939 183.931 275.28 182.992ZM275.632 185.456H281.904V187.888H274.224L275.632 185.456ZM271.408 190.704H287.152V203.568H284.56V193.168H273.904V203.568H271.408V190.704ZM268.912 202.736H289.136V205.2H268.912V202.736ZM277.776 199.824H280.688C280.56 201.552 280.315 203.109 279.952 204.496C279.589 205.861 279.013 207.077 278.224 208.144C277.435 209.189 276.325 210.085 274.896 210.832C273.488 211.6 271.664 212.229 269.424 212.72C269.296 212.357 269.083 211.941 268.784 211.472C268.485 211.003 268.197 210.629 267.92 210.352C269.968 209.968 271.611 209.477 272.848 208.88C274.085 208.261 275.045 207.525 275.728 206.672C276.411 205.819 276.891 204.827 277.168 203.696C277.445 202.544 277.648 201.253 277.776 199.824ZM281.136 185.456H281.712L282.16 185.36L283.952 186.512C283.632 187.152 283.269 187.824 282.864 188.528C282.459 189.232 282.032 189.904 281.584 190.544C281.136 191.184 280.699 191.749 280.272 192.24C280.037 192.048 279.728 191.835 279.344 191.6C278.96 191.344 278.619 191.152 278.32 191.024C278.704 190.555 279.067 190.032 279.408 189.456C279.771 188.859 280.101 188.251 280.4 187.632C280.699 187.013 280.944 186.459 281.136 185.968V185.456ZM278.736 192.752L281.008 193.328C280.453 194.629 279.707 195.867 278.768 197.04C277.851 198.192 276.891 199.163 275.888 199.952C275.675 199.739 275.365 199.493 274.96 199.216C274.555 198.917 274.213 198.693 273.936 198.544C274.96 197.84 275.899 196.987 276.752 195.984C277.605 194.96 278.267 193.883 278.736 192.752ZM278.096 195.984L279.472 194.544C280.069 194.864 280.699 195.237 281.36 195.664C282.043 196.069 282.683 196.496 283.28 196.944C283.877 197.371 284.368 197.765 284.752 198.128L283.376 199.792C282.992 199.408 282.501 198.992 281.904 198.544C281.328 198.096 280.699 197.648 280.016 197.2C279.355 196.752 278.715 196.347 278.096 195.984ZM280.176 206.832L282.032 205.232C282.821 205.787 283.675 206.416 284.592 207.12C285.531 207.803 286.427 208.485 287.28 209.168C288.155 209.829 288.859 210.405 289.392 210.896L287.44 212.784C286.907 212.272 286.224 211.664 285.392 210.96C284.581 210.277 283.707 209.573 282.768 208.848C281.851 208.123 280.987 207.451 280.176 206.832ZM290.48 199.728C291.888 199.387 293.563 198.96 295.504 198.448C297.445 197.915 299.408 197.371 301.392 196.816L301.776 199.568C299.941 200.101 298.107 200.645 296.272 201.2C294.437 201.733 292.763 202.213 291.248 202.64L290.48 199.728ZM290.928 189.264H301.392V192.08H290.928V189.264ZM295.12 182.992H298.032V209.392C298.032 210.16 297.947 210.757 297.776 211.184C297.605 211.611 297.285 211.931 296.816 212.144C296.347 212.379 295.749 212.528 295.024 212.592C294.299 212.656 293.392 212.688 292.304 212.688C292.261 212.304 292.144 211.845 291.952 211.312C291.781 210.8 291.611 210.341 291.44 209.936C292.123 209.957 292.752 209.979 293.328 210C293.925 210 294.32 209.989 294.512 209.968C294.747 209.968 294.907 209.925 294.992 209.84C295.077 209.755 295.12 209.595 295.12 209.36V182.992ZM302.384 190.256H319.92V212.4H316.912V193.136H305.264V212.624H302.384V190.256ZM304.144 198.704H317.744V201.552H304.144V198.704ZM304.24 207.408H317.84V210.32H304.24V207.408ZM309.552 183.024H312.4V209.2H309.552V183.024ZM322.352 203.408H351.856V205.936H322.352V203.408ZM342.16 201.52L343.6 200.176C344.155 200.539 344.741 200.955 345.36 201.424C345.979 201.893 346.469 202.309 346.832 202.672L345.328 204.208C345.008 203.824 344.539 203.376 343.92 202.864C343.301 202.352 342.715 201.904 342.16 201.52ZM333.36 193.2H351.344V195.28H333.36V193.2ZM344.624 190.992H347.472V197.968C347.472 198.608 347.387 199.099 347.216 199.44C347.067 199.76 346.757 200.016 346.288 200.208C345.819 200.379 345.232 200.485 344.528 200.528C343.845 200.549 343.013 200.56 342.032 200.56C341.968 200.197 341.861 199.813 341.712 199.408C341.563 198.981 341.403 198.608 341.232 198.288C341.893 198.309 342.491 198.331 343.024 198.352C343.579 198.352 343.941 198.352 344.112 198.352C344.325 198.331 344.464 198.288 344.528 198.224C344.592 198.16 344.624 198.053 344.624 197.904V190.992ZM322.48 192.688H331.152V195.088H322.48V192.688ZM329.456 183.088H332.24V201.296H329.456V183.088ZM323.888 183.76H326.448V188.176H331.056V190.512H323.888V183.76ZM335.568 196.304L337.424 194.864C338.064 195.248 338.715 195.707 339.376 196.24C340.037 196.752 340.549 197.243 340.912 197.712L338.928 199.28C338.587 198.832 338.096 198.331 337.456 197.776C336.837 197.2 336.208 196.709 335.568 196.304ZM338.448 186.416L340.368 185.712C341.136 186.245 341.915 186.885 342.704 187.632C343.493 188.379 344.101 189.061 344.528 189.68L342.48 190.416C342.117 189.84 341.552 189.179 340.784 188.432C340.016 187.664 339.237 186.992 338.448 186.416ZM347.856 184.624H348.368L348.848 184.528L350.448 185.36C349.723 186.619 348.805 187.707 347.696 188.624C346.587 189.52 345.328 190.277 343.92 190.896C342.533 191.515 341.04 192.027 339.44 192.432C337.84 192.816 336.187 193.125 334.48 193.36C334.352 193.083 334.171 192.773 333.936 192.432C333.701 192.069 333.477 191.781 333.264 191.568C334.821 191.397 336.336 191.141 337.808 190.8C339.301 190.459 340.699 190.032 342 189.52C343.301 188.987 344.453 188.347 345.456 187.6C346.459 186.853 347.259 185.979 347.856 184.976V184.624ZM342 182.864L344.56 183.44C343.429 184.443 342.075 185.328 340.496 186.096C338.939 186.864 337.104 187.547 334.992 188.144C334.843 187.888 334.608 187.589 334.288 187.248C333.989 186.907 333.712 186.64 333.456 186.448C335.397 186 337.093 185.467 338.544 184.848C340.016 184.229 341.168 183.568 342 182.864ZM340.944 184.624H348.592V186.384H338.64L340.944 184.624ZM324.56 193.648H327.28V195.248C327.28 195.781 327.205 196.443 327.056 197.232C326.907 198 326.64 198.779 326.256 199.568C325.893 200.357 325.339 201.051 324.592 201.648C324.421 201.52 324.197 201.371 323.92 201.2C323.643 201.029 323.355 200.869 323.056 200.72C322.779 200.571 322.523 200.443 322.288 200.336C322.949 199.824 323.44 199.248 323.76 198.608C324.08 197.968 324.293 197.339 324.4 196.72C324.507 196.101 324.56 195.589 324.56 195.184V193.648ZM335.408 200.304H338.416V202.448C338.416 203.131 338.309 203.867 338.096 204.656C337.904 205.424 337.52 206.203 336.944 206.992C336.389 207.781 335.579 208.539 334.512 209.264C333.445 209.989 332.037 210.651 330.288 211.248C328.539 211.867 326.384 212.389 323.824 212.816C323.653 212.475 323.397 212.059 323.056 211.568C322.715 211.099 322.395 210.704 322.096 210.384C324.464 210 326.437 209.563 328.016 209.072C329.595 208.56 330.875 208.027 331.856 207.472C332.837 206.896 333.584 206.309 334.096 205.712C334.629 205.115 334.981 204.528 335.152 203.952C335.323 203.376 335.408 202.843 335.408 202.352V200.304ZM337.904 207.44L339.248 205.424C340.251 205.765 341.328 206.149 342.48 206.576C343.632 206.981 344.795 207.408 345.968 207.856C347.141 208.283 348.251 208.709 349.296 209.136C350.341 209.563 351.237 209.957 351.984 210.32L350.544 212.688C349.84 212.325 348.976 211.92 347.952 211.472C346.949 211.045 345.861 210.587 344.688 210.096C343.536 209.627 342.373 209.168 341.2 208.72C340.027 208.251 338.928 207.824 337.904 207.44ZM334.256 188.656C335.003 188.613 335.803 188.56 336.656 188.496C337.531 188.432 338.469 188.368 339.472 188.304L339.536 189.84C338.64 189.925 337.776 190.011 336.944 190.096C336.112 190.16 335.301 190.235 334.512 190.32L334.256 188.656Z" fill="#002B2D"/>
</svg>
