<svg width="316" height="431" viewBox="0 0 316 431" fill="none" xmlns="http://www.w3.org/2000/svg">
<path d="M0.172617 163.926C4.60703 128.227 16.2388 97.3214 26.4669 76.2407C44.3061 39.4593 69.4792 52.5879 89.6645 30.6444C113.748 4.46849 143.381 3.07537 168.868 0.84521C187.173 -0.750089 222.405 -2.14164 239.651 17.1159C249.251 27.8353 271.981 44.6522 270.648 76.2407C269.328 107.496 241.523 111.402 239.651 142.38C242.151 153.905 262.185 161.065 270.648 159.917C283.389 158.192 302.14 170.877 312.644 193.488C323.148 216.099 305.903 251.38 302.968 290.18C299.661 333.88 285.741 360.764 272.451 377.8C257.851 396.512 242.475 409.291 226.831 415.721C180.005 434.954 131.994 397.301 85.4292 421.963C71.2146 429.492 54.969 441.319 43.6577 413.385C35.0623 392.157 32.6407 355.099 31.3674 321.085C31.2007 316.6 31.0445 311.961 31.4559 307.631C33.1615 289.627 43.2697 286.176 43.0094 267.415C37.7912 261.229 32.0288 262.295 26.4669 260.846C20.905 259.398 18.8583 261.318 14.2495 249.541C9.92701 238.496 -1.53814 181.824 0.172617 163.926Z" fill="white"/>
</svg>
