<svg width="1126" height="530" viewBox="0 0 1126 530" fill="none" xmlns="http://www.w3.org/2000/svg">
<g clip-path="url(#clip0_88_847)">
<path d="M4.3 256.06C21.33 212.2 62.87 183.57 102.15 157.67C170.66 112.48 240.08 66.85 317.6 39.89C410.09 7.73 509.66 3.68 607.54 0.94C677.84 -1.02 750.01 -2.18 816.24 21.48C853.11 34.65 892.19 64.66 887.07 103.47C882 141.87 836.16 164.17 828.97 202.23C861.49 203.32 893.85 197.92 926.35 196.51C975.28 194.39 1026.46 202.12 1066.8 229.9C1107.14 257.68 1133.81 308.75 1122.54 356.42C1109.84 410.11 1056.38 443.14 1005.34 464.07C949.27 487.06 890.22 502.76 830.14 510.66C650.31 534.29 465.93 488.03 287.1 518.33C232.51 527.58 170.12 542.11 126.68 507.79C93.67 481.71 84.37 436.18 79.48 394.39C78.84 388.88 78.24 383.18 79.82 377.86C86.37 355.74 125.19 351.5 124.19 328.45C104.15 320.85 82.02 322.16 60.66 320.38C39.3 318.6 31.44 320.96 13.74 306.49C-2.86 292.92 -2.26 278.06 4.31 256.07" fill="white"/>
</g>
<defs>
<clipPath id="clip0_88_847">
<rect width="1125.14" height="529.42" fill="white"/>
</clipPath>
</defs>
</svg>
