<?xml version="1.0" encoding="UTF-8"?>
<svg id="_レイヤー_2" data-name="レイヤー 2" xmlns="http://www.w3.org/2000/svg" viewBox="0 0 577.38 160.17">
  <defs>
    <style>
      .cls-1 {
        fill: #2364aa;
      }

      .cls-2 {
        fill: #35d2d5;
      }

      .cls-3 {
        fill: #ea7317;
      }
    </style>
  </defs>
  <g id="_圖層_2" data-name="圖層 2">
    <g>
      <path class="cls-3" d="M111.01,54.61v-24.93c0-.46,4.39-1.39,13.16-2.77,8.31-1.85,18.24-4.16,29.78-6.93V1.98c-.92,0-6.46,1.38-16.62,4.15-10.62,2.77-22.62,5.54-36.01,8.31-.93-.46-3.01.23-6.24,2.08-3.69,1.85-5.31,7.16-4.84,15.93.46,3.69.46,21.7,0,54.02,0,32.78-4.16,56.33-12.47,70.64h22.16c.46.46,2.31-4.85,5.54-15.93,3.23-11.54,5.08-33.01,5.54-64.41h13.86v80.34h22.16v-80.34h11.08v-22.16h-47.1ZM84.7,112.79v-20.78h-26.32v-9.7h22.16v-19.39h-15.24c0-.46.7-2.54,2.08-6.23,1.39-3.7,3.46-8.54,6.23-14.55h-22.16l-2.07,6.24c-1.39,4.15-3.47,9-6.24,14.54H11.28v19.39h24.94v9.7H5.74v20.78h30.48v8.31h-12.47c-.46.46-2.31,4.15-5.54,11.08-3.23,6.46-6.93,12.92-11.08,19.39h20.78l8.31-15.24v20.78h22.16v-44.32h26.32ZM62.53,139.8c2.77,1.84,6,3,9.7,3.46,3.23-.46,6-1.62,8.31-3.46,2.31-1.85,3.69-4.39,4.16-7.62-.47-3.7-1.85-6.69-4.16-9.01-2.31-2.3-5.08-3.46-8.31-3.46-3.7,0-6.93,1.16-9.7,3.46-2.77,2.32-4.15,5.31-4.15,9.01,0,3.23,1.38,5.77,4.15,7.62ZM59.76,15.83c.46-3.23-.23-6.47-2.07-9.7-2.31-3.69-6.7-5.54-13.16-5.54-6.01,0-10.16,1.39-12.47,4.16s-2.77,6.46-1.38,11.08H4.36v19.39h80.34V15.83h-24.94Z"/>
      <path class="cls-3" d="M234.75,49.07h-13.85c-.93,38.33-3.93,66.03-9,83.11-5.54,16.62-8.54,24.93-9,24.93h-26.32c11.08-22.16,17.77-45.25,20.09-69.26,2.77-24.01,3.92-36.94,3.46-38.79h-1.38l-6.93,23.55h-23.55c7.39-21.24,12.47-38.32,15.24-51.25l4.16-19.39h23.55l-6.93,26.32h30.47v20.78ZM324.79,50.45h-19.39v96.96c-.46,5.54-2.08,8.54-4.85,9l-4.85.69h-59.56v-22.16h48.48V50.45h-19.39l-5.54,22.16h-24.93c5.54-18.93,9.93-35.32,13.16-49.17,2.77-13.85,4.38-21.01,4.85-21.47h22.16l-4.16,26.32h54.02v22.16Z"/>
      <path class="cls-3" d="M353.55,102.02c-3.06,18.7-5.78,32.65-8.16,41.83l-4.08,14.28h-16.32c4.42-13.6,7.48-26.18,9.18-37.75,2.04-11.56,3.06-17.68,3.06-18.36h16.32Z"/>
      <path class="cls-1" d="M349.47,54.07c.34,3.06-.51,5.61-2.55,7.65s-4.59,3.23-7.65,3.57c-3.4-.34-6.12-1.53-8.16-3.57s-3.06-4.59-3.06-7.65c0-3.4,1.02-6.12,3.06-8.16s4.76-3.06,8.16-3.06c3.06,0,5.61,1.02,7.65,3.06s2.89,4.76,2.55,8.16Z"/>
      <path class="cls-1" d="M350.49,83.66c-.34,3.06-1.53,5.61-3.57,7.65-2.04,2.04-4.59,3.23-7.65,3.57-3.4-.34-6.12-1.53-8.16-3.57-2.04-2.04-3.06-4.59-3.06-7.65,0-3.4,1.02-6.12,3.06-8.16,2.04-2.04,4.76-3.06,8.16-3.06,3.06,0,5.61,1.02,7.65,3.06,2.04,2.04,3.23,4.76,3.57,8.16Z"/>
      <g>
        <path class="cls-1" d="M406.6,143.85c11.9-7.82,19.89-14.79,23.97-20.91,4.08-6.12,2.55-9.35-4.59-9.69h-61.21c-4.76,1.02-6.29,4.42-4.59,10.2,2.04,5.44,8.33,11.9,18.87,19.38-.34,0-3.4,1.7-9.18,5.1-6.12,3.4-13.26,7.48-21.42,12.24h28.57l15.3-8.16c.34,0,2.38.85,6.12,2.55,3.74,2.04,7.14,3.91,10.2,5.61h27.54c-.34-.34-3.4-2.04-9.18-5.1-5.78-3.06-12.58-6.8-20.4-11.22ZM392.31,134.67l-10.2-8.16h23.46l-13.26,8.16Z"/>
        <path class="cls-1" d="M435.16,84.68c-1.02-2.38-4.08-3.74-9.18-4.08h-61.21c-.68-.34-2.38-.17-5.1.51-3.06.68-4.76,3.23-5.1,7.65v14.28c-.34.34-.17,1.7.51,4.08.34,2.38,2.55,3.74,6.63,4.08h68.35l3.06-1.02c1.7-.68,2.72-3.06,3.06-7.14v-14.28c0-.34-.34-1.7-1.02-4.08ZM377.01,97.94h-6.12v-4.08h6.12v4.08ZM399.46,97.94h-7.14v-4.08h7.14v4.08ZM420.88,97.94h-6.12v-4.08h6.12v4.08Z"/>
        <path class="cls-1" d="M367.83,77.54h54.07c.34,0,1.7-.34,4.08-1.02,2.38-.68,3.74-2.38,4.08-5.1v-20.4c0-.34-.34-1.53-1.02-3.57-.68-2.38-3.4-3.57-8.16-3.57h-49.99c-.68-.34-2.38-.17-5.1.51-3.06.34-4.76,2.55-5.1,6.63v19.38c-.34,0-.17,1.19.51,3.57.34,2.04,2.55,3.23,6.63,3.57ZM401.5,57.13h12.24v7.14h-12.24c1.36-.34,2.04-1.36,2.04-3.06s-.68-3.06-2.04-4.08ZM377.01,57.13h11.22c-1.02.68-1.7,1.87-2.04,3.57,0,1.7.34,2.89,1.02,3.57h-10.2v-7.14Z"/>
      </g>
      <path class="cls-1" d="M576.36,156.09c-23.12.34-42.68.34-58.66,0-15.64-.34-27.04-3.74-34.18-10.2-.68,3.06-1.7,5.44-3.06,7.14-1.36,1.7-2.04,2.72-2.04,3.06h-15.3c5.44-10.54,9.35-20.4,11.73-29.59,2.38-9.18,3.57-13.94,3.57-14.28h-16.32v-15.3h20.4c7.48.34,11.05,4.25,10.71,11.73-.34,7.82-1.87,16.83-4.59,27.04l5.1,2.04c2.72-18.36,3.91-34.35,3.57-47.95-.34-13.6-.51-20.74-.51-21.42h-4.08v-14.28h13.26v-13.26h16.32v13.26h12.24v14.28h-23.46v11.22h16.32c3.4.34,5.44,1.7,6.12,4.08.68,2.38,1.02,3.74,1.02,4.08v41.83c-.34,4.76-1.36,7.48-3.06,8.16l-3.06,1.02h-16.32v-15.3h6.12v-28.57h-7.14c-.68,12.24-1.53,22.62-2.55,31.12-1.02,8.16-1.53,12.41-1.53,12.75h-12.24c10.2,4.08,22.44,5.95,36.73,5.61,14.28-.68,29.25-.85,44.89-.51v12.24ZM576.36,65.3h-25.5l-4.08,9.18h-15.3c2.04-4.76,4.08-11.39,6.12-19.89,1.7-8.5,2.72-13.09,3.06-13.77h14.28l-1.02,9.18h22.44v15.3ZM577.38,115.29h-9.18c4.08,11.9,4.59,18.87,1.53,20.91s-4.93,2.89-5.61,2.55h-23.46v-15.3h15.3c1.7-.34,2.04-1.7,1.02-4.08-1.36-2.38-2.04-3.74-2.04-4.08h-17.34v-14.28h13.26l5.1-9.18h-17.34v-14.28h29.59c5.44.68,6.8,4.59,4.08,11.73-2.72,6.8-4.42,10.71-5.1,11.73h10.2v14.28Z"/>
      <path class="cls-2" d="M7.79,54.84c-1.19-4.14-.15-5.54,3.13-4.22.95.53,1.73,1.24,2.33,2.14,1.57,1.92,5.42.41,5.12-2.12-.56-4.71-1.77-8.78,4.61-8.36,2.6.17,14.4,4.89,7.95,7.91-3.04,1.43-.88,6.68,2.31,5.48,2.55-.96,5.13-1.61,7.88-1.55,2.49.06,4.35-.25,1.51-2.13-3.26-2.17-6.98-1.22-10.63-1.14-8.38.2-17.6-3.99-25.2,1.51-1.92,1.39-3.55,3.39-2.28,5.8,1.62,3.06,5.65,2.22,8.49,2.03,11.28-.78,22.56-1.55,33.84-2.33,3.83-.26,3.89-5.87,0-6-2.5-.08-4.78-.5-7.15-1.24l-.8,5.89c1.73-.07,3.31-.02,5.04.17v-6c-9.84.03-19.62-.58-29.38-1.83-3.59-.46-3.71,4.79-.8,5.89s5.69,1.39,8.72,1.49l-.8-5.89c-3.08.53-5.91.49-8.98-.08l-1.6,5.79c4.84.77,9.65,1.13,14.56.97l-.8-5.89c-4.13,1.07-7.95,1.15-12.12.17-3.44-.8-5.03,3.53-2.31,5.48,1.43,1.03,2.79,1.66,4.46,2.2l1.6-5.79c-3.49-.91-6.74-2.16-9.93-3.86l-.72,5.48c1.82-.04,2.95.74,3.4,2.33l2.59-4.51c-3.41-1.48-3.98-.82-1.71,1.98,1.69-2.36,1.08-3.16-1.83-2.41-1.24-3.64-6.68-2.19-5.79,1.6,2.16,9.11,17.93,1.48,22.79-.99,2.8-1.43,1.28-5.46-1.51-5.59s-5.4-.58-8.09-1.34c-3.75-1.06-5.21,4.53-1.6,5.79,2.27.79,4.05,1.91,5.78,3.58,2.79,2.67,6.97-1.49,4.24-4.24-1.94-1.96-2.61-3.92-2.47-6.65l-4.51,2.59c1.92.86,2.73,2.37,2.42,4.52l3.69-2.1c-4.41-4.21-5-5.36-1.77-3.45l2.4-.18c.96.62,1.85,1.33,2.67,2.12.16-1.7-.3-2.43-1.38-2.17-.31-.71-.81-.06.83.58.91.45.65.32-.79-.39.79.7,1.66.88,2.63.54l-2.1,2.1-.9.23,3.69-3.69-.86-.77-4.1,4.1c1.78.71,2.8,2.07,3.06,4.08.26,2.09,1.7,3.21,3.8,2.89,8.64-1.32,6.25-16.72-3.25-14.24-1.84.48-2.81,2.77-1.79,4.41l1.01,1.62c2.04,3.27,7.23.26,5.18-3.03l-1.01-1.62-1.79,4.41.06,2.67,3.8,2.89c-.52-4.16-2.27-7.21-6.03-9.26-2.74-1.49-5.4,1.45-4.1,4.1.98,2,2.3,2.99,4.45,3.53,2.28.57,4.2-1.45,3.69-3.69-.97-4.22-7.2-7.31-8.75-1.72-1.32,4.78,5.11,10.04,9.38,6.91,9.51-6.96-10.29-19.49-13.29-8.39-1.47,5.46,4.35,8.7,9.02,8.55s7.46-4.89,4.53-8.95c-2.65-3.67-9.84-7.01-12.74-1.89-2.48,4.36,1.84,10.22,5.99,11.69,4.56,1.62,9.95-1.74,8.88-6.95-.99-4.83-7.56-8.75-11.95-5.95-12.16,7.76,9.95,20.61,11.3,8.39.52-4.7-6.05-9.53-10.37-9.71-5.23-.22-7.02,5.25-4.51,9.27s8.82,3.94,9.59-1.44-5.39-8.52-9.84-7.87c-5.59.82-7.41,7.34-3.67,11.34s11.77,2.32,12.36-3.73c.52-5.35-5.93-9.08-10-5.18-4.94,4.74.13,11.8,5.11,13.64,1.41.52,3.44-.59,3.69-2.1.79-4.78-.87-8.88-5.18-11.3-2.05-1.15-4.4.32-4.51,2.59-.22,4.26,1.23,7.87,4.23,10.89l4.24-4.24c-2.49-2.38-5.18-3.99-8.43-5.12l-1.6,5.79c3.2.9,6.36,1.4,9.68,1.55l-1.51-5.59c-.8.41-13.75,5.52-13.98,4.58l-5.79,1.6c1.29,3.79,5.83,6.32,9.34,3.35,3.07-2.6,2.26-8-1.39-9.62-3.88-1.72-7.71,1.74-6.82,5.78.98,4.43,6.82,5.96,10.65,4.4,10.39-4.22-5.79-18.56-10.22-8.06-1.68,3.99,1.07,8.46,5.19,9.4,3.9.89,8.29-2.18,6.72-6.37-1.68-4.47-8.74-7.33-12.07-3.11-4.26,5.39,3.48,9.01,7.92,9.07,2.44.03,3.51-2.53,2.59-4.51-1.94-4.16-5.82-5.68-10.18-5.08-2.61.35-2.83,4.35-.72,5.48,3.63,1.95,7.37,3.43,11.36,4.47,3.76.98,5.25-4.59,1.6-5.79-1.14-.3-2.15-.83-3.03-1.59l-2.31,5.48c5.17,1.21,10.16,1.17,15.31-.17,3.24-.84,2.62-6-.8-5.89-4.37.14-8.64-.07-12.96-.75-3.75-.6-5.43,5.07-1.6,5.79,4.14.77,8.03.78,12.17.08,3.45-.59,2.45-5.78-.8-5.89-2.53-.09-4.76-.39-7.13-1.28l-.8,5.89c9.76,1.25,19.54,1.86,29.38,1.83,3.95-.01,3.75-5.59,0-6-1.72-.19-3.3-.24-5.04-.17-3.38.14-4.07,4.87-.8,5.89,2.89.91,5.72,1.36,8.75,1.46v-6c-11.28.78-22.56,1.55-33.84,2.33-.39.03-3.89.03-3.98.27l2.33,2.11,1.98-.7c2.61-.69,5.36-.45,8-.13,2.31.28,4.61.71,6.92.94,2.74.27,5.56-.46,8.22-.18,3.67.39,5.22,3.68,9.28,2.89,2.63-.52,4.5-2.64,4.33-5.37-.54-8.36-13.64-5.94-18.44-4.14l2.31,5.48c3.62-1.7,5.29-5.78,4.26-9.62-1.2-4.49-5.61-7.17-9.78-8.49s-9.95-1.84-13.69.6c-4.41,2.87-2.9,8.43-2.38,12.78l5.12-2.12c-3.88-4.74-11.14-6.12-15.48-1.08-4.12,4.77-1.45,11.44,4.19,13.2,3.7,1.15,5.28-4.64,1.6-5.79h0Z"/>
      <path class="cls-2" d="M495.4,51.82c.09-.93.04-1.88-.15-2.82-.95-4.59-5.18-7.63-9.29-9.24-4.88-1.91-12.23-3-16.95.03-2.88,1.85-3.41,4.86-3.26,7.97-3.97-1.35-8.43-.6-11.4,3.19-4.03,5.14-1.2,12.25,4.84,13.98.86.25,1.61.12,2.2-.23,2.26.3,4.9-.23,6.78-.36,10.03-.69,20.05-1.38,30.08-2.07,1.14.75,2.05,1.23,3.56,1.33,3.21.21,6.55-1.35,6.8-4.93.48-6.81-6.87-7.63-13.2-6.85Z"/>
      <path class="cls-2" d="M353.67,85.6c.09-.93.04-1.88-.15-2.82-.95-4.59-5.18-7.63-9.29-9.24-4.88-1.91-12.23-3-16.95.03-2.88,1.85-3.42,4.86-3.26,7.97-3.97-1.35-8.43-.6-11.4,3.19-4.03,5.14-1.2,12.25,4.84,13.98.86.25,1.61.12,2.2-.23,2.26.3,4.9-.23,6.78-.36,10.03-.69,20.05-1.38,30.08-2.07,1.14.75,2.05,1.23,3.56,1.33,3.21.21,6.55-1.35,6.8-4.93.48-6.81-6.87-7.63-13.2-6.85Z"/>
      <path class="cls-2" d="M482.08,81.38c-1.49-1.44-3.66-1.81-5.84-1.68-.62-2.62-2.86-5.08-5.78-6.17-2.88-1.08-6.99-1.59-9.81,0-1.69.96-2.36,2.39-2.57,3.99-6.12-.17-10.82,8.86-2.61,12.11.85.34,1.57.26,2.15-.06,1.81.15,3.82-.26,5.6-.39,4.49-.31,8.97-.62,13.46-.93,1.49.66,2.97,1.18,4.88-.03,2.4-1.51,2.55-4.9.52-6.86Z"/>
      <rect class="cls-2" x="124.87" y="76.77" width="22.16" height="80.34"/>
      <polygon class="cls-2" points="204.28 28.29 198.74 49.07 234.75 49.07 234.75 28.29 204.28 28.29"/>
      <path class="cls-3" d="M488.62,135.69l-5.1,10.2s6.42,6.98,22.65,9.29,70.19.92,70.19.92v-12.24s-58.18.99-64.85-.65c-16.22-3.98-21.65-7.31-22.89-7.51Z"/>
      <polygon class="cls-2" points="270.77 28.29 265.23 50.45 324.79 50.45 324.79 28.29 270.77 28.29"/>
      <path class="cls-2" d="M60.33,15.83h-30.2c-1.44-4.8-.97-8.63,1.43-11.51S38.28,0,44.52,0c6.71,0,11.27,1.92,13.67,5.75,1.91,3.35,2.63,6.72,2.15,10.07Z"/>
    </g>
  </g>
</svg>